{"glyphs":{"0":{"x_min":21,"x_max":554,"ha":546,"o":"m 223 -10 q 113 -10 67 57 q 21 124 21 240 l 21 240 q 21 378 64 496 q 107 614 185 685 q 262 755 361 755 l 361 755 q 457 755 506 691 q 554 627 554 515 l 554 515 q 554 404 520 283 q 486 161 412 76 q 337 -10 223 -10 l 223 -10 m 236 65 q 283 65 325 137 q 367 209 393 322 q 418 435 418 550 l 418 550 q 418 613 403 655 q 388 696 360 696 l 360 696 q 314 696 270 623 q 226 550 198 437 q 170 324 170 215 l 170 215 q 170 65 236 65 l 236 65"},"1":{"x_min":21,"x_max":324,"ha":317,"o":"m 21 0 l 153 624 l 58 624 l 70 670 q 125 670 184 685 q 243 700 324 748 l 324 748 l 165 0 l 21 0"},"2":{"x_min":-12,"x_max":472,"ha":492,"o":"m 313 -12 q 293 -12 272 -7 q 250 -2 219 7 l 219 7 q 182 18 158 23 q 134 28 108 28 l 108 28 q 52 28 -2 -1 l -2 -1 l -6 -1 q -12 23 -12 46 l -12 46 q -12 88 10 129 q 31 169 62 203 q 93 237 147 290 l 147 290 q 204 345 239 385 q 274 424 298 472 q 322 519 322 571 l 322 571 q 322 628 304 661 q 285 694 247 694 l 247 694 q 212 694 190 671 q 168 647 168 613 l 168 613 q 168 579 182 553 q 195 526 216 514 l 216 514 l 216 510 q 199 494 179 485 q 159 476 140 476 l 140 476 q 109 476 89 504 q 68 532 68 580 l 68 580 q 68 622 93 661 q 117 700 165 725 q 213 750 278 750 l 278 750 q 365 750 419 702 q 472 653 472 568 l 472 568 q 472 514 445 468 q 417 422 377 386 q 337 350 270 299 l 270 299 q 204 249 165 213 q 126 177 105 137 l 105 137 q 134 145 167 145 l 167 145 q 191 145 217 141 q 243 137 266 132 l 266 132 q 270 131 293 127 q 315 122 333 122 l 333 122 q 360 122 383 134 q 406 145 431 173 l 431 173 l 434 171 q 447 134 447 109 l 447 109 q 447 74 429 47 q 410 19 379 4 q 348 -12 313 -12 l 313 -12"},"3":{"x_min":6,"x_max":498,"ha":514,"o":"m 205 -5 q 134 -5 70 30 q 6 65 6 165 l 6 165 q 6 230 38 269 q 69 308 127 308 l 127 308 q 195 308 205 257 l 205 257 q 154 254 136 222 q 117 190 117 149 l 117 149 q 117 106 142 82 q 167 58 203 58 l 203 58 q 235 58 265 77 q 294 96 313 135 q 332 174 332 229 l 332 229 q 332 290 299 343 q 265 395 199 418 l 199 418 q 252 433 291 466 q 330 498 350 538 q 370 577 370 613 l 370 613 q 370 650 351 673 q 331 695 294 695 l 294 695 q 258 695 237 674 q 215 652 215 617 l 215 617 q 215 593 225 572 q 234 551 253 546 l 253 546 q 216 512 177 512 l 177 512 q 146 512 126 535 q 105 557 105 597 l 105 597 q 105 642 133 677 q 160 711 207 730 q 254 749 312 749 l 312 749 q 371 749 413 729 q 455 709 477 676 q 498 643 498 603 l 498 603 q 498 551 463 501 q 428 451 361 417 l 361 417 q 424 396 456 353 q 487 309 487 252 l 487 252 q 487 190 452 131 q 416 71 352 33 q 287 -5 205 -5 l 205 -5"},"4":{"x_min":-2,"x_max":477,"ha":476,"o":"m 477 314 q 477 275 447 245 q 417 215 370 206 l 370 206 l 326 0 l 187 0 l 262 215 l 243 221 q 203 232 180 237 q 157 242 131 242 l 131 242 q 65 242 23 221 l 23 221 l 19 221 l -2 260 l -2 265 q 101 388 159 486 q 217 584 217 673 l 217 673 q 217 703 209 735 l 209 735 q 230 742 259 742 l 259 742 q 304 742 329 718 q 354 693 354 655 l 354 655 q 354 610 315 549 q 275 487 218 427 q 160 366 105 322 l 105 322 l 106 319 q 124 326 149 332 q 173 337 195 337 l 195 337 q 220 337 255 331 q 290 325 299 323 l 299 323 l 380 556 l 444 556 l 395 324 q 430 337 458 371 l 458 371 l 461 369 q 477 341 477 314 l 477 314"},"5":{"x_min":15,"x_max":502,"ha":517,"o":"m 197 -5 q 109 -5 62 33 q 15 71 15 141 l 15 141 q 15 204 51 243 q 87 281 145 281 l 145 281 q 206 281 216 230 l 216 230 q 175 225 151 201 q 126 176 126 137 l 126 137 q 126 102 147 82 q 168 62 203 62 l 203 62 q 261 62 298 114 q 335 166 335 247 l 335 247 q 335 316 306 354 q 277 391 225 391 l 225 391 q 172 391 94 346 l 94 346 l 81 355 l 158 734 q 271 721 326 721 l 326 721 q 417 721 500 749 l 500 749 q 502 727 502 716 l 502 716 q 502 664 475 632 q 447 600 387 600 l 387 600 q 364 600 332 605 q 300 610 271 616 l 271 616 q 246 621 220 625 l 220 625 l 180 444 q 245 475 304 475 l 304 475 q 386 475 434 420 q 481 364 481 269 l 481 269 q 481 188 446 126 q 410 64 346 30 q 281 -5 197 -5 l 197 -5"},"6":{"x_min":16,"x_max":510,"ha":500,"o":"m 220 -5 q 115 -5 66 58 q 16 120 16 259 l 16 259 q 16 393 63 506 q 109 618 189 684 q 269 749 365 749 l 365 749 q 431 749 471 718 q 510 687 510 636 l 510 636 q 510 597 489 571 q 468 544 437 544 l 437 544 q 420 544 406 553 q 392 562 386 576 l 386 576 q 402 584 411 600 q 419 616 419 634 l 419 634 q 419 657 406 674 q 392 690 367 690 l 367 690 q 326 690 287 647 q 247 604 216 529 q 185 453 171 360 l 171 360 l 174 361 q 192 407 233 431 q 274 455 330 455 l 330 455 q 399 455 441 409 q 483 362 483 282 l 483 282 q 483 208 447 142 q 411 76 351 36 q 290 -5 220 -5 l 220 -5 m 241 73 q 269 73 296 101 q 322 128 339 176 q 356 223 356 279 l 356 279 q 356 333 335 359 q 313 384 276 384 l 276 384 q 162 384 162 219 l 162 219 q 162 73 241 73 l 241 73"},"7":{"x_min":57,"x_max":521,"ha":464,"o":"m 175 -4 q 129 -4 102 29 q 75 61 75 117 l 75 117 q 75 177 105 240 q 135 303 175 357 q 214 410 276 483 l 276 483 q 326 543 348 573 q 369 602 369 621 l 369 621 q 351 616 334 612 q 317 608 302 608 l 302 608 q 276 608 239 619 l 239 619 q 235 620 214 625 q 192 630 171 630 l 171 630 q 142 630 119 618 q 96 606 73 578 l 73 578 l 70 579 q 57 608 57 640 l 57 640 q 57 693 95 725 q 133 756 194 756 l 194 756 q 216 756 236 753 q 256 749 283 741 l 283 741 q 315 732 337 728 q 359 724 385 724 l 385 724 q 441 724 520 745 l 520 745 l 521 741 q 521 718 498 677 q 474 635 423 556 l 423 556 q 363 463 324 397 q 285 330 256 256 q 227 181 227 118 l 227 118 q 227 66 245 15 l 245 15 q 210 -4 175 -4 l 175 -4"},"8":{"x_min":-2,"x_max":502,"ha":499,"o":"m 355 438 q 397 399 423 370 q 448 341 466 304 q 484 266 484 223 l 484 223 q 484 161 449 109 q 413 56 353 25 q 292 -6 220 -6 l 220 -6 q 156 -6 106 19 q 55 43 27 87 q -2 130 -2 187 l -2 187 q -2 257 44 310 q 90 362 188 406 l 188 406 q 145 451 122 491 q 98 530 98 576 l 98 576 q 98 626 127 668 q 156 709 207 733 q 257 757 318 757 l 318 757 q 371 757 413 739 q 455 721 479 689 q 502 656 502 616 l 502 616 q 502 518 355 438 l 355 438 m 329 709 q 291 709 266 682 q 240 654 240 611 l 240 611 q 240 575 259 544 q 278 512 314 477 l 314 477 q 351 510 373 552 q 395 594 395 633 l 395 633 q 395 668 378 689 q 360 709 329 709 l 329 709 m 225 63 q 270 63 303 99 q 335 135 335 184 l 335 184 q 335 231 308 272 q 281 313 229 365 l 229 365 q 181 333 156 287 q 130 240 130 186 l 130 186 q 130 130 156 97 q 182 63 225 63 l 225 63"},"9":{"x_min":13,"x_max":492,"ha":489,"o":"m 158 -3 q 92 -3 53 28 q 13 59 13 110 l 13 110 q 13 149 34 176 q 55 203 85 203 l 85 203 q 103 203 118 194 q 132 185 136 171 l 136 171 q 121 162 113 147 q 104 131 104 114 l 104 114 q 104 93 117 79 q 129 65 154 65 l 154 65 q 195 65 233 108 q 271 151 299 227 q 327 303 339 396 l 339 396 l 336 395 q 318 349 278 325 q 237 301 181 301 l 181 301 q 111 301 69 348 q 27 394 27 474 l 27 474 q 27 547 66 611 q 104 674 168 712 q 232 750 306 750 l 306 750 q 398 750 445 684 q 492 617 492 487 l 492 487 q 492 352 448 240 q 404 128 327 63 q 250 -3 158 -3 l 158 -3 m 224 374 q 289 374 319 423 q 349 472 349 558 l 349 558 q 349 685 276 685 l 276 685 q 243 685 215 655 q 187 624 171 576 q 154 528 154 477 l 154 477 q 154 424 173 399 q 192 374 224 374 l 224 374"},"\r":{"x_min":0,"x_max":0,"ha":600,"o":""}," ":{"x_min":0,"x_max":0,"ha":217,"o":""},"A":{"x_min":9,"x_max":692,"ha":668,"o":"m 218 -114 q 181 -114 153 -108 q 125 -102 105 -79 q 84 -56 84 -8 l 84 -8 q 84 59 125 172 q 165 285 231 399 l 231 399 q 181 396 152 384 q 123 372 114 347 l 114 347 q 118 347 123 337 q 127 327 127 316 l 127 316 q 127 298 111 288 q 95 277 71 277 l 71 277 q 43 277 26 292 q 9 307 9 335 l 9 335 q 9 369 36 397 q 62 425 109 442 q 156 458 213 458 l 213 458 q 234 458 265 455 l 265 455 q 347 585 439 668 q 530 750 613 750 l 613 750 q 661 750 692 736 l 692 736 l 535 0 l 391 0 l 468 363 q 431 380 400 388 q 369 396 334 399 l 334 399 q 277 276 241 148 q 204 19 204 -58 l 204 -58 q 204 -96 218 -114 l 218 -114 m 477 407 l 535 679 q 492 656 446 594 q 399 531 355 442 l 355 442 q 427 428 477 407 l 477 407"},"Á":{"x_min":9,"x_max":770,"ha":668,"o":"m 574 811 l 665 1000 l 770 1000 l 649 811 l 574 811 m 218 -114 q 181 -114 153 -108 q 125 -102 105 -79 q 84 -56 84 -8 l 84 -8 q 84 59 125 172 q 165 285 231 399 l 231 399 q 181 396 152 384 q 123 372 114 347 l 114 347 q 118 347 123 337 q 127 327 127 316 l 127 316 q 127 298 111 288 q 95 277 71 277 l 71 277 q 43 277 26 292 q 9 307 9 335 l 9 335 q 9 369 36 397 q 62 425 109 442 q 156 458 213 458 l 213 458 q 234 458 265 455 l 265 455 q 347 585 439 668 q 530 750 613 750 l 613 750 q 661 750 692 736 l 692 736 l 535 0 l 391 0 l 468 363 q 431 380 400 388 q 369 396 334 399 l 334 399 q 277 276 241 148 q 204 19 204 -58 l 204 -58 q 204 -96 218 -114 l 218 -114 m 477 407 l 535 679 q 492 656 446 594 q 399 531 355 442 l 355 442 q 427 428 477 407 l 477 407"},"Ă":{"x_min":9,"x_max":825,"ha":668,"o":"m 614 815 q 540 815 501 851 q 461 886 461 954 l 461 954 l 551 954 q 551 914 572 893 q 592 871 629 871 l 629 871 q 671 871 703 895 q 734 919 739 954 l 739 954 l 825 954 q 819 915 790 883 q 760 851 714 833 q 667 815 614 815 l 614 815 m 218 -114 q 181 -114 153 -108 q 125 -102 105 -79 q 84 -56 84 -8 l 84 -8 q 84 59 125 172 q 165 285 231 399 l 231 399 q 181 396 152 384 q 123 372 114 347 l 114 347 q 118 347 123 337 q 127 327 127 316 l 127 316 q 127 298 111 288 q 95 277 71 277 l 71 277 q 43 277 26 292 q 9 307 9 335 l 9 335 q 9 369 36 397 q 62 425 109 442 q 156 458 213 458 l 213 458 q 234 458 265 455 l 265 455 q 347 585 439 668 q 530 750 613 750 l 613 750 q 661 750 692 736 l 692 736 l 535 0 l 391 0 l 468 363 q 431 380 400 388 q 369 396 334 399 l 334 399 q 277 276 241 148 q 204 19 204 -58 l 204 -58 q 204 -96 218 -114 l 218 -114 m 477 407 l 535 679 q 492 656 446 594 q 399 531 355 442 l 355 442 q 427 428 477 407 l 477 407"},"Ắ":{"x_min":9,"x_max":799,"ha":668,"o":"m 612 866 l 674 1000 l 752 1000 l 666 866 l 612 866 m 623 783 q 560 783 528 813 q 495 842 495 898 l 495 898 l 569 898 q 569 865 587 847 q 604 829 635 829 l 635 829 q 670 829 697 849 q 723 869 728 898 l 728 898 l 799 898 q 795 866 770 840 q 745 813 706 798 q 667 783 623 783 l 623 783 m 218 -114 q 181 -114 153 -108 q 125 -102 105 -79 q 84 -56 84 -8 l 84 -8 q 84 59 125 172 q 165 285 231 399 l 231 399 q 181 396 152 384 q 123 372 114 347 l 114 347 q 118 347 123 337 q 127 327 127 316 l 127 316 q 127 298 111 288 q 95 277 71 277 l 71 277 q 43 277 26 292 q 9 307 9 335 l 9 335 q 9 369 36 397 q 62 425 109 442 q 156 458 213 458 l 213 458 q 234 458 265 455 l 265 455 q 347 585 439 668 q 530 750 613 750 l 613 750 q 661 750 692 736 l 692 736 l 535 0 l 391 0 l 468 363 q 431 380 400 388 q 369 396 334 399 l 334 399 q 277 276 241 148 q 204 19 204 -58 l 204 -58 q 204 -96 218 -114 l 218 -114 m 477 407 l 535 679 q 492 656 446 594 q 399 531 355 442 l 355 442 q 427 428 477 407 l 477 407"},"Ặ":{"x_min":9,"x_max":825,"ha":668,"o":"m 614 815 q 540 815 501 851 q 461 886 461 954 l 461 954 l 551 954 q 551 914 572 893 q 592 871 629 871 l 629 871 q 671 871 703 895 q 734 919 739 954 l 739 954 l 825 954 q 819 915 790 883 q 760 851 714 833 q 667 815 614 815 l 614 815 m 218 -114 q 181 -114 153 -108 q 125 -102 105 -79 q 84 -56 84 -8 l 84 -8 q 84 59 125 172 q 165 285 231 399 l 231 399 q 181 396 152 384 q 123 372 114 347 l 114 347 q 118 347 123 337 q 127 327 127 316 l 127 316 q 127 298 111 288 q 95 277 71 277 l 71 277 q 43 277 26 292 q 9 307 9 335 l 9 335 q 9 369 36 397 q 62 425 109 442 q 156 458 213 458 l 213 458 q 234 458 265 455 l 265 455 q 347 585 439 668 q 530 750 613 750 l 613 750 q 661 750 692 736 l 692 736 l 535 0 l 391 0 l 468 363 q 431 380 400 388 q 369 396 334 399 l 334 399 q 277 276 241 148 q 204 19 204 -58 l 204 -58 q 204 -96 218 -114 l 218 -114 m 477 407 l 535 679 q 492 656 446 594 q 399 531 355 442 l 355 442 q 427 428 477 407 l 477 407 m 373 -231 q 340 -231 317 -208 q 293 -185 293 -152 l 293 -152 q 293 -119 317 -95 q 340 -72 373 -72 l 373 -72 q 406 -72 430 -95 q 453 -119 453 -152 l 453 -152 q 453 -185 430 -208 q 406 -231 373 -231 l 373 -231"},"Ằ":{"x_min":9,"x_max":799,"ha":668,"o":"m 622 865 l 577 1000 l 658 1000 l 677 865 l 622 865 m 623 783 q 560 783 528 813 q 495 842 495 898 l 495 898 l 569 898 q 569 865 587 847 q 604 829 635 829 l 635 829 q 670 829 697 849 q 723 869 728 898 l 728 898 l 799 898 q 795 866 770 840 q 745 813 706 798 q 667 783 623 783 l 623 783 m 218 -114 q 181 -114 153 -108 q 125 -102 105 -79 q 84 -56 84 -8 l 84 -8 q 84 59 125 172 q 165 285 231 399 l 231 399 q 181 396 152 384 q 123 372 114 347 l 114 347 q 118 347 123 337 q 127 327 127 316 l 127 316 q 127 298 111 288 q 95 277 71 277 l 71 277 q 43 277 26 292 q 9 307 9 335 l 9 335 q 9 369 36 397 q 62 425 109 442 q 156 458 213 458 l 213 458 q 234 458 265 455 l 265 455 q 347 585 439 668 q 530 750 613 750 l 613 750 q 661 750 692 736 l 692 736 l 535 0 l 391 0 l 468 363 q 431 380 400 388 q 369 396 334 399 l 334 399 q 277 276 241 148 q 204 19 204 -58 l 204 -58 q 204 -96 218 -114 l 218 -114 m 477 407 l 535 679 q 492 656 446 594 q 399 531 355 442 l 355 442 q 427 428 477 407 l 477 407"},"Ẳ":{"x_min":9,"x_max":799,"ha":668,"o":"m 644 854 l 610 856 l 610 917 q 632 913 641 913 l 641 913 q 674 913 674 940 l 674 940 q 674 965 641 965 l 641 965 q 618 965 599 954 l 599 954 l 581 982 q 593 990 612 995 q 630 1000 648 1000 l 648 1000 q 681 1000 702 985 q 722 969 722 944 l 722 944 q 722 919 701 902 q 680 885 646 883 l 646 883 l 644 854 m 623 783 q 560 783 528 813 q 495 842 495 898 l 495 898 l 555 898 q 555 866 579 848 q 602 829 635 829 l 635 829 q 671 829 705 850 q 738 870 742 898 l 742 898 l 799 898 q 795 866 770 840 q 745 813 706 798 q 667 783 623 783 l 623 783 m 218 -114 q 181 -114 153 -108 q 125 -102 105 -79 q 84 -56 84 -8 l 84 -8 q 84 59 125 172 q 165 285 231 399 l 231 399 q 181 396 152 384 q 123 372 114 347 l 114 347 q 118 347 123 337 q 127 327 127 316 l 127 316 q 127 298 111 288 q 95 277 71 277 l 71 277 q 43 277 26 292 q 9 307 9 335 l 9 335 q 9 369 36 397 q 62 425 109 442 q 156 458 213 458 l 213 458 q 234 458 265 455 l 265 455 q 347 585 439 668 q 530 750 613 750 l 613 750 q 661 750 692 736 l 692 736 l 535 0 l 391 0 l 468 363 q 431 380 400 388 q 369 396 334 399 l 334 399 q 277 276 241 148 q 204 19 204 -58 l 204 -58 q 204 -96 218 -114 l 218 -114 m 477 407 l 535 679 q 492 656 446 594 q 399 531 355 442 l 355 442 q 427 428 477 407 l 477 407"},"Ẵ":{"x_min":9,"x_max":799,"ha":668,"o":"m 685 920 q 659 920 621 934 l 621 934 q 588 947 566 947 l 566 947 q 540 947 520 929 l 520 929 l 516 930 q 532 964 563 982 q 593 1000 633 1000 l 633 1000 q 651 1000 665 997 q 679 993 698 987 l 698 987 q 729 976 750 976 l 750 976 q 779 976 794 992 l 794 992 l 798 991 q 795 975 778 958 q 761 941 736 931 q 711 920 685 920 l 685 920 m 623 783 q 560 783 528 813 q 495 842 495 898 l 495 898 l 569 898 q 569 865 587 847 q 604 829 635 829 l 635 829 q 670 829 697 849 q 723 869 728 898 l 728 898 l 799 898 q 795 866 770 840 q 745 813 706 798 q 667 783 623 783 l 623 783 m 218 -114 q 181 -114 153 -108 q 125 -102 105 -79 q 84 -56 84 -8 l 84 -8 q 84 59 125 172 q 165 285 231 399 l 231 399 q 181 396 152 384 q 123 372 114 347 l 114 347 q 118 347 123 337 q 127 327 127 316 l 127 316 q 127 298 111 288 q 95 277 71 277 l 71 277 q 43 277 26 292 q 9 307 9 335 l 9 335 q 9 369 36 397 q 62 425 109 442 q 156 458 213 458 l 213 458 q 234 458 265 455 l 265 455 q 347 585 439 668 q 530 750 613 750 l 613 750 q 661 750 692 736 l 692 736 l 535 0 l 391 0 l 468 363 q 431 380 400 388 q 369 396 334 399 l 334 399 q 277 276 241 148 q 204 19 204 -58 l 204 -58 q 204 -96 218 -114 l 218 -114 m 477 407 l 535 679 q 492 656 446 594 q 399 531 355 442 l 355 442 q 427 428 477 407 l 477 407"},"Ǎ":{"x_min":9,"x_max":856,"ha":668,"o":"m 623 811 l 563 1000 l 595 1000 l 655 920 l 812 1000 l 856 1000 l 644 811 l 623 811 m 218 -114 q 181 -114 153 -108 q 125 -102 105 -79 q 84 -56 84 -8 l 84 -8 q 84 59 125 172 q 165 285 231 399 l 231 399 q 181 396 152 384 q 123 372 114 347 l 114 347 q 118 347 123 337 q 127 327 127 316 l 127 316 q 127 298 111 288 q 95 277 71 277 l 71 277 q 43 277 26 292 q 9 307 9 335 l 9 335 q 9 369 36 397 q 62 425 109 442 q 156 458 213 458 l 213 458 q 234 458 265 455 l 265 455 q 347 585 439 668 q 530 750 613 750 l 613 750 q 661 750 692 736 l 692 736 l 535 0 l 391 0 l 468 363 q 431 380 400 388 q 369 396 334 399 l 334 399 q 277 276 241 148 q 204 19 204 -58 l 204 -58 q 204 -96 218 -114 l 218 -114 m 477 407 l 535 679 q 492 656 446 594 q 399 531 355 442 l 355 442 q 427 428 477 407 l 477 407"},"Â":{"x_min":9,"x_max":764,"ha":668,"o":"m 471 811 l 683 1000 l 704 1000 l 764 811 l 731 811 l 671 891 l 515 811 l 471 811 m 218 -114 q 181 -114 153 -108 q 125 -102 105 -79 q 84 -56 84 -8 l 84 -8 q 84 59 125 172 q 165 285 231 399 l 231 399 q 181 396 152 384 q 123 372 114 347 l 114 347 q 118 347 123 337 q 127 327 127 316 l 127 316 q 127 298 111 288 q 95 277 71 277 l 71 277 q 43 277 26 292 q 9 307 9 335 l 9 335 q 9 369 36 397 q 62 425 109 442 q 156 458 213 458 l 213 458 q 234 458 265 455 l 265 455 q 347 585 439 668 q 530 750 613 750 l 613 750 q 661 750 692 736 l 692 736 l 535 0 l 391 0 l 468 363 q 431 380 400 388 q 369 396 334 399 l 334 399 q 277 276 241 148 q 204 19 204 -58 l 204 -58 q 204 -96 218 -114 l 218 -114 m 477 407 l 535 679 q 492 656 446 594 q 399 531 355 442 l 355 442 q 427 428 477 407 l 477 407"},"Ấ":{"x_min":9,"x_max":860,"ha":668,"o":"m 729 866 l 791 1000 l 860 1000 l 773 866 l 729 866 m 489 811 l 667 950 l 685 950 l 735 811 l 690 811 l 658 883 l 548 811 l 489 811 m 218 -114 q 181 -114 153 -108 q 125 -102 105 -79 q 84 -56 84 -8 l 84 -8 q 84 59 125 172 q 165 285 231 399 l 231 399 q 181 396 152 384 q 123 372 114 347 l 114 347 q 118 347 123 337 q 127 327 127 316 l 127 316 q 127 298 111 288 q 95 277 71 277 l 71 277 q 43 277 26 292 q 9 307 9 335 l 9 335 q 9 369 36 397 q 62 425 109 442 q 156 458 213 458 l 213 458 q 234 458 265 455 l 265 455 q 347 585 439 668 q 530 750 613 750 l 613 750 q 661 750 692 736 l 692 736 l 535 0 l 391 0 l 468 363 q 431 380 400 388 q 369 396 334 399 l 334 399 q 277 276 241 148 q 204 19 204 -58 l 204 -58 q 204 -96 218 -114 l 218 -114 m 477 407 l 535 679 q 492 656 446 594 q 399 531 355 442 l 355 442 q 427 428 477 407 l 477 407"},"Ậ":{"x_min":9,"x_max":764,"ha":668,"o":"m 471 811 l 683 1000 l 704 1000 l 764 811 l 731 811 l 671 891 l 515 811 l 471 811 m 218 -114 q 181 -114 153 -108 q 125 -102 105 -79 q 84 -56 84 -8 l 84 -8 q 84 59 125 172 q 165 285 231 399 l 231 399 q 181 396 152 384 q 123 372 114 347 l 114 347 q 118 347 123 337 q 127 327 127 316 l 127 316 q 127 298 111 288 q 95 277 71 277 l 71 277 q 43 277 26 292 q 9 307 9 335 l 9 335 q 9 369 36 397 q 62 425 109 442 q 156 458 213 458 l 213 458 q 234 458 265 455 l 265 455 q 347 585 439 668 q 530 750 613 750 l 613 750 q 661 750 692 736 l 692 736 l 535 0 l 391 0 l 468 363 q 431 380 400 388 q 369 396 334 399 l 334 399 q 277 276 241 148 q 204 19 204 -58 l 204 -58 q 204 -96 218 -114 l 218 -114 m 477 407 l 535 679 q 492 656 446 594 q 399 531 355 442 l 355 442 q 427 428 477 407 l 477 407 m 373 -231 q 340 -231 317 -208 q 293 -185 293 -152 l 293 -152 q 293 -119 317 -95 q 340 -72 373 -72 l 373 -72 q 406 -72 430 -95 q 453 -119 453 -152 l 453 -152 q 453 -185 430 -208 q 406 -231 373 -231 l 373 -231"},"Ầ":{"x_min":9,"x_max":813,"ha":668,"o":"m 773 865 l 728 1000 l 794 1000 l 813 865 l 773 865 m 489 811 l 667 950 l 685 950 l 735 811 l 690 811 l 658 883 l 548 811 l 489 811 m 218 -114 q 181 -114 153 -108 q 125 -102 105 -79 q 84 -56 84 -8 l 84 -8 q 84 59 125 172 q 165 285 231 399 l 231 399 q 181 396 152 384 q 123 372 114 347 l 114 347 q 118 347 123 337 q 127 327 127 316 l 127 316 q 127 298 111 288 q 95 277 71 277 l 71 277 q 43 277 26 292 q 9 307 9 335 l 9 335 q 9 369 36 397 q 62 425 109 442 q 156 458 213 458 l 213 458 q 234 458 265 455 l 265 455 q 347 585 439 668 q 530 750 613 750 l 613 750 q 661 750 692 736 l 692 736 l 535 0 l 391 0 l 468 363 q 431 380 400 388 q 369 396 334 399 l 334 399 q 277 276 241 148 q 204 19 204 -58 l 204 -58 q 204 -96 218 -114 l 218 -114 m 477 407 l 535 679 q 492 656 446 594 q 399 531 355 442 l 355 442 q 427 428 477 407 l 477 407"},"Ẩ":{"x_min":9,"x_max":859,"ha":668,"o":"m 780 854 l 747 856 l 747 917 q 767 913 778 913 l 778 913 q 811 913 811 940 l 811 940 q 811 965 778 965 l 778 965 q 755 965 736 954 l 736 954 l 718 982 q 729 990 748 995 q 767 1000 785 1000 l 785 1000 q 818 1000 839 985 q 859 969 859 944 l 859 944 q 859 919 838 902 q 817 885 783 883 l 783 883 l 780 854 m 489 811 l 667 950 l 685 950 l 735 811 l 690 811 l 658 883 l 548 811 l 489 811 m 218 -114 q 181 -114 153 -108 q 125 -102 105 -79 q 84 -56 84 -8 l 84 -8 q 84 59 125 172 q 165 285 231 399 l 231 399 q 181 396 152 384 q 123 372 114 347 l 114 347 q 118 347 123 337 q 127 327 127 316 l 127 316 q 127 298 111 288 q 95 277 71 277 l 71 277 q 43 277 26 292 q 9 307 9 335 l 9 335 q 9 369 36 397 q 62 425 109 442 q 156 458 213 458 l 213 458 q 234 458 265 455 l 265 455 q 347 585 439 668 q 530 750 613 750 l 613 750 q 661 750 692 736 l 692 736 l 535 0 l 391 0 l 468 363 q 431 380 400 388 q 369 396 334 399 l 334 399 q 277 276 241 148 q 204 19 204 -58 l 204 -58 q 204 -96 218 -114 l 218 -114 m 477 407 l 535 679 q 492 656 446 594 q 399 531 355 442 l 355 442 q 427 428 477 407 l 477 407"},"Ẫ":{"x_min":9,"x_max":818,"ha":668,"o":"m 818 991 q 813 965 778 943 q 743 920 704 920 l 704 920 l 696 920 l 735 811 l 690 811 l 658 883 l 548 811 l 489 811 l 645 933 q 630 938 615 943 q 599 947 585 947 l 585 947 q 560 947 540 929 l 540 929 l 535 930 q 552 964 583 982 q 613 1000 653 1000 l 653 1000 q 671 1000 685 997 q 699 993 718 987 l 718 987 q 749 976 770 976 l 770 976 q 798 976 813 992 l 813 992 l 818 991 m 265 455 q 347 585 439 668 q 530 750 613 750 l 613 750 q 661 750 692 736 l 692 736 l 535 0 l 391 0 l 468 363 q 431 380 400 388 q 369 396 334 399 l 334 399 q 277 276 241 148 q 204 19 204 -58 l 204 -58 q 204 -96 218 -114 l 218 -114 q 181 -114 153 -108 q 125 -102 105 -79 q 84 -56 84 -8 l 84 -8 q 84 59 125 172 q 165 285 231 399 l 231 399 q 181 396 152 384 q 123 372 114 347 l 114 347 q 118 347 123 337 q 127 327 127 316 l 127 316 q 127 298 111 288 q 95 277 71 277 l 71 277 q 43 277 26 292 q 9 307 9 335 l 9 335 q 9 369 36 397 q 62 425 109 442 q 156 458 213 458 l 213 458 q 234 458 265 455 l 265 455 m 477 407 l 535 679 q 492 656 446 594 q 399 531 355 442 l 355 442 q 427 428 477 407 l 477 407"},"Ȁ":{"x_min":9,"x_max":708,"ha":668,"o":"m 492 811 l 351 1000 l 456 1000 l 547 811 l 492 811 m 654 811 l 513 1000 l 618 1000 l 708 811 l 654 811 m 218 -114 q 181 -114 153 -108 q 125 -102 105 -79 q 84 -56 84 -8 l 84 -8 q 84 59 125 172 q 165 285 231 399 l 231 399 q 181 396 152 384 q 123 372 114 347 l 114 347 q 118 347 123 337 q 127 327 127 316 l 127 316 q 127 298 111 288 q 95 277 71 277 l 71 277 q 43 277 26 292 q 9 307 9 335 l 9 335 q 9 369 36 397 q 62 425 109 442 q 156 458 213 458 l 213 458 q 234 458 265 455 l 265 455 q 347 585 439 668 q 530 750 613 750 l 613 750 q 661 750 692 736 l 692 736 l 535 0 l 391 0 l 468 363 q 431 380 400 388 q 369 396 334 399 l 334 399 q 277 276 241 148 q 204 19 204 -58 l 204 -58 q 204 -96 218 -114 l 218 -114 m 477 407 l 535 679 q 492 656 446 594 q 399 531 355 442 l 355 442 q 427 428 477 407 l 477 407"},"Ä":{"x_min":9,"x_max":756,"ha":668,"o":"m 516 823 q 489 823 472 841 q 455 858 455 884 l 455 884 q 455 909 473 927 q 490 945 516 945 l 516 945 q 540 945 558 927 q 576 909 576 884 l 576 884 q 576 858 558 841 q 540 823 516 823 l 516 823 m 695 823 q 669 823 652 841 q 634 858 634 884 l 634 884 q 634 909 652 927 q 670 945 695 945 l 695 945 q 720 945 738 927 q 756 909 756 884 l 756 884 q 756 858 739 841 q 721 823 695 823 l 695 823 m 218 -114 q 181 -114 153 -108 q 125 -102 105 -79 q 84 -56 84 -8 l 84 -8 q 84 59 125 172 q 165 285 231 399 l 231 399 q 181 396 152 384 q 123 372 114 347 l 114 347 q 118 347 123 337 q 127 327 127 316 l 127 316 q 127 298 111 288 q 95 277 71 277 l 71 277 q 43 277 26 292 q 9 307 9 335 l 9 335 q 9 369 36 397 q 62 425 109 442 q 156 458 213 458 l 213 458 q 234 458 265 455 l 265 455 q 347 585 439 668 q 530 750 613 750 l 613 750 q 661 750 692 736 l 692 736 l 535 0 l 391 0 l 468 363 q 431 380 400 388 q 369 396 334 399 l 334 399 q 277 276 241 148 q 204 19 204 -58 l 204 -58 q 204 -96 218 -114 l 218 -114 m 477 407 l 535 679 q 492 656 446 594 q 399 531 355 442 l 355 442 q 427 428 477 407 l 477 407"},"Ạ":{"x_min":9,"x_max":692,"ha":668,"o":"m 218 -114 q 181 -114 153 -108 q 125 -102 105 -79 q 84 -56 84 -8 l 84 -8 q 84 59 125 172 q 165 285 231 399 l 231 399 q 181 396 152 384 q 123 372 114 347 l 114 347 q 118 347 123 337 q 127 327 127 316 l 127 316 q 127 298 111 288 q 95 277 71 277 l 71 277 q 43 277 26 292 q 9 307 9 335 l 9 335 q 9 369 36 397 q 62 425 109 442 q 156 458 213 458 l 213 458 q 234 458 265 455 l 265 455 q 347 585 439 668 q 530 750 613 750 l 613 750 q 661 750 692 736 l 692 736 l 535 0 l 391 0 l 468 363 q 431 380 400 388 q 369 396 334 399 l 334 399 q 277 276 241 148 q 204 19 204 -58 l 204 -58 q 204 -96 218 -114 l 218 -114 m 477 407 l 535 679 q 492 656 446 594 q 399 531 355 442 l 355 442 q 427 428 477 407 l 477 407 m 373 -231 q 340 -231 317 -208 q 293 -185 293 -152 l 293 -152 q 293 -119 317 -95 q 340 -72 373 -72 l 373 -72 q 406 -72 430 -95 q 453 -119 453 -152 l 453 -152 q 453 -185 430 -208 q 406 -231 373 -231 l 373 -231"},"À":{"x_min":9,"x_max":692,"ha":668,"o":"m 545 811 l 486 1000 l 591 1000 l 620 811 l 545 811 m 218 -114 q 181 -114 153 -108 q 125 -102 105 -79 q 84 -56 84 -8 l 84 -8 q 84 59 125 172 q 165 285 231 399 l 231 399 q 181 396 152 384 q 123 372 114 347 l 114 347 q 118 347 123 337 q 127 327 127 316 l 127 316 q 127 298 111 288 q 95 277 71 277 l 71 277 q 43 277 26 292 q 9 307 9 335 l 9 335 q 9 369 36 397 q 62 425 109 442 q 156 458 213 458 l 213 458 q 234 458 265 455 l 265 455 q 347 585 439 668 q 530 750 613 750 l 613 750 q 661 750 692 736 l 692 736 l 535 0 l 391 0 l 468 363 q 431 380 400 388 q 369 396 334 399 l 334 399 q 277 276 241 148 q 204 19 204 -58 l 204 -58 q 204 -96 218 -114 l 218 -114 m 477 407 l 535 679 q 492 656 446 594 q 399 531 355 442 l 355 442 q 427 428 477 407 l 477 407"},"Ả":{"x_min":9,"x_max":742,"ha":668,"o":"m 629 792 l 583 794 l 583 882 q 608 877 627 877 l 627 877 q 649 877 662 887 q 674 896 674 913 l 674 913 q 674 949 627 949 l 627 949 q 592 949 567 933 l 567 933 l 541 975 q 558 986 586 993 q 613 1000 639 1000 l 639 1000 q 684 1000 713 978 q 742 955 742 919 l 742 919 q 742 885 713 861 q 684 837 637 833 l 637 833 l 629 792 m 218 -114 q 181 -114 153 -108 q 125 -102 105 -79 q 84 -56 84 -8 l 84 -8 q 84 59 125 172 q 165 285 231 399 l 231 399 q 181 396 152 384 q 123 372 114 347 l 114 347 q 118 347 123 337 q 127 327 127 316 l 127 316 q 127 298 111 288 q 95 277 71 277 l 71 277 q 43 277 26 292 q 9 307 9 335 l 9 335 q 9 369 36 397 q 62 425 109 442 q 156 458 213 458 l 213 458 q 234 458 265 455 l 265 455 q 347 585 439 668 q 530 750 613 750 l 613 750 q 661 750 692 736 l 692 736 l 535 0 l 391 0 l 468 363 q 431 380 400 388 q 369 396 334 399 l 334 399 q 277 276 241 148 q 204 19 204 -58 l 204 -58 q 204 -96 218 -114 l 218 -114 m 477 407 l 535 679 q 492 656 446 594 q 399 531 355 442 l 355 442 q 427 428 477 407 l 477 407"},"Ȃ":{"x_min":9,"x_max":809,"ha":668,"o":"m 446 822 q 451 860 481 892 q 511 924 558 942 q 604 960 657 960 l 657 960 q 731 960 770 925 q 809 889 809 822 l 809 822 l 720 822 q 720 862 700 884 q 679 905 641 905 l 641 905 q 600 905 569 881 q 537 857 532 822 l 532 822 l 446 822 m 218 -114 q 181 -114 153 -108 q 125 -102 105 -79 q 84 -56 84 -8 l 84 -8 q 84 59 125 172 q 165 285 231 399 l 231 399 q 181 396 152 384 q 123 372 114 347 l 114 347 q 118 347 123 337 q 127 327 127 316 l 127 316 q 127 298 111 288 q 95 277 71 277 l 71 277 q 43 277 26 292 q 9 307 9 335 l 9 335 q 9 369 36 397 q 62 425 109 442 q 156 458 213 458 l 213 458 q 234 458 265 455 l 265 455 q 347 585 439 668 q 530 750 613 750 l 613 750 q 661 750 692 736 l 692 736 l 535 0 l 391 0 l 468 363 q 431 380 400 388 q 369 396 334 399 l 334 399 q 277 276 241 148 q 204 19 204 -58 l 204 -58 q 204 -96 218 -114 l 218 -114 m 477 407 l 535 679 q 492 656 446 594 q 399 531 355 442 l 355 442 q 427 428 477 407 l 477 407"},"Ā":{"x_min":9,"x_max":782,"ha":668,"o":"m 446 849 l 462 923 l 782 923 l 767 849 l 446 849 m 218 -114 q 181 -114 153 -108 q 125 -102 105 -79 q 84 -56 84 -8 l 84 -8 q 84 59 125 172 q 165 285 231 399 l 231 399 q 181 396 152 384 q 123 372 114 347 l 114 347 q 118 347 123 337 q 127 327 127 316 l 127 316 q 127 298 111 288 q 95 277 71 277 l 71 277 q 43 277 26 292 q 9 307 9 335 l 9 335 q 9 369 36 397 q 62 425 109 442 q 156 458 213 458 l 213 458 q 234 458 265 455 l 265 455 q 347 585 439 668 q 530 750 613 750 l 613 750 q 661 750 692 736 l 692 736 l 535 0 l 391 0 l 468 363 q 431 380 400 388 q 369 396 334 399 l 334 399 q 277 276 241 148 q 204 19 204 -58 l 204 -58 q 204 -96 218 -114 l 218 -114 m 477 407 l 535 679 q 492 656 446 594 q 399 531 355 442 l 355 442 q 427 428 477 407 l 477 407"},"Ą":{"x_min":9,"x_max":692,"ha":668,"o":"m 440 -193 q 402 -193 382 -169 q 361 -145 361 -115 l 361 -115 q 361 -88 379 -58 q 397 -28 432 0 l 432 0 l 391 0 l 468 363 q 431 380 400 388 q 369 396 334 399 l 334 399 q 277 276 241 148 q 204 19 204 -58 l 204 -58 q 204 -96 218 -114 l 218 -114 q 181 -114 153 -108 q 125 -102 105 -79 q 84 -56 84 -8 l 84 -8 q 84 59 125 172 q 165 285 231 399 l 231 399 q 181 396 152 384 q 123 372 114 347 l 114 347 q 118 347 123 337 q 127 327 127 316 l 127 316 q 127 298 111 288 q 95 277 71 277 l 71 277 q 43 277 26 292 q 9 307 9 335 l 9 335 q 9 369 36 397 q 62 425 109 442 q 156 458 213 458 l 213 458 q 234 458 265 455 l 265 455 q 347 585 439 668 q 530 750 613 750 l 613 750 q 661 750 692 736 l 692 736 l 535 0 l 498 0 q 476 -12 460 -35 q 444 -59 444 -84 l 444 -84 q 444 -104 454 -119 q 464 -134 483 -134 l 483 -134 q 496 -134 509 -127 q 521 -121 533 -112 q 545 -104 551 -100 l 551 -100 q 549 -124 549 -131 l 549 -131 q 520 -160 497 -176 q 473 -193 440 -193 l 440 -193 m 477 407 l 535 679 q 492 656 446 594 q 399 531 355 442 l 355 442 q 427 428 477 407 l 477 407"},"Å":{"x_min":9,"x_max":692,"ha":668,"o":"m 599 802 q 567 802 548 822 q 529 842 529 872 l 529 872 q 529 904 551 934 q 573 963 614 963 l 614 963 q 649 963 668 942 q 686 920 686 886 l 686 886 q 686 850 665 826 q 643 802 599 802 l 599 802 m 603 837 q 626 837 638 849 q 649 861 649 883 l 649 883 q 649 904 643 917 q 637 930 616 930 l 616 930 q 592 930 581 913 q 569 896 569 874 l 569 874 q 569 837 603 837 l 603 837 m 218 -114 q 181 -114 153 -108 q 125 -102 105 -79 q 84 -56 84 -8 l 84 -8 q 84 59 125 172 q 165 285 231 399 l 231 399 q 181 396 152 384 q 123 372 114 347 l 114 347 q 118 347 123 337 q 127 327 127 316 l 127 316 q 127 298 111 288 q 95 277 71 277 l 71 277 q 43 277 26 292 q 9 307 9 335 l 9 335 q 9 369 36 397 q 62 425 109 442 q 156 458 213 458 l 213 458 q 234 458 265 455 l 265 455 q 347 585 439 668 q 530 750 613 750 l 613 750 q 661 750 692 736 l 692 736 l 535 0 l 391 0 l 468 363 q 431 380 400 388 q 369 396 334 399 l 334 399 q 277 276 241 148 q 204 19 204 -58 l 204 -58 q 204 -96 218 -114 l 218 -114 m 477 407 l 535 679 q 492 656 446 594 q 399 531 355 442 l 355 442 q 427 428 477 407 l 477 407"},"Ǻ":{"x_min":9,"x_max":791,"ha":668,"o":"m 708 819 q 708 793 698 774 q 687 754 667 744 l 667 744 q 683 740 692 736 l 692 736 l 535 0 l 391 0 l 468 363 q 431 380 400 388 q 369 396 334 399 l 334 399 q 277 276 241 148 q 204 19 204 -58 l 204 -58 q 204 -96 218 -114 l 218 -114 q 181 -114 153 -108 q 125 -102 105 -79 q 84 -56 84 -8 l 84 -8 q 84 59 125 172 q 165 285 231 399 l 231 399 q 181 396 152 384 q 123 372 114 347 l 114 347 q 118 347 123 337 q 127 327 127 316 l 127 316 q 127 298 111 288 q 95 277 71 277 l 71 277 q 43 277 26 292 q 9 307 9 335 l 9 335 q 9 369 36 397 q 62 425 109 442 q 156 458 213 458 l 213 458 q 234 458 265 455 l 265 455 q 339 572 422 652 q 504 731 581 747 l 581 747 q 552 766 552 805 l 552 805 q 552 843 577 870 q 602 896 637 896 l 637 896 l 686 1000 l 791 1000 l 688 876 q 708 854 708 819 l 708 819 m 636 848 q 622 848 613 838 q 604 827 604 809 l 604 809 q 604 798 611 791 q 617 784 629 784 l 629 784 q 660 784 660 820 l 660 820 q 660 833 654 841 q 647 848 636 848 l 636 848 m 477 407 l 535 679 q 492 656 446 594 q 399 531 355 442 l 355 442 q 427 428 477 407 l 477 407"},"Ã":{"x_min":9,"x_max":810,"ha":668,"o":"m 649 819 q 626 819 605 824 q 584 829 557 839 l 557 839 q 534 847 517 852 q 499 856 481 856 l 481 856 q 444 856 415 830 l 415 830 l 409 832 q 433 880 476 905 q 519 930 576 930 l 576 930 q 602 930 623 926 q 643 921 668 912 l 668 912 q 711 897 741 897 l 741 897 q 781 897 804 920 l 804 920 l 810 919 q 805 896 781 873 q 756 849 721 834 q 686 819 649 819 l 649 819 m 218 -114 q 181 -114 153 -108 q 125 -102 105 -79 q 84 -56 84 -8 l 84 -8 q 84 59 125 172 q 165 285 231 399 l 231 399 q 181 396 152 384 q 123 372 114 347 l 114 347 q 118 347 123 337 q 127 327 127 316 l 127 316 q 127 298 111 288 q 95 277 71 277 l 71 277 q 43 277 26 292 q 9 307 9 335 l 9 335 q 9 369 36 397 q 62 425 109 442 q 156 458 213 458 l 213 458 q 234 458 265 455 l 265 455 q 347 585 439 668 q 530 750 613 750 l 613 750 q 661 750 692 736 l 692 736 l 535 0 l 391 0 l 468 363 q 431 380 400 388 q 369 396 334 399 l 334 399 q 277 276 241 148 q 204 19 204 -58 l 204 -58 q 204 -96 218 -114 l 218 -114 m 477 407 l 535 679 q 492 656 446 594 q 399 531 355 442 l 355 442 q 427 428 477 407 l 477 407"},"Æ":{"x_min":9,"x_max":909,"ha":764,"o":"m 218 -113 q 173 -111 147 -104 q 120 -98 102 -74 q 84 -51 84 -1 l 84 -1 q 84 63 125 175 q 165 286 231 399 l 231 399 q 182 396 154 385 q 125 373 114 347 l 114 347 q 118 347 123 337 q 127 327 127 316 l 127 316 q 127 299 112 288 q 97 277 66 277 l 66 277 q 42 277 26 293 q 9 308 9 340 l 9 340 q 9 370 36 397 q 63 423 108 439 q 153 455 204 455 l 204 455 q 230 455 263 452 l 263 452 q 345 584 437 668 q 529 751 612 751 l 612 751 q 642 751 691 742 l 691 742 q 715 738 742 735 q 768 731 792 731 l 792 731 q 853 731 909 750 l 909 750 q 907 744 898 711 q 888 678 864 659 q 840 640 802 640 l 802 640 q 773 640 750 647 q 727 653 707 661 q 686 669 678 672 l 678 672 l 624 419 l 779 419 l 759 345 l 608 345 l 557 106 l 781 106 l 760 0 l 391 0 l 468 363 q 398 394 333 399 l 333 399 q 277 276 241 149 q 204 21 204 -57 l 204 -57 q 204 -94 211 -102 q 218 -111 218 -113 l 218 -113 m 477 407 l 535 679 q 491 655 444 593 q 397 530 353 441 l 353 441 q 422 428 477 407 l 477 407"},"Ǽ":{"x_min":9,"x_max":909,"ha":764,"o":"m 635 811 l 726 1000 l 831 1000 l 689 811 l 635 811 m 218 -113 q 173 -111 147 -104 q 120 -98 102 -74 q 84 -51 84 -1 l 84 -1 q 84 63 125 175 q 165 286 231 399 l 231 399 q 182 396 154 385 q 125 373 114 347 l 114 347 q 118 347 123 337 q 127 327 127 316 l 127 316 q 127 299 112 288 q 97 277 66 277 l 66 277 q 42 277 26 293 q 9 308 9 340 l 9 340 q 9 370 36 397 q 63 423 108 439 q 153 455 204 455 l 204 455 q 230 455 263 452 l 263 452 q 345 584 437 668 q 529 751 612 751 l 612 751 q 642 751 691 742 l 691 742 q 715 738 742 735 q 768 731 792 731 l 792 731 q 853 731 909 750 l 909 750 q 907 744 898 711 q 888 678 864 659 q 840 640 802 640 l 802 640 q 773 640 750 647 q 727 653 707 661 q 686 669 678 672 l 678 672 l 624 419 l 779 419 l 759 345 l 608 345 l 557 106 l 781 106 l 760 0 l 391 0 l 468 363 q 398 394 333 399 l 333 399 q 277 276 241 149 q 204 21 204 -57 l 204 -57 q 204 -94 211 -102 q 218 -111 218 -113 l 218 -113 m 477 407 l 535 679 q 491 655 444 593 q 397 530 353 441 l 353 441 q 422 428 477 407 l 477 407"},"B":{"x_min":12,"x_max":606,"ha":641,"o":"m 387 -17 q 347 -17 318 0 q 288 16 288 57 l 288 57 q 288 83 301 115 l 301 115 q 319 95 335 87 q 350 79 368 79 l 368 79 q 418 79 443 135 q 467 191 467 259 l 467 259 q 467 386 372 386 l 372 386 q 345 386 326 383 l 326 383 l 244 0 l 100 0 l 236 636 l 384 656 l 337 434 l 343 434 q 381 434 414 459 q 447 483 467 521 q 487 558 487 596 l 487 596 q 487 642 455 673 q 422 704 355 704 l 355 704 q 294 704 236 677 q 178 649 142 594 q 105 539 105 461 l 105 461 q 105 424 112 410 q 119 395 119 393 l 119 393 q 66 393 39 415 q 12 436 12 485 l 12 485 q 12 553 63 614 q 114 675 198 713 q 282 750 375 750 l 375 750 q 445 750 493 728 q 541 706 565 670 q 588 634 588 591 l 588 591 q 588 545 562 502 q 536 459 488 432 l 488 432 q 548 421 577 377 q 606 332 606 271 l 606 271 q 606 214 585 147 q 563 80 514 32 q 464 -17 387 -17 l 387 -17"},"C":{"x_min":19,"x_max":535,"ha":497,"o":"m 238 -16 q 125 -16 72 41 q 19 98 19 230 l 19 230 q 19 335 55 456 q 90 577 169 664 q 247 750 368 750 l 368 750 q 443 750 489 717 q 535 684 535 616 l 535 616 q 535 573 518 549 q 501 524 465 524 l 465 524 q 429 524 408 550 l 408 550 q 426 559 440 586 q 454 613 454 642 l 454 642 q 454 669 440 686 q 425 703 393 703 l 393 703 q 340 703 292 631 q 244 558 215 448 q 185 338 185 236 l 185 236 q 185 160 211 120 q 237 80 305 80 l 305 80 q 364 80 414 106 q 464 132 500 180 l 500 180 l 523 170 q 498 107 449 65 q 400 23 344 4 q 288 -16 238 -16 l 238 -16"},"Ć":{"x_min":19,"x_max":535,"ha":497,"o":"m 337 811 l 428 1000 l 533 1000 l 412 811 l 337 811 m 238 -16 q 125 -16 72 41 q 19 98 19 230 l 19 230 q 19 335 55 456 q 90 577 169 664 q 247 750 368 750 l 368 750 q 443 750 489 717 q 535 684 535 616 l 535 616 q 535 573 518 549 q 501 524 465 524 l 465 524 q 429 524 408 550 l 408 550 q 426 559 440 586 q 454 613 454 642 l 454 642 q 454 669 440 686 q 425 703 393 703 l 393 703 q 340 703 292 631 q 244 558 215 448 q 185 338 185 236 l 185 236 q 185 160 211 120 q 237 80 305 80 l 305 80 q 364 80 414 106 q 464 132 500 180 l 500 180 l 523 170 q 498 107 449 65 q 400 23 344 4 q 288 -16 238 -16 l 238 -16"},"Č":{"x_min":19,"x_max":585,"ha":497,"o":"m 352 811 l 292 1000 l 324 1000 l 384 920 l 541 1000 l 585 1000 l 373 811 l 352 811 m 238 -16 q 125 -16 72 41 q 19 98 19 230 l 19 230 q 19 335 55 456 q 90 577 169 664 q 247 750 368 750 l 368 750 q 443 750 489 717 q 535 684 535 616 l 535 616 q 535 573 518 549 q 501 524 465 524 l 465 524 q 429 524 408 550 l 408 550 q 426 559 440 586 q 454 613 454 642 l 454 642 q 454 669 440 686 q 425 703 393 703 l 393 703 q 340 703 292 631 q 244 558 215 448 q 185 338 185 236 l 185 236 q 185 160 211 120 q 237 80 305 80 l 305 80 q 364 80 414 106 q 464 132 500 180 l 500 180 l 523 170 q 498 107 449 65 q 400 23 344 4 q 288 -16 238 -16 l 238 -16"},"Ç":{"x_min":19,"x_max":535,"ha":497,"o":"m 242 -218 q 208 -218 185 -211 q 162 -204 135 -190 l 135 -190 q 153 -158 175 -158 l 175 -158 q 190 -158 199 -162 q 207 -166 218 -173 l 218 -173 q 236 -185 249 -185 l 249 -185 q 261 -185 270 -172 q 279 -159 279 -143 l 279 -143 q 279 -127 270 -117 q 260 -107 240 -107 l 240 -107 q 222 -107 212 -110 q 201 -113 188 -119 l 188 -119 l 225 -16 q 118 -13 69 44 q 19 101 19 230 l 19 230 q 19 335 55 456 q 90 577 169 664 q 247 750 368 750 l 368 750 q 443 750 489 717 q 535 684 535 616 l 535 616 q 535 573 518 549 q 501 524 465 524 l 465 524 q 429 524 408 550 l 408 550 q 426 559 440 586 q 454 613 454 642 l 454 642 q 454 669 440 686 q 425 703 393 703 l 393 703 q 340 703 292 631 q 244 558 215 448 q 185 338 185 236 l 185 236 q 185 160 211 120 q 237 80 305 80 l 305 80 q 364 80 414 106 q 464 132 500 180 l 500 180 l 523 170 q 490 87 418 41 q 345 -5 268 -14 l 268 -14 l 247 -66 q 281 -58 300 -58 l 300 -58 q 362 -58 362 -108 l 362 -108 q 362 -159 326 -188 q 290 -218 242 -218 l 242 -218"},"Ĉ":{"x_min":19,"x_max":535,"ha":497,"o":"m 202 811 l 414 1000 l 435 1000 l 495 811 l 463 811 l 403 891 l 246 811 l 202 811 m 238 -16 q 125 -16 72 41 q 19 98 19 230 l 19 230 q 19 335 55 456 q 90 577 169 664 q 247 750 368 750 l 368 750 q 443 750 489 717 q 535 684 535 616 l 535 616 q 535 573 518 549 q 501 524 465 524 l 465 524 q 429 524 408 550 l 408 550 q 426 559 440 586 q 454 613 454 642 l 454 642 q 454 669 440 686 q 425 703 393 703 l 393 703 q 340 703 292 631 q 244 558 215 448 q 185 338 185 236 l 185 236 q 185 160 211 120 q 237 80 305 80 l 305 80 q 364 80 414 106 q 464 132 500 180 l 500 180 l 523 170 q 498 107 449 65 q 400 23 344 4 q 288 -16 238 -16 l 238 -16"},"Ċ":{"x_min":19,"x_max":535,"ha":497,"o":"m 445 822 q 412 822 389 845 q 366 867 366 900 l 366 900 q 366 934 389 957 q 412 980 445 980 l 445 980 q 478 980 502 957 q 525 934 525 900 l 525 900 q 525 867 502 845 q 478 822 445 822 l 445 822 m 238 -16 q 125 -16 72 41 q 19 98 19 230 l 19 230 q 19 335 55 456 q 90 577 169 664 q 247 750 368 750 l 368 750 q 443 750 489 717 q 535 684 535 616 l 535 616 q 535 573 518 549 q 501 524 465 524 l 465 524 q 429 524 408 550 l 408 550 q 426 559 440 586 q 454 613 454 642 l 454 642 q 454 669 440 686 q 425 703 393 703 l 393 703 q 340 703 292 631 q 244 558 215 448 q 185 338 185 236 l 185 236 q 185 160 211 120 q 237 80 305 80 l 305 80 q 364 80 414 106 q 464 132 500 180 l 500 180 l 523 170 q 498 107 449 65 q 400 23 344 4 q 288 -16 238 -16 l 238 -16"},"D":{"x_min":6,"x_max":645,"ha":663,"o":"m 368 -13 q 308 -13 246 40 l 246 40 l 238 0 l 94 0 l 230 636 l 378 656 l 258 95 q 286 75 315 75 l 315 75 q 372 75 416 141 q 459 207 483 309 q 507 411 507 515 l 507 515 q 507 613 469 659 q 430 704 361 704 l 361 704 q 286 704 227 675 q 167 645 133 590 q 99 535 99 461 l 99 461 q 99 424 106 410 q 113 395 113 393 l 113 393 q 61 393 34 415 q 6 437 6 486 l 6 486 q 6 554 57 615 q 108 676 194 713 q 279 750 378 750 l 378 750 q 515 750 580 669 q 645 588 645 462 l 645 462 q 645 348 607 238 q 568 127 504 57 q 440 -13 368 -13 l 368 -13"},"Ð":{"x_min":6,"x_max":645,"ha":663,"o":"m 368 -13 q 308 -13 246 40 l 246 40 l 238 0 l 94 0 l 168 345 l 129 345 l 149 419 l 184 419 l 230 636 l 378 656 l 327 419 l 406 419 l 386 345 l 311 345 l 258 95 q 286 75 315 75 l 315 75 q 371 75 415 141 q 459 207 483 308 q 507 409 507 508 l 507 508 q 507 576 496 618 q 485 659 455 682 q 425 704 369 704 l 369 704 q 288 704 227 675 q 166 646 133 591 q 99 536 99 461 l 99 461 q 99 424 106 410 q 113 395 113 393 l 113 393 q 59 393 33 416 q 6 438 6 490 l 6 490 q 6 554 59 615 q 111 675 193 713 q 275 750 357 750 l 357 750 q 645 750 645 480 l 645 480 q 645 353 607 239 q 568 125 504 56 q 440 -13 368 -13 l 368 -13"},"Ď":{"x_min":6,"x_max":645,"ha":663,"o":"m 359 811 l 299 1000 l 331 1000 l 391 920 l 548 1000 l 592 1000 l 380 811 l 359 811 m 368 -13 q 308 -13 246 40 l 246 40 l 238 0 l 94 0 l 230 636 l 378 656 l 258 95 q 286 75 315 75 l 315 75 q 372 75 416 141 q 459 207 483 309 q 507 411 507 515 l 507 515 q 507 613 469 659 q 430 704 361 704 l 361 704 q 286 704 227 675 q 167 645 133 590 q 99 535 99 461 l 99 461 q 99 424 106 410 q 113 395 113 393 l 113 393 q 61 393 34 415 q 6 437 6 486 l 6 486 q 6 554 57 615 q 108 676 194 713 q 279 750 378 750 l 378 750 q 515 750 580 669 q 645 588 645 462 l 645 462 q 645 348 607 238 q 568 127 504 57 q 440 -13 368 -13 l 368 -13"},"Đ":{"x_min":6,"x_max":645,"ha":663,"o":"m 368 -13 q 308 -13 246 40 l 246 40 l 238 0 l 94 0 l 168 345 l 129 345 l 149 419 l 184 419 l 230 636 l 378 656 l 327 419 l 406 419 l 386 345 l 311 345 l 258 95 q 286 75 315 75 l 315 75 q 371 75 415 141 q 459 207 483 308 q 507 409 507 508 l 507 508 q 507 576 496 618 q 485 659 455 682 q 425 704 369 704 l 369 704 q 288 704 227 675 q 166 646 133 591 q 99 536 99 461 l 99 461 q 99 424 106 410 q 113 395 113 393 l 113 393 q 59 393 33 416 q 6 438 6 490 l 6 490 q 6 554 59 615 q 111 675 193 713 q 275 750 357 750 l 357 750 q 645 750 645 480 l 645 480 q 645 353 607 239 q 568 125 504 56 q 440 -13 368 -13 l 368 -13"},"Ḍ":{"x_min":6,"x_max":645,"ha":663,"o":"m 368 -13 q 308 -13 246 40 l 246 40 l 238 0 l 94 0 l 230 636 l 378 656 l 258 95 q 286 75 315 75 l 315 75 q 372 75 416 141 q 459 207 483 309 q 507 411 507 515 l 507 515 q 507 613 469 659 q 430 704 361 704 l 361 704 q 286 704 227 675 q 167 645 133 590 q 99 535 99 461 l 99 461 q 99 424 106 410 q 113 395 113 393 l 113 393 q 61 393 34 415 q 6 437 6 486 l 6 486 q 6 554 57 615 q 108 676 194 713 q 279 750 378 750 l 378 750 q 515 750 580 669 q 645 588 645 462 l 645 462 q 645 348 607 238 q 568 127 504 57 q 440 -13 368 -13 l 368 -13 m 265 -231 q 232 -231 209 -208 q 186 -185 186 -152 l 186 -152 q 186 -119 209 -95 q 232 -72 265 -72 l 265 -72 q 298 -72 322 -95 q 345 -119 345 -152 l 345 -152 q 345 -185 322 -208 q 298 -231 265 -231 l 265 -231"},"E":{"x_min":7,"x_max":493,"ha":459,"o":"m 191 -18 q 100 -18 54 32 q 7 82 7 158 l 7 158 q 7 212 30 267 q 52 321 94 362 q 136 403 192 417 l 192 417 q 161 439 146 471 q 131 502 131 537 l 131 537 q 131 589 160 639 q 188 689 239 721 q 289 752 350 752 l 350 752 q 413 752 453 719 q 493 686 493 627 l 493 627 q 493 583 471 553 q 449 523 419 523 l 419 523 q 392 523 372 550 l 372 550 q 390 556 403 583 q 416 610 416 637 l 416 637 q 416 666 400 680 q 384 693 361 693 l 361 693 q 332 693 309 673 q 285 652 272 620 q 259 587 259 552 l 259 552 q 259 504 284 468 q 309 431 360 418 l 360 418 q 309 407 268 368 q 227 329 204 278 q 181 226 181 179 l 181 179 q 181 134 205 106 q 228 78 276 78 l 276 78 q 326 78 381 106 q 435 133 461 180 l 461 180 l 484 170 q 445 84 364 33 q 283 -18 191 -18 l 191 -18"},"É":{"x_min":7,"x_max":526,"ha":459,"o":"m 330 811 l 421 1000 l 526 1000 l 405 811 l 330 811 m 191 -18 q 100 -18 54 32 q 7 82 7 158 l 7 158 q 7 212 30 267 q 52 321 94 362 q 136 403 192 417 l 192 417 q 161 439 146 471 q 131 502 131 537 l 131 537 q 131 589 160 639 q 188 689 239 721 q 289 752 350 752 l 350 752 q 413 752 453 719 q 493 686 493 627 l 493 627 q 493 583 471 553 q 449 523 419 523 l 419 523 q 392 523 372 550 l 372 550 q 390 556 403 583 q 416 610 416 637 l 416 637 q 416 666 400 680 q 384 693 361 693 l 361 693 q 332 693 309 673 q 285 652 272 620 q 259 587 259 552 l 259 552 q 259 504 284 468 q 309 431 360 418 l 360 418 q 309 407 268 368 q 227 329 204 278 q 181 226 181 179 l 181 179 q 181 134 205 106 q 228 78 276 78 l 276 78 q 326 78 381 106 q 435 133 461 180 l 461 180 l 484 170 q 445 84 364 33 q 283 -18 191 -18 l 191 -18"},"Ĕ":{"x_min":7,"x_max":585,"ha":459,"o":"m 375 815 q 300 815 261 851 q 222 886 222 954 l 222 954 l 312 954 q 312 914 332 893 q 352 871 390 871 l 390 871 q 431 871 463 895 q 495 919 500 954 l 500 954 l 585 954 q 580 915 550 884 q 520 852 474 834 q 428 815 375 815 l 375 815 m 191 -18 q 100 -18 54 32 q 7 82 7 158 l 7 158 q 7 212 30 267 q 52 321 94 362 q 136 403 192 417 l 192 417 q 161 439 146 471 q 131 502 131 537 l 131 537 q 131 589 160 639 q 188 689 239 721 q 289 752 350 752 l 350 752 q 413 752 453 719 q 493 686 493 627 l 493 627 q 493 583 471 553 q 449 523 419 523 l 419 523 q 392 523 372 550 l 372 550 q 390 556 403 583 q 416 610 416 637 l 416 637 q 416 666 400 680 q 384 693 361 693 l 361 693 q 332 693 309 673 q 285 652 272 620 q 259 587 259 552 l 259 552 q 259 504 284 468 q 309 431 360 418 l 360 418 q 309 407 268 368 q 227 329 204 278 q 181 226 181 179 l 181 179 q 181 134 205 106 q 228 78 276 78 l 276 78 q 326 78 381 106 q 435 133 461 180 l 461 180 l 484 170 q 445 84 364 33 q 283 -18 191 -18 l 191 -18"},"Ě":{"x_min":7,"x_max":592,"ha":459,"o":"m 359 811 l 299 1000 l 331 1000 l 391 920 l 548 1000 l 592 1000 l 380 811 l 359 811 m 191 -18 q 100 -18 54 32 q 7 82 7 158 l 7 158 q 7 212 30 267 q 52 321 94 362 q 136 403 192 417 l 192 417 q 161 439 146 471 q 131 502 131 537 l 131 537 q 131 589 160 639 q 188 689 239 721 q 289 752 350 752 l 350 752 q 413 752 453 719 q 493 686 493 627 l 493 627 q 493 583 471 553 q 449 523 419 523 l 419 523 q 392 523 372 550 l 372 550 q 390 556 403 583 q 416 610 416 637 l 416 637 q 416 666 400 680 q 384 693 361 693 l 361 693 q 332 693 309 673 q 285 652 272 620 q 259 587 259 552 l 259 552 q 259 504 284 468 q 309 431 360 418 l 360 418 q 309 407 268 368 q 227 329 204 278 q 181 226 181 179 l 181 179 q 181 134 205 106 q 228 78 276 78 l 276 78 q 326 78 381 106 q 435 133 461 180 l 461 180 l 484 170 q 445 84 364 33 q 283 -18 191 -18 l 191 -18"},"Ê":{"x_min":7,"x_max":495,"ha":459,"o":"m 202 811 l 414 1000 l 435 1000 l 495 811 l 463 811 l 403 891 l 246 811 l 202 811 m 191 -18 q 100 -18 54 32 q 7 82 7 158 l 7 158 q 7 212 30 267 q 52 321 94 362 q 136 403 192 417 l 192 417 q 161 439 146 471 q 131 502 131 537 l 131 537 q 131 589 160 639 q 188 689 239 721 q 289 752 350 752 l 350 752 q 413 752 453 719 q 493 686 493 627 l 493 627 q 493 583 471 553 q 449 523 419 523 l 419 523 q 392 523 372 550 l 372 550 q 390 556 403 583 q 416 610 416 637 l 416 637 q 416 666 400 680 q 384 693 361 693 l 361 693 q 332 693 309 673 q 285 652 272 620 q 259 587 259 552 l 259 552 q 259 504 284 468 q 309 431 360 418 l 360 418 q 309 407 268 368 q 227 329 204 278 q 181 226 181 179 l 181 179 q 181 134 205 106 q 228 78 276 78 l 276 78 q 326 78 381 106 q 435 133 461 180 l 461 180 l 484 170 q 445 84 364 33 q 283 -18 191 -18 l 191 -18"},"Ế":{"x_min":7,"x_max":611,"ha":459,"o":"m 480 866 l 542 1000 l 611 1000 l 524 866 l 480 866 m 240 811 l 418 950 l 436 950 l 486 811 l 441 811 l 409 883 l 299 811 l 240 811 m 191 -18 q 100 -18 54 32 q 7 82 7 158 l 7 158 q 7 212 30 267 q 52 321 94 362 q 136 403 192 417 l 192 417 q 161 439 146 471 q 131 502 131 537 l 131 537 q 131 589 160 639 q 188 689 239 721 q 289 752 350 752 l 350 752 q 413 752 453 719 q 493 686 493 627 l 493 627 q 493 583 471 553 q 449 523 419 523 l 419 523 q 392 523 372 550 l 372 550 q 390 556 403 583 q 416 610 416 637 l 416 637 q 416 666 400 680 q 384 693 361 693 l 361 693 q 332 693 309 673 q 285 652 272 620 q 259 587 259 552 l 259 552 q 259 504 284 468 q 309 431 360 418 l 360 418 q 309 407 268 368 q 227 329 204 278 q 181 226 181 179 l 181 179 q 181 134 205 106 q 228 78 276 78 l 276 78 q 326 78 381 106 q 435 133 461 180 l 461 180 l 484 170 q 445 84 364 33 q 283 -18 191 -18 l 191 -18"},"Ệ":{"x_min":7,"x_max":495,"ha":459,"o":"m 202 811 l 414 1000 l 435 1000 l 495 811 l 463 811 l 403 891 l 246 811 l 202 811 m 191 -18 q 100 -18 54 32 q 7 82 7 158 l 7 158 q 7 212 30 267 q 52 321 94 362 q 136 403 192 417 l 192 417 q 161 439 146 471 q 131 502 131 537 l 131 537 q 131 589 160 639 q 188 689 239 721 q 289 752 350 752 l 350 752 q 413 752 453 719 q 493 686 493 627 l 493 627 q 493 583 471 553 q 449 523 419 523 l 419 523 q 392 523 372 550 l 372 550 q 390 556 403 583 q 416 610 416 637 l 416 637 q 416 666 400 680 q 384 693 361 693 l 361 693 q 332 693 309 673 q 285 652 272 620 q 259 587 259 552 l 259 552 q 259 504 284 468 q 309 431 360 418 l 360 418 q 309 407 268 368 q 227 329 204 278 q 181 226 181 179 l 181 179 q 181 134 205 106 q 228 78 276 78 l 276 78 q 326 78 381 106 q 435 133 461 180 l 461 180 l 484 170 q 445 84 364 33 q 283 -18 191 -18 l 191 -18 m 153 -231 q 120 -231 97 -208 q 74 -185 74 -152 l 74 -152 q 74 -119 97 -95 q 120 -72 153 -72 l 153 -72 q 186 -72 210 -95 q 233 -119 233 -152 l 233 -152 q 233 -185 210 -208 q 186 -231 153 -231 l 153 -231"},"Ề":{"x_min":7,"x_max":564,"ha":459,"o":"m 524 865 l 479 1000 l 545 1000 l 564 865 l 524 865 m 240 811 l 418 950 l 436 950 l 486 811 l 441 811 l 409 883 l 299 811 l 240 811 m 191 -18 q 100 -18 54 32 q 7 82 7 158 l 7 158 q 7 212 30 267 q 52 321 94 362 q 136 403 192 417 l 192 417 q 161 439 146 471 q 131 502 131 537 l 131 537 q 131 589 160 639 q 188 689 239 721 q 289 752 350 752 l 350 752 q 413 752 453 719 q 493 686 493 627 l 493 627 q 493 583 471 553 q 449 523 419 523 l 419 523 q 392 523 372 550 l 372 550 q 390 556 403 583 q 416 610 416 637 l 416 637 q 416 666 400 680 q 384 693 361 693 l 361 693 q 332 693 309 673 q 285 652 272 620 q 259 587 259 552 l 259 552 q 259 504 284 468 q 309 431 360 418 l 360 418 q 309 407 268 368 q 227 329 204 278 q 181 226 181 179 l 181 179 q 181 134 205 106 q 228 78 276 78 l 276 78 q 326 78 381 106 q 435 133 461 180 l 461 180 l 484 170 q 445 84 364 33 q 283 -18 191 -18 l 191 -18"},"Ể":{"x_min":7,"x_max":625,"ha":459,"o":"m 546 854 l 512 856 l 512 917 q 534 913 543 913 l 543 913 q 577 913 577 940 l 577 940 q 577 965 543 965 l 543 965 q 520 965 501 954 l 501 954 l 483 982 q 495 990 514 995 q 532 1000 551 1000 l 551 1000 q 583 1000 604 985 q 625 969 625 944 l 625 944 q 625 919 604 902 q 583 885 549 883 l 549 883 l 546 854 m 240 811 l 418 950 l 436 950 l 486 811 l 441 811 l 409 883 l 299 811 l 240 811 m 191 -18 q 100 -18 54 32 q 7 82 7 158 l 7 158 q 7 212 30 267 q 52 321 94 362 q 136 403 192 417 l 192 417 q 161 439 146 471 q 131 502 131 537 l 131 537 q 131 589 160 639 q 188 689 239 721 q 289 752 350 752 l 350 752 q 413 752 453 719 q 493 686 493 627 l 493 627 q 493 583 471 553 q 449 523 419 523 l 419 523 q 392 523 372 550 l 372 550 q 390 556 403 583 q 416 610 416 637 l 416 637 q 416 666 400 680 q 384 693 361 693 l 361 693 q 332 693 309 673 q 285 652 272 620 q 259 587 259 552 l 259 552 q 259 504 284 468 q 309 431 360 418 l 360 418 q 309 407 268 368 q 227 329 204 278 q 181 226 181 179 l 181 179 q 181 134 205 106 q 228 78 276 78 l 276 78 q 326 78 381 106 q 435 133 461 180 l 461 180 l 484 170 q 445 84 364 33 q 283 -18 191 -18 l 191 -18"},"Ễ":{"x_min":7,"x_max":569,"ha":459,"o":"m 564 992 l 569 991 q 564 965 529 943 q 494 920 455 920 l 455 920 l 447 920 l 486 811 l 441 811 l 409 883 l 299 811 l 240 811 l 396 933 q 381 938 366 943 q 350 947 336 947 l 336 947 q 311 947 291 929 l 291 929 l 286 930 q 303 964 334 982 q 364 1000 404 1000 l 404 1000 q 422 1000 435 997 q 448 994 468 987 l 468 987 q 499 976 521 976 l 521 976 q 549 976 564 992 l 564 992 m 372 550 q 390 556 403 583 q 416 610 416 637 l 416 637 q 416 666 400 680 q 384 693 361 693 l 361 693 q 332 693 309 673 q 285 652 272 620 q 259 587 259 552 l 259 552 q 259 504 284 468 q 309 431 360 418 l 360 418 q 309 407 268 368 q 227 329 204 278 q 181 226 181 179 l 181 179 q 181 134 205 106 q 228 78 276 78 l 276 78 q 326 78 381 106 q 435 133 461 180 l 461 180 l 484 170 q 445 84 364 33 q 283 -18 191 -18 l 191 -18 q 100 -18 54 32 q 7 82 7 158 l 7 158 q 7 212 30 267 q 52 321 94 362 q 136 403 192 417 l 192 417 q 161 439 146 471 q 131 502 131 537 l 131 537 q 131 589 160 639 q 188 689 239 721 q 289 752 350 752 l 350 752 q 413 752 453 719 q 493 686 493 627 l 493 627 q 493 583 471 553 q 449 523 419 523 l 419 523 q 392 523 372 550 l 372 550"},"Ȅ":{"x_min":7,"x_max":493,"ha":459,"o":"m 248 811 l 106 1000 l 211 1000 l 303 811 l 248 811 m 410 811 l 269 1000 l 374 1000 l 464 811 l 410 811 m 191 -18 q 100 -18 54 32 q 7 82 7 158 l 7 158 q 7 212 30 267 q 52 321 94 362 q 136 403 192 417 l 192 417 q 161 439 146 471 q 131 502 131 537 l 131 537 q 131 589 160 639 q 188 689 239 721 q 289 752 350 752 l 350 752 q 413 752 453 719 q 493 686 493 627 l 493 627 q 493 583 471 553 q 449 523 419 523 l 419 523 q 392 523 372 550 l 372 550 q 390 556 403 583 q 416 610 416 637 l 416 637 q 416 666 400 680 q 384 693 361 693 l 361 693 q 332 693 309 673 q 285 652 272 620 q 259 587 259 552 l 259 552 q 259 504 284 468 q 309 431 360 418 l 360 418 q 309 407 268 368 q 227 329 204 278 q 181 226 181 179 l 181 179 q 181 134 205 106 q 228 78 276 78 l 276 78 q 326 78 381 106 q 435 133 461 180 l 461 180 l 484 170 q 445 84 364 33 q 283 -18 191 -18 l 191 -18"},"Ë":{"x_min":7,"x_max":540,"ha":459,"o":"m 299 823 q 273 823 256 841 q 238 858 238 884 l 238 884 q 238 909 256 927 q 273 945 299 945 l 299 945 q 324 945 342 927 q 360 909 360 884 l 360 884 q 360 858 342 841 q 324 823 299 823 l 299 823 m 479 823 q 453 823 436 841 q 418 858 418 884 l 418 884 q 418 909 436 927 q 453 945 479 945 l 479 945 q 504 945 522 927 q 540 909 540 884 l 540 884 q 540 858 522 841 q 504 823 479 823 l 479 823 m 191 -18 q 100 -18 54 32 q 7 82 7 158 l 7 158 q 7 212 30 267 q 52 321 94 362 q 136 403 192 417 l 192 417 q 161 439 146 471 q 131 502 131 537 l 131 537 q 131 589 160 639 q 188 689 239 721 q 289 752 350 752 l 350 752 q 413 752 453 719 q 493 686 493 627 l 493 627 q 493 583 471 553 q 449 523 419 523 l 419 523 q 392 523 372 550 l 372 550 q 390 556 403 583 q 416 610 416 637 l 416 637 q 416 666 400 680 q 384 693 361 693 l 361 693 q 332 693 309 673 q 285 652 272 620 q 259 587 259 552 l 259 552 q 259 504 284 468 q 309 431 360 418 l 360 418 q 309 407 268 368 q 227 329 204 278 q 181 226 181 179 l 181 179 q 181 134 205 106 q 228 78 276 78 l 276 78 q 326 78 381 106 q 435 133 461 180 l 461 180 l 484 170 q 445 84 364 33 q 283 -18 191 -18 l 191 -18"},"Ė":{"x_min":7,"x_max":493,"ha":459,"o":"m 401 822 q 368 822 345 845 q 322 867 322 900 l 322 900 q 322 934 345 957 q 368 980 401 980 l 401 980 q 434 980 458 957 q 481 934 481 900 l 481 900 q 481 867 458 845 q 434 822 401 822 l 401 822 m 191 -18 q 100 -18 54 32 q 7 82 7 158 l 7 158 q 7 212 30 267 q 52 321 94 362 q 136 403 192 417 l 192 417 q 161 439 146 471 q 131 502 131 537 l 131 537 q 131 589 160 639 q 188 689 239 721 q 289 752 350 752 l 350 752 q 413 752 453 719 q 493 686 493 627 l 493 627 q 493 583 471 553 q 449 523 419 523 l 419 523 q 392 523 372 550 l 372 550 q 390 556 403 583 q 416 610 416 637 l 416 637 q 416 666 400 680 q 384 693 361 693 l 361 693 q 332 693 309 673 q 285 652 272 620 q 259 587 259 552 l 259 552 q 259 504 284 468 q 309 431 360 418 l 360 418 q 309 407 268 368 q 227 329 204 278 q 181 226 181 179 l 181 179 q 181 134 205 106 q 228 78 276 78 l 276 78 q 326 78 381 106 q 435 133 461 180 l 461 180 l 484 170 q 445 84 364 33 q 283 -18 191 -18 l 191 -18"},"Ẹ":{"x_min":7,"x_max":493,"ha":459,"o":"m 191 -18 q 100 -18 54 32 q 7 82 7 158 l 7 158 q 7 212 30 267 q 52 321 94 362 q 136 403 192 417 l 192 417 q 161 439 146 471 q 131 502 131 537 l 131 537 q 131 589 160 639 q 188 689 239 721 q 289 752 350 752 l 350 752 q 413 752 453 719 q 493 686 493 627 l 493 627 q 493 583 471 553 q 449 523 419 523 l 419 523 q 392 523 372 550 l 372 550 q 390 556 403 583 q 416 610 416 637 l 416 637 q 416 666 400 680 q 384 693 361 693 l 361 693 q 332 693 309 673 q 285 652 272 620 q 259 587 259 552 l 259 552 q 259 504 284 468 q 309 431 360 418 l 360 418 q 309 407 268 368 q 227 329 204 278 q 181 226 181 179 l 181 179 q 181 134 205 106 q 228 78 276 78 l 276 78 q 326 78 381 106 q 435 133 461 180 l 461 180 l 484 170 q 445 84 364 33 q 283 -18 191 -18 l 191 -18 m 153 -231 q 120 -231 97 -208 q 74 -185 74 -152 l 74 -152 q 74 -119 97 -95 q 120 -72 153 -72 l 153 -72 q 186 -72 210 -95 q 233 -119 233 -152 l 233 -152 q 233 -185 210 -208 q 186 -231 153 -231 l 153 -231"},"È":{"x_min":7,"x_max":493,"ha":459,"o":"m 311 811 l 252 1000 l 357 1000 l 386 811 l 311 811 m 191 -18 q 100 -18 54 32 q 7 82 7 158 l 7 158 q 7 212 30 267 q 52 321 94 362 q 136 403 192 417 l 192 417 q 161 439 146 471 q 131 502 131 537 l 131 537 q 131 589 160 639 q 188 689 239 721 q 289 752 350 752 l 350 752 q 413 752 453 719 q 493 686 493 627 l 493 627 q 493 583 471 553 q 449 523 419 523 l 419 523 q 392 523 372 550 l 372 550 q 390 556 403 583 q 416 610 416 637 l 416 637 q 416 666 400 680 q 384 693 361 693 l 361 693 q 332 693 309 673 q 285 652 272 620 q 259 587 259 552 l 259 552 q 259 504 284 468 q 309 431 360 418 l 360 418 q 309 407 268 368 q 227 329 204 278 q 181 226 181 179 l 181 179 q 181 134 205 106 q 228 78 276 78 l 276 78 q 326 78 381 106 q 435 133 461 180 l 461 180 l 484 170 q 445 84 364 33 q 283 -18 191 -18 l 191 -18"},"Ẻ":{"x_min":7,"x_max":498,"ha":459,"o":"m 385 792 l 338 794 l 338 882 q 365 877 383 877 l 383 877 q 405 877 418 887 q 430 896 430 913 l 430 913 q 430 949 383 949 l 383 949 q 348 949 323 933 l 323 933 l 297 975 q 314 986 341 993 q 368 1000 395 1000 l 395 1000 q 440 1000 469 978 q 498 955 498 919 l 498 919 q 498 885 469 861 q 440 837 393 833 l 393 833 l 385 792 m 191 -18 q 100 -18 54 32 q 7 82 7 158 l 7 158 q 7 212 30 267 q 52 321 94 362 q 136 403 192 417 l 192 417 q 161 439 146 471 q 131 502 131 537 l 131 537 q 131 589 160 639 q 188 689 239 721 q 289 752 350 752 l 350 752 q 413 752 453 719 q 493 686 493 627 l 493 627 q 493 583 471 553 q 449 523 419 523 l 419 523 q 392 523 372 550 l 372 550 q 390 556 403 583 q 416 610 416 637 l 416 637 q 416 666 400 680 q 384 693 361 693 l 361 693 q 332 693 309 673 q 285 652 272 620 q 259 587 259 552 l 259 552 q 259 504 284 468 q 309 431 360 418 l 360 418 q 309 407 268 368 q 227 329 204 278 q 181 226 181 179 l 181 179 q 181 134 205 106 q 228 78 276 78 l 276 78 q 326 78 381 106 q 435 133 461 180 l 461 180 l 484 170 q 445 84 364 33 q 283 -18 191 -18 l 191 -18"},"Ȇ":{"x_min":7,"x_max":564,"ha":459,"o":"m 201 822 q 206 860 236 892 q 266 924 313 942 q 359 960 412 960 l 412 960 q 486 960 525 925 q 564 889 564 822 l 564 822 l 475 822 q 475 862 455 884 q 434 905 396 905 l 396 905 q 355 905 324 881 q 292 857 287 822 l 287 822 l 201 822 m 191 -18 q 100 -18 54 32 q 7 82 7 158 l 7 158 q 7 212 30 267 q 52 321 94 362 q 136 403 192 417 l 192 417 q 161 439 146 471 q 131 502 131 537 l 131 537 q 131 589 160 639 q 188 689 239 721 q 289 752 350 752 l 350 752 q 413 752 453 719 q 493 686 493 627 l 493 627 q 493 583 471 553 q 449 523 419 523 l 419 523 q 392 523 372 550 l 372 550 q 390 556 403 583 q 416 610 416 637 l 416 637 q 416 666 400 680 q 384 693 361 693 l 361 693 q 332 693 309 673 q 285 652 272 620 q 259 587 259 552 l 259 552 q 259 504 284 468 q 309 431 360 418 l 360 418 q 309 407 268 368 q 227 329 204 278 q 181 226 181 179 l 181 179 q 181 134 205 106 q 228 78 276 78 l 276 78 q 326 78 381 106 q 435 133 461 180 l 461 180 l 484 170 q 445 84 364 33 q 283 -18 191 -18 l 191 -18"},"Ē":{"x_min":7,"x_max":560,"ha":459,"o":"m 224 849 l 240 923 l 560 923 l 545 849 l 224 849 m 191 -18 q 100 -18 54 32 q 7 82 7 158 l 7 158 q 7 212 30 267 q 52 321 94 362 q 136 403 192 417 l 192 417 q 161 439 146 471 q 131 502 131 537 l 131 537 q 131 589 160 639 q 188 689 239 721 q 289 752 350 752 l 350 752 q 413 752 453 719 q 493 686 493 627 l 493 627 q 493 583 471 553 q 449 523 419 523 l 419 523 q 392 523 372 550 l 372 550 q 390 556 403 583 q 416 610 416 637 l 416 637 q 416 666 400 680 q 384 693 361 693 l 361 693 q 332 693 309 673 q 285 652 272 620 q 259 587 259 552 l 259 552 q 259 504 284 468 q 309 431 360 418 l 360 418 q 309 407 268 368 q 227 329 204 278 q 181 226 181 179 l 181 179 q 181 134 205 106 q 228 78 276 78 l 276 78 q 326 78 381 106 q 435 133 461 180 l 461 180 l 484 170 q 445 84 364 33 q 283 -18 191 -18 l 191 -18"},"Ę":{"x_min":11,"x_max":499,"ha":459,"o":"m 300 -193 q 262 -193 242 -169 q 221 -145 221 -115 l 221 -115 q 221 -87 240 -56 q 258 -26 293 1 l 293 1 q 258 -6 218 -6 l 218 -6 q 152 -6 105 22 q 58 50 35 97 q 11 143 11 196 l 11 196 q 11 245 32 292 q 53 338 94 372 q 134 405 192 417 l 192 417 q 143 444 118 484 q 93 524 93 569 l 93 569 q 93 616 120 658 q 146 699 197 725 q 247 750 315 750 l 315 750 q 392 750 446 717 q 499 683 499 616 l 499 616 q 499 573 482 549 q 465 524 429 524 l 429 524 q 393 524 372 550 l 372 550 q 389 556 403 584 q 416 611 416 632 l 416 632 q 416 658 404 682 q 391 706 350 706 l 350 706 q 297 706 263 670 q 228 634 228 583 l 228 583 q 228 535 260 492 q 292 449 360 418 l 360 418 q 270 381 228 328 q 186 274 186 217 l 186 217 q 186 181 202 151 q 218 120 245 102 q 272 84 303 84 l 303 84 q 359 84 396 107 q 432 130 461 180 l 461 180 l 484 170 q 469 125 444 97 q 419 69 381 40 l 381 40 q 341 9 323 -16 q 304 -41 304 -84 l 304 -84 q 304 -104 314 -119 q 324 -134 343 -134 l 343 -134 q 356 -134 369 -127 q 381 -121 393 -112 q 405 -104 411 -100 l 411 -100 q 409 -124 409 -131 l 409 -131 q 380 -160 357 -176 q 333 -193 300 -193 l 300 -193"},"Ẽ":{"x_min":7,"x_max":606,"ha":459,"o":"m 445 819 q 422 819 401 824 q 380 829 353 839 l 353 839 q 330 847 313 852 q 295 856 277 856 l 277 856 q 240 856 211 830 l 211 830 l 206 832 q 229 880 272 905 q 315 930 373 930 l 373 930 q 398 930 418 926 q 437 921 463 912 l 463 912 q 467 911 490 904 q 513 897 538 897 l 538 897 q 576 897 601 920 l 601 920 l 606 919 q 602 896 578 873 q 553 849 518 834 q 482 819 445 819 l 445 819 m 191 -18 q 100 -18 54 32 q 7 82 7 158 l 7 158 q 7 212 30 267 q 52 321 94 362 q 136 403 192 417 l 192 417 q 161 439 146 471 q 131 502 131 537 l 131 537 q 131 589 160 639 q 188 689 239 721 q 289 752 350 752 l 350 752 q 413 752 453 719 q 493 686 493 627 l 493 627 q 493 583 471 553 q 449 523 419 523 l 419 523 q 392 523 372 550 l 372 550 q 390 556 403 583 q 416 610 416 637 l 416 637 q 416 666 400 680 q 384 693 361 693 l 361 693 q 332 693 309 673 q 285 652 272 620 q 259 587 259 552 l 259 552 q 259 504 284 468 q 309 431 360 418 l 360 418 q 309 407 268 368 q 227 329 204 278 q 181 226 181 179 l 181 179 q 181 134 205 106 q 228 78 276 78 l 276 78 q 326 78 381 106 q 435 133 461 180 l 461 180 l 484 170 q 445 84 364 33 q 283 -18 191 -18 l 191 -18"},"Ʒ":{"x_min":20,"x_max":575,"ha":555,"o":"m 349 449 q 427 430 466 379 q 504 328 504 248 l 504 248 q 504 177 468 117 q 431 56 363 20 q 294 -16 203 -16 l 203 -16 q 119 -16 70 17 q 20 49 20 112 l 20 112 q 20 156 44 183 q 67 209 105 209 l 105 209 q 139 209 157 183 l 157 183 q 120 161 120 111 l 120 111 q 120 82 141 63 q 161 43 199 43 l 199 43 q 243 43 276 72 q 308 100 325 146 q 341 191 341 241 l 341 241 q 341 317 308 352 q 274 386 216 386 l 216 386 l 194 386 l 210 460 l 385 698 l 285 698 q 193 698 193 676 l 193 676 q 199 676 205 668 q 210 660 210 644 l 210 644 q 210 614 192 601 q 173 587 151 587 l 151 587 q 124 587 112 605 q 100 622 100 646 l 100 646 q 100 687 133 718 q 166 748 223 748 l 223 748 l 575 748 l 349 449"},"Ǯ":{"x_min":20,"x_max":578,"ha":525,"o":"m 349 449 q 427 430 466 379 q 504 328 504 248 l 504 248 q 504 177 468 117 q 431 56 363 20 q 294 -16 203 -16 l 203 -16 q 119 -16 70 17 q 20 49 20 112 l 20 112 q 20 156 44 183 q 67 209 105 209 l 105 209 q 139 209 157 183 l 157 183 q 120 161 120 111 l 120 111 q 120 82 141 63 q 161 43 199 43 l 199 43 q 243 43 276 72 q 308 100 325 146 q 341 191 341 241 l 341 241 q 341 317 308 352 q 274 386 216 386 l 216 386 l 194 386 l 210 460 l 385 698 l 285 698 q 193 698 193 676 l 193 676 q 199 676 205 668 q 210 660 210 644 l 210 644 q 210 614 192 601 q 173 587 151 587 l 151 587 q 124 587 112 605 q 100 622 100 646 l 100 646 q 100 687 133 718 q 166 748 223 748 l 223 748 l 575 748 l 349 449 m 345 809 l 285 998 l 317 998 l 377 918 l 534 998 l 578 998 l 366 809 l 345 809"},"F":{"x_min":9,"x_max":606,"ha":459,"o":"m 88 0 l 232 668 q 169 666 136 620 q 102 574 102 461 l 102 461 q 102 424 109 410 q 116 395 116 393 l 116 393 q 62 393 36 416 q 9 438 9 490 l 9 490 q 9 561 44 620 q 79 678 156 714 q 232 750 350 750 l 350 750 q 374 750 414 745 l 414 745 q 486 738 516 738 l 516 738 q 569 738 606 750 l 606 750 q 603 741 595 711 q 587 680 567 659 q 546 637 511 630 l 511 630 q 452 630 371 649 l 371 649 l 329 450 l 475 450 l 459 376 l 313 376 l 232 0 l 88 0"},"G":{"x_min":19,"x_max":568,"ha":578,"o":"m 231 -207 q 158 -207 114 -169 q 69 -132 69 -71 l 69 -71 q 69 -33 87 -1 q 105 31 136 50 q 167 68 204 68 l 204 68 q 242 68 266 49 q 289 30 289 -1 l 289 -1 q 289 -25 278 -39 l 278 -39 q 269 -27 254 -20 q 238 -13 221 -13 l 221 -13 q 191 -13 172 -33 q 153 -53 153 -85 l 153 -85 q 153 -117 172 -137 q 190 -157 218 -157 l 218 -157 q 253 -157 278 -126 q 303 -95 316 -34 l 316 -34 l 366 187 l 362 187 q 335 149 297 129 q 258 109 212 109 l 212 109 q 154 109 110 140 q 66 171 43 229 q 19 286 19 362 l 19 362 q 19 472 67 563 q 115 653 199 705 q 283 757 384 757 l 384 757 q 469 757 519 720 q 568 683 568 619 l 568 619 q 568 576 547 550 q 526 524 492 524 l 492 524 q 473 524 457 532 q 440 540 429 555 l 429 555 q 447 567 460 594 q 472 620 472 647 l 472 647 q 472 677 455 694 q 437 710 405 710 l 405 710 q 347 710 293 659 q 239 607 206 524 q 173 441 173 350 l 173 350 q 173 275 197 236 q 221 196 266 196 l 266 196 q 320 196 362 253 q 403 310 428 419 l 428 419 l 546 418 l 473 82 q 441 -67 383 -137 q 324 -207 231 -207 l 231 -207"},"Ǵ":{"x_min":19,"x_max":570,"ha":578,"o":"m 374 811 l 465 1000 l 570 1000 l 449 811 l 374 811 m 231 -207 q 158 -207 114 -169 q 69 -132 69 -71 l 69 -71 q 69 -33 87 -1 q 105 31 136 50 q 167 68 204 68 l 204 68 q 242 68 266 49 q 289 30 289 -1 l 289 -1 q 289 -25 278 -39 l 278 -39 q 269 -27 254 -20 q 238 -13 221 -13 l 221 -13 q 191 -13 172 -33 q 153 -53 153 -85 l 153 -85 q 153 -117 172 -137 q 190 -157 218 -157 l 218 -157 q 253 -157 278 -126 q 303 -95 316 -34 l 316 -34 l 366 187 l 362 187 q 335 149 297 129 q 258 109 212 109 l 212 109 q 154 109 110 140 q 66 171 43 229 q 19 286 19 362 l 19 362 q 19 472 67 563 q 115 653 199 705 q 283 757 384 757 l 384 757 q 469 757 519 720 q 568 683 568 619 l 568 619 q 568 576 547 550 q 526 524 492 524 l 492 524 q 473 524 457 532 q 440 540 429 555 l 429 555 q 447 567 460 594 q 472 620 472 647 l 472 647 q 472 677 455 694 q 437 710 405 710 l 405 710 q 347 710 293 659 q 239 607 206 524 q 173 441 173 350 l 173 350 q 173 275 197 236 q 221 196 266 196 l 266 196 q 320 196 362 253 q 403 310 428 419 l 428 419 l 546 418 l 473 82 q 441 -67 383 -137 q 324 -207 231 -207 l 231 -207"},"Ğ":{"x_min":19,"x_max":644,"ha":578,"o":"m 433 815 q 358 815 319 851 q 280 886 280 954 l 280 954 l 370 954 q 370 914 390 893 q 410 871 448 871 l 448 871 q 489 871 521 895 q 553 919 558 954 l 558 954 l 644 954 q 638 915 609 883 q 579 851 533 833 q 486 815 433 815 l 433 815 m 231 -207 q 158 -207 114 -169 q 69 -132 69 -71 l 69 -71 q 69 -33 87 -1 q 105 31 136 50 q 167 68 204 68 l 204 68 q 242 68 266 49 q 289 30 289 -1 l 289 -1 q 289 -25 278 -39 l 278 -39 q 269 -27 254 -20 q 238 -13 221 -13 l 221 -13 q 191 -13 172 -33 q 153 -53 153 -85 l 153 -85 q 153 -117 172 -137 q 190 -157 218 -157 l 218 -157 q 253 -157 278 -126 q 303 -95 316 -34 l 316 -34 l 366 187 l 362 187 q 335 149 297 129 q 258 109 212 109 l 212 109 q 154 109 110 140 q 66 171 43 229 q 19 286 19 362 l 19 362 q 19 472 67 563 q 115 653 199 705 q 283 757 384 757 l 384 757 q 469 757 519 720 q 568 683 568 619 l 568 619 q 568 576 547 550 q 526 524 492 524 l 492 524 q 473 524 457 532 q 440 540 429 555 l 429 555 q 447 567 460 594 q 472 620 472 647 l 472 647 q 472 677 455 694 q 437 710 405 710 l 405 710 q 347 710 293 659 q 239 607 206 524 q 173 441 173 350 l 173 350 q 173 275 197 236 q 221 196 266 196 l 266 196 q 320 196 362 253 q 403 310 428 419 l 428 419 l 546 418 l 473 82 q 441 -67 383 -137 q 324 -207 231 -207 l 231 -207"},"Ǧ":{"x_min":19,"x_max":646,"ha":578,"o":"m 413 811 l 353 1000 l 385 1000 l 445 920 l 602 1000 l 646 1000 l 434 811 l 413 811 m 231 -207 q 158 -207 114 -169 q 69 -132 69 -71 l 69 -71 q 69 -33 87 -1 q 105 31 136 50 q 167 68 204 68 l 204 68 q 242 68 266 49 q 289 30 289 -1 l 289 -1 q 289 -25 278 -39 l 278 -39 q 269 -27 254 -20 q 238 -13 221 -13 l 221 -13 q 191 -13 172 -33 q 153 -53 153 -85 l 153 -85 q 153 -117 172 -137 q 190 -157 218 -157 l 218 -157 q 253 -157 278 -126 q 303 -95 316 -34 l 316 -34 l 366 187 l 362 187 q 335 149 297 129 q 258 109 212 109 l 212 109 q 154 109 110 140 q 66 171 43 229 q 19 286 19 362 l 19 362 q 19 472 67 563 q 115 653 199 705 q 283 757 384 757 l 384 757 q 469 757 519 720 q 568 683 568 619 l 568 619 q 568 576 547 550 q 526 524 492 524 l 492 524 q 473 524 457 532 q 440 540 429 555 l 429 555 q 447 567 460 594 q 472 620 472 647 l 472 647 q 472 677 455 694 q 437 710 405 710 l 405 710 q 347 710 293 659 q 239 607 206 524 q 173 441 173 350 l 173 350 q 173 275 197 236 q 221 196 266 196 l 266 196 q 320 196 362 253 q 403 310 428 419 l 428 419 l 546 418 l 473 82 q 441 -67 383 -137 q 324 -207 231 -207 l 231 -207"},"Ĝ":{"x_min":19,"x_max":568,"ha":578,"o":"m 250 811 l 461 1000 l 482 1000 l 542 811 l 511 811 l 451 891 l 293 811 l 250 811 m 231 -207 q 158 -207 114 -169 q 69 -132 69 -71 l 69 -71 q 69 -33 87 -1 q 105 31 136 50 q 167 68 204 68 l 204 68 q 242 68 266 49 q 289 30 289 -1 l 289 -1 q 289 -25 278 -39 l 278 -39 q 269 -27 254 -20 q 238 -13 221 -13 l 221 -13 q 191 -13 172 -33 q 153 -53 153 -85 l 153 -85 q 153 -117 172 -137 q 190 -157 218 -157 l 218 -157 q 253 -157 278 -126 q 303 -95 316 -34 l 316 -34 l 366 187 l 362 187 q 335 149 297 129 q 258 109 212 109 l 212 109 q 154 109 110 140 q 66 171 43 229 q 19 286 19 362 l 19 362 q 19 472 67 563 q 115 653 199 705 q 283 757 384 757 l 384 757 q 469 757 519 720 q 568 683 568 619 l 568 619 q 568 576 547 550 q 526 524 492 524 l 492 524 q 473 524 457 532 q 440 540 429 555 l 429 555 q 447 567 460 594 q 472 620 472 647 l 472 647 q 472 677 455 694 q 437 710 405 710 l 405 710 q 347 710 293 659 q 239 607 206 524 q 173 441 173 350 l 173 350 q 173 275 197 236 q 221 196 266 196 l 266 196 q 320 196 362 253 q 403 310 428 419 l 428 419 l 546 418 l 473 82 q 441 -67 383 -137 q 324 -207 231 -207 l 231 -207"},"Ģ":{"x_min":6,"x_max":536,"ha":578,"o":"m 197 -6 q 106 -6 56 65 q 6 135 6 261 l 6 261 q 6 391 56 505 q 106 619 190 688 q 273 757 367 757 l 367 757 q 438 757 483 719 q 527 681 527 620 l 527 620 q 527 578 506 552 q 485 526 451 526 l 451 526 q 413 526 390 557 l 390 557 q 408 570 420 596 q 431 621 431 648 l 431 648 q 431 676 418 693 q 405 710 382 710 l 382 710 q 334 710 285 642 q 236 574 204 469 q 172 364 172 262 l 172 262 q 172 178 193 130 q 214 81 251 81 l 251 81 q 283 81 317 120 q 351 158 378 225 q 405 291 418 370 l 418 370 l 536 370 l 454 0 l 325 0 l 339 68 l 335 68 q 304 29 272 12 q 239 -6 197 -6 l 197 -6 m 223 -249 l 203 -229 q 222 -208 230 -197 q 237 -186 237 -177 l 237 -177 q 237 -170 232 -162 q 227 -155 221 -149 l 221 -149 q 211 -139 206 -130 q 201 -122 201 -111 l 201 -111 q 201 -91 217 -77 q 232 -64 257 -64 l 257 -64 q 281 -64 296 -79 q 310 -94 310 -119 l 310 -119 q 310 -152 286 -188 q 261 -225 223 -249 l 223 -249"},"Ġ":{"x_min":19,"x_max":568,"ha":578,"o":"m 416 822 q 383 822 360 845 q 337 867 337 900 l 337 900 q 337 934 360 957 q 383 980 416 980 l 416 980 q 449 980 473 957 q 496 934 496 900 l 496 900 q 496 867 473 845 q 449 822 416 822 l 416 822 m 231 -207 q 158 -207 114 -169 q 69 -132 69 -71 l 69 -71 q 69 -33 87 -1 q 105 31 136 50 q 167 68 204 68 l 204 68 q 242 68 266 49 q 289 30 289 -1 l 289 -1 q 289 -25 278 -39 l 278 -39 q 269 -27 254 -20 q 238 -13 221 -13 l 221 -13 q 191 -13 172 -33 q 153 -53 153 -85 l 153 -85 q 153 -117 172 -137 q 190 -157 218 -157 l 218 -157 q 253 -157 278 -126 q 303 -95 316 -34 l 316 -34 l 366 187 l 362 187 q 335 149 297 129 q 258 109 212 109 l 212 109 q 154 109 110 140 q 66 171 43 229 q 19 286 19 362 l 19 362 q 19 472 67 563 q 115 653 199 705 q 283 757 384 757 l 384 757 q 469 757 519 720 q 568 683 568 619 l 568 619 q 568 576 547 550 q 526 524 492 524 l 492 524 q 473 524 457 532 q 440 540 429 555 l 429 555 q 447 567 460 594 q 472 620 472 647 l 472 647 q 472 677 455 694 q 437 710 405 710 l 405 710 q 347 710 293 659 q 239 607 206 524 q 173 441 173 350 l 173 350 q 173 275 197 236 q 221 196 266 196 l 266 196 q 320 196 362 253 q 403 310 428 419 l 428 419 l 546 418 l 473 82 q 441 -67 383 -137 q 324 -207 231 -207 l 231 -207"},"Ḡ":{"x_min":19,"x_max":569,"ha":578,"o":"m 233 849 l 250 923 l 569 923 l 555 849 l 233 849 m 231 -207 q 158 -207 114 -169 q 69 -132 69 -71 l 69 -71 q 69 -33 87 -1 q 105 31 136 50 q 167 68 204 68 l 204 68 q 242 68 266 49 q 289 30 289 -1 l 289 -1 q 289 -25 278 -39 l 278 -39 q 269 -27 254 -20 q 238 -13 221 -13 l 221 -13 q 191 -13 172 -33 q 153 -53 153 -85 l 153 -85 q 153 -117 172 -137 q 190 -157 218 -157 l 218 -157 q 253 -157 278 -126 q 303 -95 316 -34 l 316 -34 l 366 187 l 362 187 q 335 149 297 129 q 258 109 212 109 l 212 109 q 154 109 110 140 q 66 171 43 229 q 19 286 19 362 l 19 362 q 19 472 67 563 q 115 653 199 705 q 283 757 384 757 l 384 757 q 469 757 519 720 q 568 683 568 619 l 568 619 q 568 576 547 550 q 526 524 492 524 l 492 524 q 473 524 457 532 q 440 540 429 555 l 429 555 q 447 567 460 594 q 472 620 472 647 l 472 647 q 472 677 455 694 q 437 710 405 710 l 405 710 q 347 710 293 659 q 239 607 206 524 q 173 441 173 350 l 173 350 q 173 275 197 236 q 221 196 266 196 l 266 196 q 320 196 362 253 q 403 310 428 419 l 428 419 l 546 418 l 473 82 q 441 -67 383 -137 q 324 -207 231 -207 l 231 -207"},"Ǥ":{"x_min":19,"x_max":591,"ha":601,"o":"m 591 359 l 579 309 l 522 309 l 473 82 q 441 -67 383 -137 q 324 -207 231 -207 l 231 -207 q 158 -207 114 -169 q 69 -132 69 -71 l 69 -71 q 69 -33 87 -1 q 105 31 136 50 q 167 68 204 68 l 204 68 q 242 68 266 49 q 289 30 289 -1 l 289 -1 q 289 -25 278 -39 l 278 -39 q 269 -27 254 -20 q 238 -13 221 -13 l 221 -13 q 191 -13 172 -33 q 153 -53 153 -85 l 153 -85 q 153 -117 172 -137 q 190 -157 218 -157 l 218 -157 q 253 -157 278 -126 q 303 -95 316 -34 l 316 -34 l 366 187 l 362 187 q 335 149 297 129 q 258 109 212 109 l 212 109 q 154 109 110 140 q 66 171 43 229 q 19 286 19 362 l 19 362 q 19 472 67 563 q 115 653 199 705 q 283 757 384 757 l 384 757 q 469 757 519 720 q 568 683 568 619 l 568 619 q 568 576 547 550 q 526 524 492 524 l 492 524 q 473 524 457 532 q 440 540 429 555 l 429 555 q 447 567 460 594 q 472 620 472 647 l 472 647 q 472 677 455 694 q 437 710 405 710 l 405 710 q 347 710 293 659 q 239 607 206 524 q 173 441 173 350 l 173 350 q 173 275 197 236 q 221 196 266 196 l 266 196 q 343 196 393 309 l 393 309 l 288 309 l 302 359 l 412 359 q 419 381 428 419 l 428 419 l 546 418 l 533 359 l 591 359"},"H":{"x_min":12,"x_max":694,"ha":665,"o":"m 100 0 l 245 680 q 178 652 142 596 q 105 540 105 461 l 105 461 q 105 424 112 410 q 119 395 119 393 l 119 393 q 65 393 39 416 q 12 438 12 490 l 12 490 q 12 554 65 615 q 117 675 199 713 q 281 750 363 750 l 363 750 q 377 750 403 748 l 403 748 l 339 450 l 486 450 l 550 748 l 694 748 l 535 0 l 391 0 l 471 376 l 324 376 l 244 0 l 100 0"},"Ħ":{"x_min":12,"x_max":742,"ha":665,"o":"m 742 566 l 728 516 l 645 516 l 535 0 l 391 0 l 471 376 l 324 376 l 244 0 l 100 0 l 210 516 l 163 516 l 177 566 l 221 566 l 245 680 q 178 652 142 596 q 105 540 105 461 l 105 461 q 105 424 112 410 q 119 395 119 393 l 119 393 q 65 393 39 416 q 12 438 12 490 l 12 490 q 12 554 65 615 q 117 675 199 713 q 281 750 363 750 l 363 750 q 377 750 403 748 l 403 748 l 364 566 l 511 566 l 550 748 l 694 748 l 655 566 l 742 566 m 486 450 l 500 516 l 353 516 l 339 450 l 486 450"},"Ḫ":{"x_min":12,"x_max":694,"ha":665,"o":"m 100 0 l 245 680 q 178 652 142 596 q 105 540 105 461 l 105 461 q 105 424 112 410 q 119 395 119 393 l 119 393 q 65 393 39 416 q 12 438 12 490 l 12 490 q 12 554 65 615 q 117 675 199 713 q 281 750 363 750 l 363 750 q 377 750 403 748 l 403 748 l 339 450 l 486 450 l 550 748 l 694 748 l 535 0 l 391 0 l 471 376 l 324 376 l 244 0 l 100 0 m 275 -203 q 205 -203 168 -169 q 131 -136 131 -72 l 131 -72 l 215 -72 q 215 -110 235 -130 q 254 -150 290 -150 l 290 -150 q 328 -150 358 -127 q 388 -105 392 -72 l 392 -72 l 473 -72 q 468 -108 440 -138 q 412 -168 369 -185 q 325 -203 275 -203 l 275 -203"},"Ȟ":{"x_min":12,"x_max":712,"ha":665,"o":"m 100 0 l 245 680 q 178 652 142 596 q 105 540 105 461 l 105 461 q 105 424 112 410 q 119 395 119 393 l 119 393 q 65 393 39 416 q 12 438 12 490 l 12 490 q 12 554 65 615 q 117 675 199 713 q 281 750 363 750 l 363 750 q 377 750 403 748 l 403 748 l 339 450 l 486 450 l 550 748 l 694 748 l 535 0 l 391 0 l 471 376 l 324 376 l 244 0 l 100 0 m 479 811 l 419 1000 l 451 1000 l 511 920 l 668 1000 l 712 1000 l 500 811 l 479 811"},"Ĥ":{"x_min":12,"x_max":694,"ha":665,"o":"m 337 811 l 549 1000 l 570 1000 l 630 811 l 599 811 l 539 891 l 381 811 l 337 811 m 100 0 l 245 680 q 178 652 142 596 q 105 540 105 461 l 105 461 q 105 424 112 410 q 119 395 119 393 l 119 393 q 65 393 39 416 q 12 438 12 490 l 12 490 q 12 554 65 615 q 117 675 199 713 q 281 750 363 750 l 363 750 q 377 750 403 748 l 403 748 l 339 450 l 486 450 l 550 748 l 694 748 l 535 0 l 391 0 l 471 376 l 324 376 l 244 0 l 100 0"},"Ḥ":{"x_min":12,"x_max":694,"ha":665,"o":"m 100 0 l 245 680 q 178 652 142 596 q 105 540 105 461 l 105 461 q 105 424 112 410 q 119 395 119 393 l 119 393 q 65 393 39 416 q 12 438 12 490 l 12 490 q 12 554 65 615 q 117 675 199 713 q 281 750 363 750 l 363 750 q 377 750 403 748 l 403 748 l 339 450 l 486 450 l 550 748 l 694 748 l 535 0 l 391 0 l 471 376 l 324 376 l 244 0 l 100 0 m 290 -231 q 257 -231 234 -208 q 210 -185 210 -152 l 210 -152 q 210 -119 234 -95 q 257 -72 290 -72 l 290 -72 q 322 -72 346 -95 q 370 -119 370 -152 l 370 -152 q 370 -185 347 -208 q 323 -231 290 -231 l 290 -231"},"I":{"x_min":6,"x_max":397,"ha":375,"o":"m 94 0 l 239 679 q 172 652 136 597 q 99 541 99 461 l 99 461 q 99 424 106 410 q 113 395 113 393 l 113 393 q 59 393 33 416 q 6 438 6 490 l 6 490 q 6 554 59 615 q 111 675 193 713 q 275 750 357 750 l 357 750 q 371 750 397 748 l 397 748 l 238 0 l 94 0"},"Ĳ":{"x_min":6,"x_max":673,"ha":663,"o":"m 273 -207 q 192 -207 152 -169 q 112 -132 112 -70 l 112 -70 q 112 -30 127 0 l 127 0 l 94 0 l 239 679 q 172 652 136 597 q 99 541 99 461 l 99 461 q 99 424 106 410 q 113 395 113 393 l 113 393 q 59 393 33 416 q 6 438 6 490 l 6 490 q 6 554 59 615 q 111 675 193 713 q 275 750 357 750 l 357 750 q 371 750 397 748 l 397 748 l 250 58 q 281 53 299 36 q 317 19 317 -6 l 317 -6 q 317 -21 310 -39 l 310 -39 q 287 -16 261 -16 l 261 -16 q 234 -16 215 -37 q 196 -59 196 -89 l 196 -89 q 196 -119 216 -138 q 235 -157 267 -157 l 267 -157 q 299 -157 322 -130 q 344 -104 359 -34 l 359 -34 l 523 717 l 673 750 l 523 40 q 499 -76 441 -141 q 382 -207 273 -207 l 273 -207"},"Í":{"x_min":6,"x_max":489,"ha":375,"o":"m 293 811 l 384 1000 l 489 1000 l 369 811 l 293 811 m 94 0 l 239 679 q 172 652 136 597 q 99 541 99 461 l 99 461 q 99 424 106 410 q 113 395 113 393 l 113 393 q 59 393 33 416 q 6 438 6 490 l 6 490 q 6 554 59 615 q 111 675 193 713 q 275 750 357 750 l 357 750 q 371 750 397 748 l 397 748 l 238 0 l 94 0"},"Ĭ":{"x_min":6,"x_max":537,"ha":375,"o":"m 326 815 q 252 815 213 851 q 173 886 173 954 l 173 954 l 263 954 q 263 914 284 893 q 304 871 341 871 l 341 871 q 382 871 414 895 q 446 919 451 954 l 451 954 l 537 954 q 531 915 502 883 q 472 851 426 833 q 379 815 326 815 l 326 815 m 94 0 l 239 679 q 172 652 136 597 q 99 541 99 461 l 99 461 q 99 424 106 410 q 113 395 113 393 l 113 393 q 59 393 33 416 q 6 438 6 490 l 6 490 q 6 554 59 615 q 111 675 193 713 q 275 750 357 750 l 357 750 q 371 750 397 748 l 397 748 l 238 0 l 94 0"},"Ǐ":{"x_min":6,"x_max":558,"ha":375,"o":"m 325 811 l 265 1000 l 297 1000 l 357 920 l 514 1000 l 558 1000 l 346 811 l 325 811 m 94 0 l 239 679 q 172 652 136 597 q 99 541 99 461 l 99 461 q 99 424 106 410 q 113 395 113 393 l 113 393 q 59 393 33 416 q 6 438 6 490 l 6 490 q 6 554 59 615 q 111 675 193 713 q 275 750 357 750 l 357 750 q 371 750 397 748 l 397 748 l 238 0 l 94 0"},"Î":{"x_min":6,"x_max":463,"ha":375,"o":"m 170 811 l 382 1000 l 403 1000 l 463 811 l 432 811 l 372 891 l 214 811 l 170 811 m 94 0 l 239 679 q 172 652 136 597 q 99 541 99 461 l 99 461 q 99 424 106 410 q 113 395 113 393 l 113 393 q 59 393 33 416 q 6 438 6 490 l 6 490 q 6 554 59 615 q 111 675 193 713 q 275 750 357 750 l 357 750 q 371 750 397 748 l 397 748 l 238 0 l 94 0"},"Ȉ":{"x_min":6,"x_max":420,"ha":375,"o":"m 204 811 l 63 1000 l 167 1000 l 259 811 l 204 811 m 366 811 l 225 1000 l 330 1000 l 420 811 l 366 811 m 94 0 l 239 679 q 172 652 136 597 q 99 541 99 461 l 99 461 q 99 424 106 410 q 113 395 113 393 l 113 393 q 59 393 33 416 q 6 438 6 490 l 6 490 q 6 554 59 615 q 111 675 193 713 q 275 750 357 750 l 357 750 q 371 750 397 748 l 397 748 l 238 0 l 94 0"},"Ï":{"x_min":6,"x_max":489,"ha":375,"o":"m 248 823 q 221 823 204 841 q 187 858 187 884 l 187 884 q 187 909 205 927 q 222 945 248 945 l 248 945 q 273 945 291 927 q 309 909 309 884 l 309 884 q 309 858 291 841 q 273 823 248 823 l 248 823 m 428 823 q 402 823 385 841 q 367 858 367 884 l 367 884 q 367 909 385 927 q 402 945 428 945 l 428 945 q 452 945 471 927 q 489 909 489 884 l 489 884 q 489 858 471 841 q 453 823 428 823 l 428 823 m 94 0 l 239 679 q 172 652 136 597 q 99 541 99 461 l 99 461 q 99 424 106 410 q 113 395 113 393 l 113 393 q 59 393 33 416 q 6 438 6 490 l 6 490 q 6 554 59 615 q 111 675 193 713 q 275 750 357 750 l 357 750 q 371 750 397 748 l 397 748 l 238 0 l 94 0"},"İ":{"x_min":6,"x_max":437,"ha":375,"o":"m 357 822 q 324 822 301 845 q 278 867 278 900 l 278 900 q 278 934 301 957 q 324 980 357 980 l 357 980 q 390 980 414 957 q 437 934 437 900 l 437 900 q 437 867 414 845 q 390 822 357 822 l 357 822 m 94 0 l 239 679 q 172 652 136 597 q 99 541 99 461 l 99 461 q 99 424 106 410 q 113 395 113 393 l 113 393 q 59 393 33 416 q 6 438 6 490 l 6 490 q 6 554 59 615 q 111 675 193 713 q 275 750 357 750 l 357 750 q 371 750 397 748 l 397 748 l 238 0 l 94 0"},"Ị":{"x_min":6,"x_max":397,"ha":375,"o":"m 94 0 l 239 679 q 172 652 136 597 q 99 541 99 461 l 99 461 q 99 424 106 410 q 113 395 113 393 l 113 393 q 59 393 33 416 q 6 438 6 490 l 6 490 q 6 554 59 615 q 111 675 193 713 q 275 750 357 750 l 357 750 q 371 750 397 748 l 397 748 l 238 0 l 94 0 m 138 -231 q 105 -231 82 -208 q 59 -185 59 -152 l 59 -152 q 59 -119 82 -95 q 105 -72 138 -72 l 138 -72 q 171 -72 195 -95 q 218 -119 218 -152 l 218 -152 q 218 -185 195 -208 q 171 -231 138 -231 l 138 -231"},"Ì":{"x_min":6,"x_max":397,"ha":375,"o":"m 274 811 l 215 1000 l 320 1000 l 349 811 l 274 811 m 94 0 l 239 679 q 172 652 136 597 q 99 541 99 461 l 99 461 q 99 424 106 410 q 113 395 113 393 l 113 393 q 59 393 33 416 q 6 438 6 490 l 6 490 q 6 554 59 615 q 111 675 193 713 q 275 750 357 750 l 357 750 q 371 750 397 748 l 397 748 l 238 0 l 94 0"},"Ỉ":{"x_min":6,"x_max":459,"ha":375,"o":"m 346 792 l 299 794 l 299 882 q 324 877 344 877 l 344 877 q 366 877 379 887 q 391 896 391 913 l 391 913 q 391 949 344 949 l 344 949 q 309 949 284 933 l 284 933 l 258 975 q 275 986 302 993 q 329 1000 355 1000 l 355 1000 q 401 1000 430 978 q 459 955 459 919 l 459 919 q 459 885 430 861 q 401 837 354 833 l 354 833 l 346 792 m 94 0 l 239 679 q 172 652 136 597 q 99 541 99 461 l 99 461 q 99 424 106 410 q 113 395 113 393 l 113 393 q 59 393 33 416 q 6 438 6 490 l 6 490 q 6 554 59 615 q 111 675 193 713 q 275 750 357 750 l 357 750 q 371 750 397 748 l 397 748 l 238 0 l 94 0"},"Ȋ":{"x_min":6,"x_max":497,"ha":375,"o":"m 133 822 q 139 860 169 892 q 198 924 245 942 q 291 960 344 960 l 344 960 q 418 960 458 925 q 497 889 497 822 l 497 822 l 407 822 q 407 862 387 884 q 366 905 329 905 l 329 905 q 287 905 256 881 q 224 857 219 822 l 219 822 l 133 822 m 94 0 l 239 679 q 172 652 136 597 q 99 541 99 461 l 99 461 q 99 424 106 410 q 113 395 113 393 l 113 393 q 59 393 33 416 q 6 438 6 490 l 6 490 q 6 554 59 615 q 111 675 193 713 q 275 750 357 750 l 357 750 q 371 750 397 748 l 397 748 l 238 0 l 94 0"},"Ī":{"x_min":6,"x_max":489,"ha":375,"o":"m 153 849 l 169 923 l 489 923 l 474 849 l 153 849 m 94 0 l 239 679 q 172 652 136 597 q 99 541 99 461 l 99 461 q 99 424 106 410 q 113 395 113 393 l 113 393 q 59 393 33 416 q 6 438 6 490 l 6 490 q 6 554 59 615 q 111 675 193 713 q 275 750 357 750 l 357 750 q 371 750 397 748 l 397 748 l 238 0 l 94 0"},"Į":{"x_min":6,"x_max":397,"ha":375,"o":"m 305 811 l 230 811 l 171 1000 l 276 1000 l 305 811 m 197 -149 q 235 -149 269 -110 l 269 -110 l 286 -133 q 270 -167 233 -190 q 196 -214 158 -214 l 158 -214 q 115 -214 87 -187 q 59 -161 59 -121 l 59 -121 q 59 -53 133 0 l 133 0 l 94 0 l 239 679 q 172 652 136 597 q 99 541 99 461 l 99 461 q 99 424 106 410 q 113 395 113 393 l 113 393 q 59 393 33 416 q 6 438 6 490 l 6 490 q 6 554 59 615 q 111 675 193 713 q 275 750 357 750 l 357 750 q 371 750 397 748 l 397 748 l 238 0 l 184 0 q 164 -15 153 -38 q 142 -61 142 -88 l 142 -88 q 142 -116 157 -132 q 172 -149 197 -149 l 197 -149"},"Ĩ":{"x_min":6,"x_max":533,"ha":375,"o":"m 372 819 q 349 819 328 824 q 307 829 280 839 l 280 839 q 257 847 240 852 q 222 856 204 856 l 204 856 q 167 856 138 830 l 138 830 l 132 832 q 156 880 199 905 q 242 930 299 930 l 299 930 q 325 930 346 926 q 366 921 391 912 l 391 912 q 434 897 464 897 l 464 897 q 504 897 527 920 l 527 920 l 533 919 q 528 896 504 873 q 479 849 444 834 q 409 819 372 819 l 372 819 m 94 0 l 239 679 q 172 652 136 597 q 99 541 99 461 l 99 461 q 99 424 106 410 q 113 395 113 393 l 113 393 q 59 393 33 416 q 6 438 6 490 l 6 490 q 6 554 59 615 q 111 675 193 713 q 275 750 357 750 l 357 750 q 371 750 397 748 l 397 748 l 238 0 l 94 0"},"J":{"x_min":17,"x_max":578,"ha":536,"o":"m 165 -207 q 94 -207 56 -168 q 17 -130 17 -66 l 17 -66 q 17 -12 50 28 q 83 68 139 68 l 139 68 q 182 68 210 56 q 237 43 237 1 l 237 1 q 237 -17 231 -39 l 231 -39 q 213 -24 200 -18 q 187 -13 171 -13 l 171 -13 q 138 -13 120 -35 q 101 -57 101 -87 l 101 -87 q 101 -122 122 -139 q 143 -157 169 -157 l 169 -157 q 193 -157 210 -147 q 226 -138 239 -111 q 252 -85 264 -34 l 264 -34 l 421 680 q 354 653 317 597 q 280 541 280 461 l 280 461 q 280 424 287 410 q 294 395 294 393 l 294 393 q 240 393 214 416 q 187 438 187 490 l 187 490 q 187 554 240 615 q 292 675 374 713 q 456 750 538 750 l 538 750 l 578 750 l 428 40 q 402 -83 342 -145 q 282 -207 165 -207 l 165 -207"},"Ĵ":{"x_min":17,"x_max":640,"ha":536,"o":"m 347 811 l 559 1000 l 580 1000 l 640 811 l 608 811 l 548 891 l 391 811 l 347 811 m 165 -207 q 94 -207 56 -168 q 17 -130 17 -66 l 17 -66 q 17 -12 50 28 q 83 68 139 68 l 139 68 q 182 68 210 56 q 237 43 237 1 l 237 1 q 237 -17 231 -39 l 231 -39 q 213 -24 200 -18 q 187 -13 171 -13 l 171 -13 q 138 -13 120 -35 q 101 -57 101 -87 l 101 -87 q 101 -122 122 -139 q 143 -157 169 -157 l 169 -157 q 193 -157 210 -147 q 226 -138 239 -111 q 252 -85 264 -34 l 264 -34 l 421 680 q 354 653 317 597 q 280 541 280 461 l 280 461 q 280 424 287 410 q 294 395 294 393 l 294 393 q 240 393 214 416 q 187 438 187 490 l 187 490 q 187 554 240 615 q 292 675 374 713 q 456 750 538 750 l 538 750 l 578 750 l 428 40 q 402 -83 342 -145 q 282 -207 165 -207 l 165 -207"},"K":{"x_min":6,"x_max":664,"ha":601,"o":"m 436 -17 q 358 -17 358 50 l 358 50 q 358 72 365 101 q 371 129 383 174 l 383 174 q 397 221 404 254 q 411 287 411 313 l 411 313 q 411 381 351 381 l 351 381 q 334 381 318 377 l 318 377 l 238 0 l 94 0 l 239 680 q 172 652 136 596 q 99 540 99 461 l 99 461 q 99 424 106 410 q 113 395 113 393 l 113 393 q 59 393 33 416 q 6 438 6 490 l 6 490 q 6 554 59 615 q 111 675 193 713 q 275 750 357 750 l 357 750 q 371 750 397 748 l 397 748 l 332 442 l 435 580 q 558 746 559 745 l 559 745 l 664 745 l 386 425 l 421 426 q 489 426 517 398 q 545 369 545 319 l 545 319 q 545 290 538 258 q 531 225 518 177 l 518 177 q 510 146 503 116 q 496 86 496 66 l 496 66 q 496 43 507 25 q 517 7 535 0 l 535 0 q 474 -17 436 -17 l 436 -17"},"Ǩ":{"x_min":6,"x_max":712,"ha":601,"o":"m 436 -17 q 358 -17 358 50 l 358 50 q 358 72 365 101 q 371 129 383 174 l 383 174 q 397 221 404 254 q 411 287 411 313 l 411 313 q 411 381 351 381 l 351 381 q 334 381 318 377 l 318 377 l 238 0 l 94 0 l 239 680 q 172 652 136 596 q 99 540 99 461 l 99 461 q 99 424 106 410 q 113 395 113 393 l 113 393 q 59 393 33 416 q 6 438 6 490 l 6 490 q 6 554 59 615 q 111 675 193 713 q 275 750 357 750 l 357 750 q 371 750 397 748 l 397 748 l 332 442 l 435 580 q 558 746 559 745 l 559 745 l 664 745 l 386 425 l 421 426 q 489 426 517 398 q 545 369 545 319 l 545 319 q 545 290 538 258 q 531 225 518 177 l 518 177 q 510 146 503 116 q 496 86 496 66 l 496 66 q 496 43 507 25 q 517 7 535 0 l 535 0 q 474 -17 436 -17 l 436 -17 m 479 811 l 419 1000 l 451 1000 l 511 920 l 668 1000 l 712 1000 l 500 811 l 479 811"},"Ķ":{"x_min":6,"x_max":664,"ha":601,"o":"m 436 -17 q 358 -17 358 50 l 358 50 q 358 72 365 101 q 371 129 383 174 l 383 174 q 397 221 404 254 q 411 287 411 313 l 411 313 q 411 381 351 381 l 351 381 q 334 381 318 377 l 318 377 l 238 0 l 94 0 l 239 680 q 172 652 136 596 q 99 540 99 461 l 99 461 q 99 424 106 410 q 113 395 113 393 l 113 393 q 59 393 33 416 q 6 438 6 490 l 6 490 q 6 554 59 615 q 111 675 193 713 q 275 750 357 750 l 357 750 q 371 750 397 748 l 397 748 l 332 442 l 435 580 q 558 746 559 745 l 559 745 l 664 745 l 386 425 l 421 426 q 489 426 517 398 q 545 369 545 319 l 545 319 q 545 290 538 258 q 531 225 518 177 l 518 177 q 510 146 503 116 q 496 86 496 66 l 496 66 q 496 43 507 25 q 517 7 535 0 l 535 0 q 474 -17 436 -17 l 436 -17 m 271 -249 l 251 -229 q 271 -208 279 -197 q 286 -186 286 -177 l 286 -177 q 286 -170 281 -162 q 276 -155 270 -149 l 270 -149 q 260 -139 255 -130 q 250 -122 250 -111 l 250 -111 q 250 -90 266 -77 q 281 -64 306 -64 l 306 -64 q 329 -64 344 -79 q 358 -94 358 -119 l 358 -119 q 358 -152 334 -188 q 310 -225 271 -249 l 271 -249"},"L":{"x_min":6,"x_max":663,"ha":379,"o":"m 559 -250 q 514 -250 471 -224 q 427 -199 360 -146 l 360 -146 q 310 -106 275 -81 q 239 -57 198 -40 q 156 -23 113 -23 l 113 -23 q 98 -23 90 -24 l 90 -24 l 239 669 q 172 642 136 587 q 99 531 99 451 l 99 451 q 99 414 106 400 q 113 385 113 383 l 113 383 q 59 383 33 406 q 6 428 6 480 l 6 480 q 6 544 59 605 q 111 665 193 703 q 275 740 357 740 l 357 740 q 371 740 397 738 l 397 738 l 243 20 q 271 13 301 0 q 330 -14 372 -37 l 372 -37 q 437 -72 483 -90 q 529 -109 579 -109 l 579 -109 q 624 -109 663 -93 l 663 -93 q 655 -166 628 -208 q 600 -250 559 -250 l 559 -250"},"Ĺ":{"x_min":6,"x_max":663,"ha":379,"o":"m 305 811 l 396 1000 l 501 1000 l 380 811 l 305 811 m 559 -250 q 514 -250 471 -224 q 427 -199 360 -146 l 360 -146 q 310 -106 275 -81 q 239 -57 198 -40 q 156 -23 113 -23 l 113 -23 q 98 -23 90 -24 l 90 -24 l 239 669 q 172 642 136 587 q 99 531 99 451 l 99 451 q 99 414 106 400 q 113 385 113 383 l 113 383 q 59 383 33 406 q 6 428 6 480 l 6 480 q 6 544 59 605 q 111 665 193 703 q 275 740 357 740 l 357 740 q 371 740 397 738 l 397 738 l 243 20 q 271 13 301 0 q 330 -14 372 -37 l 372 -37 q 437 -72 483 -90 q 529 -109 579 -109 l 579 -109 q 624 -109 663 -93 l 663 -93 q 655 -166 628 -208 q 600 -250 559 -250 l 559 -250"},"Ľ":{"x_min":6,"x_max":663,"ha":379,"o":"m 345 811 l 285 1000 l 316 1000 l 376 920 l 534 1000 l 578 1000 l 366 811 l 345 811 m 559 -250 q 514 -250 471 -224 q 427 -199 360 -146 l 360 -146 q 310 -106 275 -81 q 239 -57 198 -40 q 156 -23 113 -23 l 113 -23 q 98 -23 90 -24 l 90 -24 l 239 669 q 172 642 136 587 q 99 531 99 451 l 99 451 q 99 414 106 400 q 113 385 113 383 l 113 383 q 59 383 33 406 q 6 428 6 480 l 6 480 q 6 544 59 605 q 111 665 193 703 q 275 740 357 740 l 357 740 q 371 740 397 738 l 397 738 l 243 20 q 271 13 301 0 q 330 -14 372 -37 l 372 -37 q 437 -72 483 -90 q 529 -109 579 -109 l 579 -109 q 624 -109 663 -93 l 663 -93 q 655 -166 628 -208 q 600 -250 559 -250 l 559 -250"},"Ļ":{"x_min":6,"x_max":663,"ha":379,"o":"m 559 -250 q 514 -250 471 -224 q 427 -199 360 -146 l 360 -146 q 310 -106 275 -81 q 239 -57 198 -40 q 156 -23 113 -23 l 113 -23 q 98 -23 90 -24 l 90 -24 l 239 669 q 172 642 136 587 q 99 531 99 451 l 99 451 q 99 414 106 400 q 113 385 113 383 l 113 383 q 59 383 33 406 q 6 428 6 480 l 6 480 q 6 544 59 605 q 111 665 193 703 q 275 740 357 740 l 357 740 q 371 740 397 738 l 397 738 l 243 20 q 271 13 301 0 q 330 -14 372 -37 l 372 -37 q 437 -72 483 -90 q 529 -109 579 -109 l 579 -109 q 624 -109 663 -93 l 663 -93 q 655 -166 628 -208 q 600 -250 559 -250 l 559 -250 m 101 -249 l 81 -229 q 100 -207 108 -196 q 115 -186 115 -177 l 115 -177 q 115 -170 110 -162 q 105 -155 99 -149 l 99 -149 q 89 -139 84 -130 q 79 -122 79 -111 l 79 -111 q 79 -91 95 -77 q 110 -64 135 -64 l 135 -64 q 159 -64 174 -79 q 188 -94 188 -119 l 188 -119 q 188 -152 164 -188 q 139 -225 101 -249 l 101 -249"},"Ŀ":{"x_min":6,"x_max":663,"ha":605,"o":"m 559 -250 q 514 -250 471 -224 q 427 -199 360 -146 l 360 -146 q 310 -106 275 -81 q 239 -57 198 -40 q 156 -23 113 -23 l 113 -23 q 98 -23 90 -24 l 90 -24 l 239 669 q 172 642 136 587 q 99 531 99 451 l 99 451 q 99 414 106 400 q 113 385 113 383 l 113 383 q 59 383 33 406 q 6 428 6 480 l 6 480 q 6 544 59 605 q 111 665 193 703 q 275 740 357 740 l 357 740 q 371 740 397 738 l 397 738 l 243 20 q 271 13 301 0 q 330 -14 372 -37 l 372 -37 q 437 -72 483 -90 q 529 -109 579 -109 l 579 -109 q 624 -109 663 -93 l 663 -93 q 655 -166 628 -208 q 600 -250 559 -250 l 559 -250 m 480 172 q 448 172 425 195 q 401 218 401 250 l 401 250 q 401 284 425 308 q 448 331 480 331 l 480 331 q 513 331 537 308 q 561 284 561 250 l 561 250 q 561 218 537 195 q 513 172 480 172 l 480 172"},"Ḷ":{"x_min":6,"x_max":663,"ha":379,"o":"m 559 -250 q 514 -250 471 -224 q 427 -199 360 -146 l 360 -146 q 310 -106 275 -81 q 239 -57 198 -40 q 156 -23 113 -23 l 113 -23 q 98 -23 90 -24 l 90 -24 l 239 669 q 172 642 136 587 q 99 531 99 451 l 99 451 q 99 414 106 400 q 113 385 113 383 l 113 383 q 59 383 33 406 q 6 428 6 480 l 6 480 q 6 544 59 605 q 111 665 193 703 q 275 740 357 740 l 357 740 q 371 740 397 738 l 397 738 l 243 20 q 271 13 301 0 q 330 -14 372 -37 l 372 -37 q 437 -72 483 -90 q 529 -109 579 -109 l 579 -109 q 624 -109 663 -93 l 663 -93 q 655 -166 628 -208 q 600 -250 559 -250 l 559 -250 m 148 -231 q 115 -231 92 -208 q 69 -185 69 -152 l 69 -152 q 69 -119 92 -95 q 115 -72 148 -72 l 148 -72 q 181 -72 205 -95 q 228 -119 228 -152 l 228 -152 q 228 -185 205 -208 q 181 -231 148 -231 l 148 -231"},"Ł":{"x_min":6,"x_max":663,"ha":392,"o":"m 559 -250 q 514 -250 471 -224 q 427 -199 360 -146 l 360 -146 q 310 -106 275 -81 q 239 -57 198 -40 q 156 -23 113 -23 l 113 -23 q 98 -23 90 -24 l 90 -24 l 160 295 l 95 256 l 97 309 l 173 358 l 239 669 q 172 642 136 587 q 99 531 99 451 l 99 451 q 99 414 106 400 q 113 385 113 383 l 113 383 q 59 383 33 406 q 6 428 6 480 l 6 480 q 6 544 59 605 q 111 665 193 703 q 275 740 357 740 l 357 740 q 371 740 397 738 l 397 738 l 342 475 l 458 544 l 454 483 l 327 405 l 243 20 q 271 13 301 0 q 330 -14 372 -37 l 372 -37 q 437 -73 483 -91 q 529 -109 579 -109 l 579 -109 q 624 -109 663 -93 l 663 -93 q 655 -166 628 -208 q 600 -250 559 -250 l 559 -250"},"M":{"x_min":67,"x_max":804,"ha":787,"o":"m 67 0 l 321 687 q 245 662 204 605 q 162 547 162 462 l 162 462 q 162 424 169 410 q 176 396 176 393 l 176 393 q 69 393 69 484 l 69 484 q 69 546 117 609 q 164 671 239 711 q 313 750 387 750 l 387 750 q 424 750 463 736 l 463 736 l 440 209 l 660 736 l 804 736 l 699 0 l 555 0 l 619 449 l 431 0 l 294 0 l 314 451 l 147 0 l 67 0"},"Ṃ":{"x_min":67,"x_max":804,"ha":787,"o":"m 67 0 l 321 687 q 245 662 204 605 q 162 547 162 462 l 162 462 q 162 424 169 410 q 176 396 176 393 l 176 393 q 69 393 69 484 l 69 484 q 69 546 117 609 q 164 671 239 711 q 313 750 387 750 l 387 750 q 424 750 463 736 l 463 736 l 440 209 l 660 736 l 804 736 l 699 0 l 555 0 l 619 449 l 431 0 l 294 0 l 314 451 l 147 0 l 67 0 m 333 -231 q 301 -231 278 -208 q 254 -185 254 -152 l 254 -152 q 254 -119 278 -95 q 301 -72 333 -72 l 333 -72 q 366 -72 390 -95 q 414 -119 414 -152 l 414 -152 q 414 -185 390 -208 q 366 -231 333 -231 l 333 -231"},"N":{"x_min":6,"x_max":718,"ha":668,"o":"m 92 0 l 243 685 q 175 661 140 610 q 104 558 104 485 l 104 485 q 104 453 111 427 q 118 400 131 383 l 131 383 q 67 383 37 410 q 6 436 6 491 l 6 491 q 6 561 47 622 q 88 682 158 718 q 228 754 310 754 l 310 754 q 333 754 350 751 q 367 748 389 740 l 389 740 l 509 205 l 621 748 l 718 748 l 555 0 l 417 0 l 301 496 l 187 0 l 92 0"},"Ń":{"x_min":6,"x_max":718,"ha":702,"o":"m 496 811 l 587 1000 l 692 1000 l 571 811 l 496 811 m 92 0 l 243 685 q 175 661 140 610 q 104 558 104 485 l 104 485 q 104 453 111 427 q 118 400 131 383 l 131 383 q 67 383 37 410 q 6 436 6 491 l 6 491 q 6 561 47 622 q 88 682 158 718 q 228 754 310 754 l 310 754 q 333 754 350 751 q 367 748 389 740 l 389 740 l 509 205 l 621 748 l 718 748 l 555 0 l 417 0 l 301 496 l 187 0 l 92 0"},"Ň":{"x_min":6,"x_max":734,"ha":668,"o":"m 501 811 l 441 1000 l 473 1000 l 533 920 l 690 1000 l 734 1000 l 522 811 l 501 811 m 92 0 l 243 685 q 175 661 140 610 q 104 558 104 485 l 104 485 q 104 453 111 427 q 118 400 131 383 l 131 383 q 67 383 37 410 q 6 436 6 491 l 6 491 q 6 561 47 622 q 88 682 158 718 q 228 754 310 754 l 310 754 q 333 754 350 751 q 367 748 389 740 l 389 740 l 509 205 l 621 748 l 718 748 l 555 0 l 417 0 l 301 496 l 187 0 l 92 0"},"Ņ":{"x_min":6,"x_max":718,"ha":668,"o":"m 92 0 l 243 685 q 175 661 140 610 q 104 558 104 485 l 104 485 q 104 453 111 427 q 118 400 131 383 l 131 383 q 67 383 37 410 q 6 436 6 491 l 6 491 q 6 561 47 622 q 88 682 158 718 q 228 754 310 754 l 310 754 q 333 754 350 751 q 367 748 389 740 l 389 740 l 509 205 l 621 748 l 718 748 l 555 0 l 417 0 l 301 496 l 187 0 l 92 0 m 267 -249 l 247 -229 q 266 -207 274 -196 q 281 -186 281 -177 l 281 -177 q 281 -170 276 -162 q 271 -155 265 -149 l 265 -149 q 255 -139 250 -130 q 245 -122 245 -111 l 245 -111 q 245 -91 261 -77 q 276 -64 301 -64 l 301 -64 q 325 -64 340 -79 q 354 -94 354 -119 l 354 -119 q 354 -152 330 -188 q 305 -225 267 -249 l 267 -249"},"Ṅ":{"x_min":6,"x_max":718,"ha":668,"o":"m 533 822 q 500 822 477 845 q 454 867 454 900 l 454 900 q 454 934 477 957 q 500 980 533 980 l 533 980 q 566 980 590 957 q 613 934 613 900 l 613 900 q 613 867 590 845 q 566 822 533 822 l 533 822 m 92 0 l 243 685 q 175 661 140 610 q 104 558 104 485 l 104 485 q 104 453 111 427 q 118 400 131 383 l 131 383 q 67 383 37 410 q 6 436 6 491 l 6 491 q 6 561 47 622 q 88 682 158 718 q 228 754 310 754 l 310 754 q 333 754 350 751 q 367 748 389 740 l 389 740 l 509 205 l 621 748 l 718 748 l 555 0 l 417 0 l 301 496 l 187 0 l 92 0"},"Ṇ":{"x_min":6,"x_max":718,"ha":668,"o":"m 92 0 l 243 685 q 175 661 140 610 q 104 558 104 485 l 104 485 q 104 453 111 427 q 118 400 131 383 l 131 383 q 67 383 37 410 q 6 436 6 491 l 6 491 q 6 561 47 622 q 88 682 158 718 q 228 754 310 754 l 310 754 q 333 754 350 751 q 367 748 389 740 l 389 740 l 509 205 l 621 748 l 718 748 l 555 0 l 417 0 l 301 496 l 187 0 l 92 0 m 299 -231 q 266 -231 243 -208 q 220 -185 220 -152 l 220 -152 q 220 -119 243 -95 q 266 -72 299 -72 l 299 -72 q 332 -72 356 -95 q 379 -119 379 -152 l 379 -152 q 379 -185 356 -208 q 332 -231 299 -231 l 299 -231"},"Ŋ":{"x_min":51,"x_max":771,"ha":723,"o":"m 378 -206 q 314 -206 276 -174 q 237 -142 237 -89 l 237 -89 q 237 -53 255 -32 q 272 -11 302 -11 l 302 -11 q 324 -11 339 -22 q 354 -33 358 -51 l 358 -51 q 342 -51 332 -66 q 321 -81 321 -102 l 321 -102 q 321 -126 336 -141 q 351 -156 374 -156 l 374 -156 q 406 -156 432 -123 q 458 -90 471 -33 l 471 -33 l 479 0 l 346 496 l 232 0 l 137 0 l 292 685 q 223 661 186 610 q 149 558 149 485 l 149 485 q 149 453 156 427 q 163 400 176 383 l 176 383 q 111 383 81 410 q 51 436 51 492 l 51 492 q 51 562 93 622 q 135 682 206 718 q 277 754 359 754 l 359 754 q 380 754 397 751 q 414 748 438 740 l 438 740 l 554 205 l 674 752 l 771 752 l 621 83 q 556 -206 378 -206 l 378 -206"},"Ñ":{"x_min":6,"x_max":718,"ha":686,"o":"m 548 819 q 525 819 504 824 q 483 829 456 839 l 456 839 q 433 847 416 852 q 398 856 380 856 l 380 856 q 343 856 314 830 l 314 830 l 308 832 q 332 880 375 905 q 418 930 475 930 l 475 930 q 500 930 521 926 q 542 921 567 912 l 567 912 q 610 897 640 897 l 640 897 q 680 897 703 920 l 703 920 l 709 919 q 704 896 680 873 q 655 849 620 834 q 585 819 548 819 l 548 819 m 92 0 l 243 685 q 175 661 140 610 q 104 558 104 485 l 104 485 q 104 453 111 427 q 118 400 131 383 l 131 383 q 67 383 37 410 q 6 436 6 491 l 6 491 q 6 561 47 622 q 88 682 158 718 q 228 754 310 754 l 310 754 q 333 754 350 751 q 367 748 389 740 l 389 740 l 509 205 l 621 748 l 718 748 l 555 0 l 417 0 l 301 496 l 187 0 l 92 0"},"O":{"x_min":16,"x_max":656,"ha":665,"o":"m 287 -6 q 203 -6 156 42 q 108 90 108 195 l 108 195 q 108 284 140 395 q 172 506 234 585 q 295 664 379 664 l 379 664 q 409 664 431 656 l 431 656 q 387 630 347 549 q 306 468 281 368 q 256 268 256 191 l 256 191 q 256 137 270 106 q 284 75 314 75 l 314 75 q 363 75 412 146 q 460 216 492 323 q 523 430 523 529 l 523 529 q 523 591 513 629 q 502 666 474 685 q 446 704 395 704 l 395 704 q 318 704 252 673 q 186 641 147 583 q 107 524 107 447 l 107 447 q 107 420 112 408 q 117 395 117 393 l 117 393 q 67 393 42 413 q 16 433 16 477 l 16 477 q 16 546 73 609 q 129 672 223 711 q 316 750 419 750 l 419 750 q 544 750 600 682 q 656 614 656 494 l 656 494 q 656 387 616 271 q 576 155 493 75 q 409 -6 287 -6 l 287 -6"},"Ó":{"x_min":16,"x_max":656,"ha":665,"o":"m 397 811 l 488 1000 l 593 1000 l 472 811 l 397 811 m 287 -6 q 203 -6 156 42 q 108 90 108 195 l 108 195 q 108 284 140 395 q 172 506 234 585 q 295 664 379 664 l 379 664 q 409 664 431 656 l 431 656 q 387 630 347 549 q 306 468 281 368 q 256 268 256 191 l 256 191 q 256 137 270 106 q 284 75 314 75 l 314 75 q 363 75 412 146 q 460 216 492 323 q 523 430 523 529 l 523 529 q 523 591 513 629 q 502 666 474 685 q 446 704 395 704 l 395 704 q 318 704 252 673 q 186 641 147 583 q 107 524 107 447 l 107 447 q 107 420 112 408 q 117 395 117 393 l 117 393 q 67 393 42 413 q 16 433 16 477 l 16 477 q 16 546 73 609 q 129 672 223 711 q 316 750 419 750 l 419 750 q 544 750 600 682 q 656 614 656 494 l 656 494 q 656 387 616 271 q 576 155 493 75 q 409 -6 287 -6 l 287 -6"},"Ŏ":{"x_min":16,"x_max":668,"ha":665,"o":"m 458 815 q 383 815 344 851 q 305 886 305 954 l 305 954 l 395 954 q 395 914 415 893 q 435 871 473 871 l 473 871 q 514 871 546 895 q 578 919 583 954 l 583 954 l 668 954 q 663 915 633 884 q 603 852 557 834 q 511 815 458 815 l 458 815 m 287 -6 q 203 -6 156 42 q 108 90 108 195 l 108 195 q 108 284 140 395 q 172 506 234 585 q 295 664 379 664 l 379 664 q 409 664 431 656 l 431 656 q 387 630 347 549 q 306 468 281 368 q 256 268 256 191 l 256 191 q 256 137 270 106 q 284 75 314 75 l 314 75 q 363 75 412 146 q 460 216 492 323 q 523 430 523 529 l 523 529 q 523 591 513 629 q 502 666 474 685 q 446 704 395 704 l 395 704 q 318 704 252 673 q 186 641 147 583 q 107 524 107 447 l 107 447 q 107 420 112 408 q 117 395 117 393 l 117 393 q 67 393 42 413 q 16 433 16 477 l 16 477 q 16 546 73 609 q 129 672 223 711 q 316 750 419 750 l 419 750 q 544 750 600 682 q 656 614 656 494 l 656 494 q 656 387 616 271 q 576 155 493 75 q 409 -6 287 -6 l 287 -6"},"Ǒ":{"x_min":16,"x_max":700,"ha":665,"o":"m 467 811 l 407 1000 l 438 1000 l 499 920 l 656 1000 l 700 1000 l 488 811 l 467 811 m 287 -6 q 203 -6 156 42 q 108 90 108 195 l 108 195 q 108 284 140 395 q 172 506 234 585 q 295 664 379 664 l 379 664 q 409 664 431 656 l 431 656 q 387 630 347 549 q 306 468 281 368 q 256 268 256 191 l 256 191 q 256 137 270 106 q 284 75 314 75 l 314 75 q 363 75 412 146 q 460 216 492 323 q 523 430 523 529 l 523 529 q 523 591 513 629 q 502 666 474 685 q 446 704 395 704 l 395 704 q 318 704 252 673 q 186 641 147 583 q 107 524 107 447 l 107 447 q 107 420 112 408 q 117 395 117 393 l 117 393 q 67 393 42 413 q 16 433 16 477 l 16 477 q 16 546 73 609 q 129 672 223 711 q 316 750 419 750 l 419 750 q 544 750 600 682 q 656 614 656 494 l 656 494 q 656 387 616 271 q 576 155 493 75 q 409 -6 287 -6 l 287 -6"},"Ô":{"x_min":16,"x_max":656,"ha":665,"o":"m 272 811 l 484 1000 l 505 1000 l 565 811 l 533 811 l 473 891 l 316 811 l 272 811 m 287 -6 q 203 -6 156 42 q 108 90 108 195 l 108 195 q 108 284 140 395 q 172 506 234 585 q 295 664 379 664 l 379 664 q 409 664 431 656 l 431 656 q 387 630 347 549 q 306 468 281 368 q 256 268 256 191 l 256 191 q 256 137 270 106 q 284 75 314 75 l 314 75 q 363 75 412 146 q 460 216 492 323 q 523 430 523 529 l 523 529 q 523 591 513 629 q 502 666 474 685 q 446 704 395 704 l 395 704 q 318 704 252 673 q 186 641 147 583 q 107 524 107 447 l 107 447 q 107 420 112 408 q 117 395 117 393 l 117 393 q 67 393 42 413 q 16 433 16 477 l 16 477 q 16 546 73 609 q 129 672 223 711 q 316 750 419 750 l 419 750 q 544 750 600 682 q 656 614 656 494 l 656 494 q 656 387 616 271 q 576 155 493 75 q 409 -6 287 -6 l 287 -6"},"Ố":{"x_min":16,"x_max":694,"ha":665,"o":"m 563 866 l 625 1000 l 694 1000 l 607 866 l 563 866 m 323 811 l 501 950 l 519 950 l 569 811 l 524 811 l 492 883 l 382 811 l 323 811 m 287 -6 q 203 -6 156 42 q 108 90 108 195 l 108 195 q 108 284 140 395 q 172 506 234 585 q 295 664 379 664 l 379 664 q 409 664 431 656 l 431 656 q 387 630 347 549 q 306 468 281 368 q 256 268 256 191 l 256 191 q 256 137 270 106 q 284 75 314 75 l 314 75 q 363 75 412 146 q 460 216 492 323 q 523 430 523 529 l 523 529 q 523 591 513 629 q 502 666 474 685 q 446 704 395 704 l 395 704 q 318 704 252 673 q 186 641 147 583 q 107 524 107 447 l 107 447 q 107 420 112 408 q 117 395 117 393 l 117 393 q 67 393 42 413 q 16 433 16 477 l 16 477 q 16 546 73 609 q 129 672 223 711 q 316 750 419 750 l 419 750 q 544 750 600 682 q 656 614 656 494 l 656 494 q 656 387 616 271 q 576 155 493 75 q 409 -6 287 -6 l 287 -6"},"Ộ":{"x_min":16,"x_max":656,"ha":665,"o":"m 272 811 l 484 1000 l 505 1000 l 565 811 l 533 811 l 473 891 l 316 811 l 272 811 m 287 -6 q 203 -6 156 42 q 108 90 108 195 l 108 195 q 108 284 140 395 q 172 506 234 585 q 295 664 379 664 l 379 664 q 409 664 431 656 l 431 656 q 387 630 347 549 q 306 468 281 368 q 256 268 256 191 l 256 191 q 256 137 270 106 q 284 75 314 75 l 314 75 q 363 75 412 146 q 460 216 492 323 q 523 430 523 529 l 523 529 q 523 591 513 629 q 502 666 474 685 q 446 704 395 704 l 395 704 q 318 704 252 673 q 186 641 147 583 q 107 524 107 447 l 107 447 q 107 420 112 408 q 117 395 117 393 l 117 393 q 67 393 42 413 q 16 433 16 477 l 16 477 q 16 546 73 609 q 129 672 223 711 q 316 750 419 750 l 419 750 q 544 750 600 682 q 656 614 656 494 l 656 494 q 656 387 616 271 q 576 155 493 75 q 409 -6 287 -6 l 287 -6 m 260 -231 q 227 -231 204 -208 q 181 -185 181 -152 l 181 -152 q 181 -119 204 -95 q 227 -72 260 -72 l 260 -72 q 293 -72 317 -95 q 340 -119 340 -152 l 340 -152 q 340 -185 317 -208 q 293 -231 260 -231 l 260 -231"},"Ồ":{"x_min":16,"x_max":656,"ha":665,"o":"m 606 865 l 562 1000 l 628 1000 l 647 865 l 606 865 m 323 811 l 501 950 l 519 950 l 569 811 l 524 811 l 492 883 l 381 811 l 323 811 m 287 -6 q 203 -6 156 42 q 108 90 108 195 l 108 195 q 108 284 140 395 q 172 506 234 585 q 295 664 379 664 l 379 664 q 409 664 431 656 l 431 656 q 387 630 347 549 q 306 468 281 368 q 256 268 256 191 l 256 191 q 256 137 270 106 q 284 75 314 75 l 314 75 q 363 75 412 146 q 460 216 492 323 q 523 430 523 529 l 523 529 q 523 591 513 629 q 502 666 474 685 q 446 704 395 704 l 395 704 q 318 704 252 673 q 186 641 147 583 q 107 524 107 447 l 107 447 q 107 420 112 408 q 117 395 117 393 l 117 393 q 67 393 42 413 q 16 433 16 477 l 16 477 q 16 546 73 609 q 129 672 223 711 q 316 750 419 750 l 419 750 q 544 750 600 682 q 656 614 656 494 l 656 494 q 656 387 616 271 q 576 155 493 75 q 409 -6 287 -6 l 287 -6"},"Ổ":{"x_min":16,"x_max":708,"ha":665,"o":"m 629 854 l 595 856 l 595 917 q 617 913 626 913 l 626 913 q 660 913 660 940 l 660 940 q 660 965 626 965 l 626 965 q 603 965 584 954 l 584 954 l 566 982 q 578 990 597 995 q 615 1000 634 1000 l 634 1000 q 666 1000 687 985 q 708 969 708 944 l 708 944 q 708 919 687 902 q 666 885 632 883 l 632 883 l 629 854 m 323 811 l 501 950 l 519 950 l 569 811 l 524 811 l 492 883 l 381 811 l 323 811 m 287 -6 q 203 -6 156 42 q 108 90 108 195 l 108 195 q 108 284 140 395 q 172 506 234 585 q 295 664 379 664 l 379 664 q 409 664 431 656 l 431 656 q 387 630 347 549 q 306 468 281 368 q 256 268 256 191 l 256 191 q 256 137 270 106 q 284 75 314 75 l 314 75 q 363 75 412 146 q 460 216 492 323 q 523 430 523 529 l 523 529 q 523 591 513 629 q 502 666 474 685 q 446 704 395 704 l 395 704 q 318 704 252 673 q 186 641 147 583 q 107 524 107 447 l 107 447 q 107 420 112 408 q 117 395 117 393 l 117 393 q 67 393 42 413 q 16 433 16 477 l 16 477 q 16 546 73 609 q 129 672 223 711 q 316 750 419 750 l 419 750 q 544 750 600 682 q 656 614 656 494 l 656 494 q 656 387 616 271 q 576 155 493 75 q 409 -6 287 -6 l 287 -6"},"Ỗ":{"x_min":16,"x_max":656,"ha":665,"o":"m 382 811 l 323 811 l 479 933 q 464 938 449 943 q 433 947 419 947 l 419 947 q 394 947 374 929 l 374 929 l 369 930 q 386 964 417 982 q 447 1000 487 1000 l 487 1000 q 505 1000 519 997 q 533 993 552 987 l 552 987 q 583 976 604 976 l 604 976 q 632 976 647 992 l 647 992 l 652 991 q 647 965 612 943 q 577 920 538 920 l 538 920 l 530 920 l 569 811 l 524 811 l 492 883 l 382 811 m 419 750 q 544 750 600 682 q 656 614 656 494 l 656 494 q 656 387 616 271 q 576 155 493 75 q 409 -6 287 -6 l 287 -6 q 203 -6 156 42 q 108 90 108 195 l 108 195 q 108 284 140 395 q 172 506 234 585 q 295 664 379 664 l 379 664 q 409 664 431 656 l 431 656 q 387 630 347 549 q 306 468 281 368 q 256 268 256 191 l 256 191 q 256 137 270 106 q 284 75 314 75 l 314 75 q 363 75 412 146 q 460 216 492 323 q 523 430 523 529 l 523 529 q 523 591 513 629 q 502 666 474 685 q 446 704 395 704 l 395 704 q 318 704 252 673 q 186 641 147 583 q 107 524 107 447 l 107 447 q 107 420 112 408 q 117 395 117 393 l 117 393 q 67 393 42 413 q 16 433 16 477 l 16 477 q 16 546 73 609 q 129 672 223 711 q 316 750 419 750 l 419 750"},"Ȍ":{"x_min":16,"x_max":656,"ha":665,"o":"m 330 811 l 189 1000 l 294 1000 l 385 811 l 330 811 m 492 811 l 351 1000 l 456 1000 l 547 811 l 492 811 m 287 -6 q 203 -6 156 42 q 108 90 108 195 l 108 195 q 108 284 140 395 q 172 506 234 585 q 295 664 379 664 l 379 664 q 409 664 431 656 l 431 656 q 387 630 347 549 q 306 468 281 368 q 256 268 256 191 l 256 191 q 256 137 270 106 q 284 75 314 75 l 314 75 q 363 75 412 146 q 460 216 492 323 q 523 430 523 529 l 523 529 q 523 591 513 629 q 502 666 474 685 q 446 704 395 704 l 395 704 q 318 704 252 673 q 186 641 147 583 q 107 524 107 447 l 107 447 q 107 420 112 408 q 117 395 117 393 l 117 393 q 67 393 42 413 q 16 433 16 477 l 16 477 q 16 546 73 609 q 129 672 223 711 q 316 750 419 750 l 419 750 q 544 750 600 682 q 656 614 656 494 l 656 494 q 656 387 616 271 q 576 155 493 75 q 409 -6 287 -6 l 287 -6"},"Ö":{"x_min":16,"x_max":656,"ha":665,"o":"m 349 823 q 323 823 306 841 q 288 858 288 884 l 288 884 q 288 909 306 927 q 323 945 349 945 l 349 945 q 374 945 392 927 q 410 909 410 884 l 410 884 q 410 858 392 841 q 374 823 349 823 l 349 823 m 529 823 q 503 823 486 841 q 468 858 468 884 l 468 884 q 468 909 486 927 q 503 945 529 945 l 529 945 q 554 945 572 927 q 590 909 590 884 l 590 884 q 590 858 572 841 q 554 823 529 823 l 529 823 m 287 -6 q 203 -6 156 42 q 108 90 108 195 l 108 195 q 108 284 140 395 q 172 506 234 585 q 295 664 379 664 l 379 664 q 409 664 431 656 l 431 656 q 387 630 347 549 q 306 468 281 368 q 256 268 256 191 l 256 191 q 256 137 270 106 q 284 75 314 75 l 314 75 q 363 75 412 146 q 460 216 492 323 q 523 430 523 529 l 523 529 q 523 591 513 629 q 502 666 474 685 q 446 704 395 704 l 395 704 q 318 704 252 673 q 186 641 147 583 q 107 524 107 447 l 107 447 q 107 420 112 408 q 117 395 117 393 l 117 393 q 67 393 42 413 q 16 433 16 477 l 16 477 q 16 546 73 609 q 129 672 223 711 q 316 750 419 750 l 419 750 q 544 750 600 682 q 656 614 656 494 l 656 494 q 656 387 616 271 q 576 155 493 75 q 409 -6 287 -6 l 287 -6"},"Ọ":{"x_min":16,"x_max":656,"ha":665,"o":"m 287 -6 q 203 -6 156 42 q 108 90 108 195 l 108 195 q 108 284 140 395 q 172 506 234 585 q 295 664 379 664 l 379 664 q 409 664 431 656 l 431 656 q 387 630 347 549 q 306 468 281 368 q 256 268 256 191 l 256 191 q 256 137 270 106 q 284 75 314 75 l 314 75 q 363 75 412 146 q 460 216 492 323 q 523 430 523 529 l 523 529 q 523 591 513 629 q 502 666 474 685 q 446 704 395 704 l 395 704 q 318 704 252 673 q 186 641 147 583 q 107 524 107 447 l 107 447 q 107 420 112 408 q 117 395 117 393 l 117 393 q 67 393 42 413 q 16 433 16 477 l 16 477 q 16 546 73 609 q 129 672 223 711 q 316 750 419 750 l 419 750 q 544 750 600 682 q 656 614 656 494 l 656 494 q 656 387 616 271 q 576 155 493 75 q 409 -6 287 -6 l 287 -6 m 260 -231 q 227 -231 204 -208 q 181 -185 181 -152 l 181 -152 q 181 -119 204 -95 q 227 -72 260 -72 l 260 -72 q 293 -72 317 -95 q 340 -119 340 -152 l 340 -152 q 340 -185 317 -208 q 293 -231 260 -231 l 260 -231"},"Ò":{"x_min":16,"x_max":656,"ha":665,"o":"m 361 811 l 302 1000 l 407 1000 l 436 811 l 361 811 m 287 -6 q 203 -6 156 42 q 108 90 108 195 l 108 195 q 108 284 140 395 q 172 506 234 585 q 295 664 379 664 l 379 664 q 409 664 431 656 l 431 656 q 387 630 347 549 q 306 468 281 368 q 256 268 256 191 l 256 191 q 256 137 270 106 q 284 75 314 75 l 314 75 q 363 75 412 146 q 460 216 492 323 q 523 430 523 529 l 523 529 q 523 591 513 629 q 502 666 474 685 q 446 704 395 704 l 395 704 q 318 704 252 673 q 186 641 147 583 q 107 524 107 447 l 107 447 q 107 420 112 408 q 117 395 117 393 l 117 393 q 67 393 42 413 q 16 433 16 477 l 16 477 q 16 546 73 609 q 129 672 223 711 q 316 750 419 750 l 419 750 q 544 750 600 682 q 656 614 656 494 l 656 494 q 656 387 616 271 q 576 155 493 75 q 409 -6 287 -6 l 287 -6"},"Ỏ":{"x_min":16,"x_max":656,"ha":665,"o":"m 473 792 l 426 794 l 426 882 q 451 877 471 877 l 471 877 q 493 877 506 887 q 518 896 518 913 l 518 913 q 518 949 471 949 l 471 949 q 436 949 411 933 l 411 933 l 385 975 q 402 986 429 993 q 456 1000 482 1000 l 482 1000 q 528 1000 557 978 q 586 955 586 919 l 586 919 q 586 884 557 861 q 527 837 480 833 l 480 833 l 473 792 m 287 -6 q 203 -6 156 42 q 108 90 108 195 l 108 195 q 108 284 140 395 q 172 506 234 585 q 295 664 379 664 l 379 664 q 409 664 431 656 l 431 656 q 387 630 347 549 q 306 468 281 368 q 256 268 256 191 l 256 191 q 256 137 270 106 q 284 75 314 75 l 314 75 q 363 75 412 146 q 460 216 492 323 q 523 430 523 529 l 523 529 q 523 591 513 629 q 502 666 474 685 q 446 704 395 704 l 395 704 q 318 704 252 673 q 186 641 147 583 q 107 524 107 447 l 107 447 q 107 420 112 408 q 117 395 117 393 l 117 393 q 67 393 42 413 q 16 433 16 477 l 16 477 q 16 546 73 609 q 129 672 223 711 q 316 750 419 750 l 419 750 q 544 750 600 682 q 656 614 656 494 l 656 494 q 656 387 616 271 q 576 155 493 75 q 409 -6 287 -6 l 287 -6"},"Ơ":{"x_min":16,"x_max":724,"ha":665,"o":"m 724 837 q 724 789 694 737 q 664 685 619 655 l 619 655 q 656 594 656 494 l 656 494 q 656 387 616 271 q 576 155 493 75 q 409 -6 287 -6 l 287 -6 q 203 -6 156 42 q 108 90 108 195 l 108 195 q 108 284 140 395 q 172 506 234 585 q 295 664 379 664 l 379 664 q 409 664 431 656 l 431 656 q 387 630 347 549 q 306 468 281 368 q 256 268 256 191 l 256 191 q 256 137 270 106 q 284 75 314 75 l 314 75 q 363 75 412 146 q 460 216 492 323 q 523 430 523 529 l 523 529 q 523 591 513 629 q 502 666 474 685 q 446 704 395 704 l 395 704 q 318 704 252 673 q 186 641 147 583 q 107 524 107 447 l 107 447 q 107 420 112 408 q 117 395 117 393 l 117 393 q 67 393 42 413 q 16 433 16 477 l 16 477 q 16 546 73 609 q 129 672 223 711 q 316 750 419 750 l 419 750 q 521 750 581 701 l 581 701 q 609 718 620 746 q 631 773 631 810 l 631 810 q 631 838 625 863 l 625 863 q 657 884 684 884 l 684 884 q 724 884 724 837 l 724 837"},"Ớ":{"x_min":16,"x_max":724,"ha":665,"o":"m 593 1000 l 472 811 l 397 811 l 488 1000 l 593 1000 m 724 837 q 724 789 694 737 q 664 685 619 655 l 619 655 q 656 594 656 494 l 656 494 q 656 387 616 271 q 576 155 493 75 q 409 -6 287 -6 l 287 -6 q 203 -6 156 42 q 108 90 108 195 l 108 195 q 108 284 140 395 q 172 506 234 585 q 295 664 379 664 l 379 664 q 409 664 431 656 l 431 656 q 387 630 347 549 q 306 468 281 368 q 256 268 256 191 l 256 191 q 256 137 270 106 q 284 75 314 75 l 314 75 q 363 75 412 146 q 460 216 492 323 q 523 430 523 529 l 523 529 q 523 591 513 629 q 502 666 474 685 q 446 704 395 704 l 395 704 q 318 704 252 673 q 186 641 147 583 q 107 524 107 447 l 107 447 q 107 420 112 408 q 117 395 117 393 l 117 393 q 67 393 42 413 q 16 433 16 477 l 16 477 q 16 546 73 609 q 129 672 223 711 q 316 750 419 750 l 419 750 q 521 750 581 701 l 581 701 q 609 718 620 746 q 631 773 631 810 l 631 810 q 631 838 625 863 l 625 863 q 657 884 684 884 l 684 884 q 724 884 724 837 l 724 837"},"Ợ":{"x_min":16,"x_max":724,"ha":665,"o":"m 724 837 q 724 789 694 737 q 664 685 619 655 l 619 655 q 656 594 656 494 l 656 494 q 656 387 616 271 q 576 155 493 75 q 409 -6 287 -6 l 287 -6 q 203 -6 156 42 q 108 90 108 195 l 108 195 q 108 284 140 395 q 172 506 234 585 q 295 664 379 664 l 379 664 q 409 664 431 656 l 431 656 q 387 630 347 549 q 306 468 281 368 q 256 268 256 191 l 256 191 q 256 137 270 106 q 284 75 314 75 l 314 75 q 363 75 412 146 q 460 216 492 323 q 523 430 523 529 l 523 529 q 523 591 513 629 q 502 666 474 685 q 446 704 395 704 l 395 704 q 318 704 252 673 q 186 641 147 583 q 107 524 107 447 l 107 447 q 107 420 112 408 q 117 395 117 393 l 117 393 q 67 393 42 413 q 16 433 16 477 l 16 477 q 16 546 73 609 q 129 672 223 711 q 316 750 419 750 l 419 750 q 521 750 581 701 l 581 701 q 609 718 620 746 q 631 773 631 810 l 631 810 q 631 838 625 863 l 625 863 q 657 884 684 884 l 684 884 q 724 884 724 837 l 724 837 m 260 -72 q 293 -72 317 -95 q 340 -119 340 -152 l 340 -152 q 340 -185 317 -208 q 293 -231 260 -231 l 260 -231 q 227 -231 204 -208 q 181 -185 181 -152 l 181 -152 q 181 -119 204 -95 q 227 -72 260 -72 l 260 -72"},"Ờ":{"x_min":16,"x_max":724,"ha":665,"o":"m 436 811 l 361 811 l 302 1000 l 407 1000 l 436 811 m 724 837 q 724 789 694 737 q 664 685 619 655 l 619 655 q 656 594 656 494 l 656 494 q 656 387 616 271 q 576 155 493 75 q 409 -6 287 -6 l 287 -6 q 203 -6 156 42 q 108 90 108 195 l 108 195 q 108 284 140 395 q 172 506 234 585 q 295 664 379 664 l 379 664 q 409 664 431 656 l 431 656 q 387 630 347 549 q 306 468 281 368 q 256 268 256 191 l 256 191 q 256 137 270 106 q 284 75 314 75 l 314 75 q 363 75 412 146 q 460 216 492 323 q 523 430 523 529 l 523 529 q 523 591 513 629 q 502 666 474 685 q 446 704 395 704 l 395 704 q 318 704 252 673 q 186 641 147 583 q 107 524 107 447 l 107 447 q 107 420 112 408 q 117 395 117 393 l 117 393 q 67 393 42 413 q 16 433 16 477 l 16 477 q 16 546 73 609 q 129 672 223 711 q 316 750 419 750 l 419 750 q 521 750 581 701 l 581 701 q 609 718 620 746 q 631 773 631 810 l 631 810 q 631 838 625 863 l 625 863 q 657 884 684 884 l 684 884 q 724 884 724 837 l 724 837"},"Ở":{"x_min":16,"x_max":724,"ha":665,"o":"m 471 949 q 436 949 411 933 l 411 933 l 385 975 q 402 986 429 993 q 456 1000 482 1000 l 482 1000 q 528 1000 557 978 q 586 955 586 919 l 586 919 q 586 884 557 861 q 527 837 480 833 l 480 833 l 473 792 l 426 794 l 426 882 q 451 877 471 877 l 471 877 q 493 877 506 887 q 518 896 518 913 l 518 913 q 518 949 471 949 l 471 949 m 724 837 q 724 789 694 737 q 664 685 619 655 l 619 655 q 656 594 656 494 l 656 494 q 656 387 616 271 q 576 155 493 75 q 409 -6 287 -6 l 287 -6 q 203 -6 156 42 q 108 90 108 195 l 108 195 q 108 284 140 395 q 172 506 234 585 q 295 664 379 664 l 379 664 q 409 664 431 656 l 431 656 q 387 630 347 549 q 306 468 281 368 q 256 268 256 191 l 256 191 q 256 137 270 106 q 284 75 314 75 l 314 75 q 363 75 412 146 q 460 216 492 323 q 523 430 523 529 l 523 529 q 523 591 513 629 q 502 666 474 685 q 446 704 395 704 l 395 704 q 318 704 252 673 q 186 641 147 583 q 107 524 107 447 l 107 447 q 107 420 112 408 q 117 395 117 393 l 117 393 q 67 393 42 413 q 16 433 16 477 l 16 477 q 16 546 73 609 q 129 672 223 711 q 316 750 419 750 l 419 750 q 521 750 581 701 l 581 701 q 609 718 620 746 q 631 773 631 810 l 631 810 q 631 838 625 863 l 625 863 q 657 884 684 884 l 684 884 q 724 884 724 837 l 724 837"},"Ỡ":{"x_min":16,"x_max":724,"ha":665,"o":"m 303 856 q 270 856 244 830 l 244 830 l 239 832 q 260 880 298 905 q 336 930 386 930 l 386 930 q 409 930 427 926 q 444 921 468 912 l 468 912 q 506 897 532 897 l 532 897 q 567 897 588 920 l 588 920 l 593 919 q 589 896 568 873 q 546 849 515 834 q 483 819 451 819 l 451 819 q 430 819 412 824 q 394 829 369 839 l 369 839 q 348 847 334 852 q 319 856 303 856 l 303 856 m 724 837 q 724 789 694 737 q 664 685 619 655 l 619 655 q 656 594 656 494 l 656 494 q 656 387 616 271 q 576 155 493 75 q 409 -6 287 -6 l 287 -6 q 203 -6 156 42 q 108 90 108 195 l 108 195 q 108 284 140 395 q 172 506 234 585 q 295 664 379 664 l 379 664 q 409 664 431 656 l 431 656 q 387 630 347 549 q 306 468 281 368 q 256 268 256 191 l 256 191 q 256 137 270 106 q 284 75 314 75 l 314 75 q 363 75 412 146 q 460 216 492 323 q 523 430 523 529 l 523 529 q 523 591 513 629 q 502 666 474 685 q 446 704 395 704 l 395 704 q 318 704 252 673 q 186 641 147 583 q 107 524 107 447 l 107 447 q 107 420 112 408 q 117 395 117 393 l 117 393 q 67 393 42 413 q 16 433 16 477 l 16 477 q 16 546 73 609 q 129 672 223 711 q 316 750 419 750 l 419 750 q 521 750 581 701 l 581 701 q 609 718 620 746 q 631 773 631 810 l 631 810 q 631 838 625 863 l 625 863 q 657 884 684 884 l 684 884 q 724 884 724 837 l 724 837"},"Ő":{"x_min":16,"x_max":729,"ha":665,"o":"m 371 810 l 462 999 l 567 999 l 426 810 l 371 810 m 533 810 l 624 999 l 729 999 l 588 810 l 533 810 m 287 -6 q 203 -6 156 42 q 108 90 108 195 l 108 195 q 108 284 140 395 q 172 506 234 585 q 295 664 379 664 l 379 664 q 409 664 431 656 l 431 656 q 387 630 347 549 q 306 468 281 368 q 256 268 256 191 l 256 191 q 256 137 270 106 q 284 75 314 75 l 314 75 q 363 75 412 146 q 460 216 492 323 q 523 430 523 529 l 523 529 q 523 591 513 629 q 502 666 474 685 q 446 704 395 704 l 395 704 q 318 704 252 673 q 186 641 147 583 q 107 524 107 447 l 107 447 q 107 420 112 408 q 117 395 117 393 l 117 393 q 67 393 42 413 q 16 433 16 477 l 16 477 q 16 546 73 609 q 129 672 223 711 q 316 750 419 750 l 419 750 q 544 750 600 682 q 656 614 656 494 l 656 494 q 656 387 616 271 q 576 155 493 75 q 409 -6 287 -6 l 287 -6"},"Ȏ":{"x_min":16,"x_max":656,"ha":665,"o":"m 290 822 q 295 860 325 892 q 355 924 401 942 q 447 960 500 960 l 500 960 q 575 960 614 925 q 653 890 653 822 l 653 822 l 563 822 q 563 862 543 884 q 522 905 485 905 l 485 905 q 444 905 412 881 q 380 857 375 822 l 375 822 l 290 822 m 287 -6 q 203 -6 156 42 q 108 90 108 195 l 108 195 q 108 284 140 395 q 172 506 234 585 q 295 664 379 664 l 379 664 q 409 664 431 656 l 431 656 q 387 630 347 549 q 306 468 281 368 q 256 268 256 191 l 256 191 q 256 137 270 106 q 284 75 314 75 l 314 75 q 363 75 412 146 q 460 216 492 323 q 523 430 523 529 l 523 529 q 523 591 513 629 q 502 666 474 685 q 446 704 395 704 l 395 704 q 318 704 252 673 q 186 641 147 583 q 107 524 107 447 l 107 447 q 107 420 112 408 q 117 395 117 393 l 117 393 q 67 393 42 413 q 16 433 16 477 l 16 477 q 16 546 73 609 q 129 672 223 711 q 316 750 419 750 l 419 750 q 544 750 600 682 q 656 614 656 494 l 656 494 q 656 387 616 271 q 576 155 493 75 q 409 -6 287 -6 l 287 -6"},"Ō":{"x_min":16,"x_max":656,"ha":665,"o":"m 270 849 l 286 923 l 605 923 l 591 849 l 270 849 m 287 -6 q 203 -6 156 42 q 108 90 108 195 l 108 195 q 108 284 140 395 q 172 506 234 585 q 295 664 379 664 l 379 664 q 409 664 431 656 l 431 656 q 387 630 347 549 q 306 468 281 368 q 256 268 256 191 l 256 191 q 256 137 270 106 q 284 75 314 75 l 314 75 q 363 75 412 146 q 460 216 492 323 q 523 430 523 529 l 523 529 q 523 591 513 629 q 502 666 474 685 q 446 704 395 704 l 395 704 q 318 704 252 673 q 186 641 147 583 q 107 524 107 447 l 107 447 q 107 420 112 408 q 117 395 117 393 l 117 393 q 67 393 42 413 q 16 433 16 477 l 16 477 q 16 546 73 609 q 129 672 223 711 q 316 750 419 750 l 419 750 q 544 750 600 682 q 656 614 656 494 l 656 494 q 656 387 616 271 q 576 155 493 75 q 409 -6 287 -6 l 287 -6"},"Ǫ":{"x_min":16,"x_max":656,"ha":665,"o":"m 426 811 l 351 811 l 292 1000 l 397 1000 l 426 811 m 290 -6 q 273 -21 264 -42 q 254 -64 254 -88 l 254 -88 q 254 -116 270 -132 q 285 -149 310 -149 l 310 -149 q 347 -149 381 -110 l 381 -110 l 398 -133 q 382 -167 346 -190 q 309 -214 271 -214 l 271 -214 q 227 -214 199 -187 q 171 -161 171 -121 l 171 -121 q 171 -54 243 -2 l 243 -2 q 179 9 144 58 q 108 106 108 195 l 108 195 q 108 284 140 395 q 172 506 234 585 q 295 664 379 664 l 379 664 q 409 664 431 656 l 431 656 q 387 630 347 549 q 306 468 281 368 q 256 268 256 191 l 256 191 q 256 137 270 106 q 284 75 314 75 l 314 75 q 363 75 412 146 q 460 216 492 323 q 523 430 523 529 l 523 529 q 523 591 513 629 q 502 666 474 685 q 446 704 395 704 l 395 704 q 318 704 252 673 q 186 641 147 583 q 107 524 107 447 l 107 447 q 107 420 112 408 q 117 395 117 393 l 117 393 q 67 393 42 413 q 16 433 16 477 l 16 477 q 16 546 73 609 q 129 672 223 711 q 316 750 419 750 l 419 750 q 544 750 600 682 q 656 614 656 494 l 656 494 q 656 388 616 272 q 576 156 494 76 q 411 -5 290 -6 l 290 -6"},"Ø":{"x_min":15,"x_max":632,"ha":658,"o":"m 265 -71 l 279 -6 l 277 -6 q 196 -6 150 40 q 104 85 104 183 l 104 183 q 104 266 135 370 q 166 474 226 548 q 285 622 365 622 l 365 622 q 390 622 410 615 l 410 615 l 419 656 q 403 659 381 659 l 381 659 q 306 659 243 630 q 179 600 141 545 q 103 490 103 418 l 103 418 q 103 393 108 382 q 113 370 113 368 l 113 368 q 65 368 40 387 q 15 405 15 446 l 15 446 q 15 511 70 570 q 124 629 214 666 q 304 702 404 702 l 404 702 q 420 702 428 701 l 428 701 l 439 750 l 491 750 l 479 694 q 632 657 632 462 l 632 462 q 632 371 600 271 q 567 170 499 94 q 431 17 332 -1 l 332 -1 l 317 -71 l 265 -71 m 351 88 q 390 117 426 184 q 461 250 483 334 q 504 418 504 495 l 504 495 q 504 549 496 582 q 488 615 466 634 l 466 634 l 351 88 m 295 70 l 409 610 q 368 583 331 508 q 293 432 270 341 q 247 249 247 179 l 247 179 q 247 80 295 70 l 295 70"},"Ǿ":{"x_min":15,"x_max":633,"ha":658,"o":"m 437 811 l 528 1000 l 633 1000 l 512 811 l 437 811 m 265 -71 l 279 -6 l 277 -6 q 196 -6 150 40 q 104 85 104 183 l 104 183 q 104 266 135 370 q 166 474 226 548 q 285 622 365 622 l 365 622 q 390 622 410 615 l 410 615 l 419 656 q 403 659 381 659 l 381 659 q 306 659 243 630 q 179 600 141 545 q 103 490 103 418 l 103 418 q 103 393 108 382 q 113 370 113 368 l 113 368 q 65 368 40 387 q 15 405 15 446 l 15 446 q 15 511 70 570 q 124 629 214 666 q 304 702 404 702 l 404 702 q 420 702 428 701 l 428 701 l 439 750 l 491 750 l 479 694 q 632 657 632 462 l 632 462 q 632 371 600 271 q 567 170 499 94 q 431 17 332 -1 l 332 -1 l 317 -71 l 265 -71 m 351 88 q 390 117 426 184 q 461 250 483 334 q 504 418 504 495 l 504 495 q 504 549 496 582 q 488 615 466 634 l 466 634 l 351 88 m 295 70 l 409 610 q 368 583 331 508 q 293 432 270 341 q 247 249 247 179 l 247 179 q 247 80 295 70 l 295 70"},"Õ":{"x_min":16,"x_max":675,"ha":665,"o":"m 514 819 q 491 819 470 824 q 449 829 422 839 l 422 839 q 399 847 382 852 q 364 856 346 856 l 346 856 q 309 856 280 830 l 280 830 l 274 832 q 298 880 341 905 q 384 930 441 930 l 441 930 q 467 930 488 926 q 508 921 533 912 l 533 912 q 576 897 606 897 l 606 897 q 646 897 669 920 l 669 920 l 675 919 q 670 896 646 873 q 621 849 586 834 q 551 819 514 819 l 514 819 m 287 -6 q 203 -6 156 42 q 108 90 108 195 l 108 195 q 108 284 140 395 q 172 506 234 585 q 295 664 379 664 l 379 664 q 409 664 431 656 l 431 656 q 387 630 347 549 q 306 468 281 368 q 256 268 256 191 l 256 191 q 256 137 270 106 q 284 75 314 75 l 314 75 q 363 75 412 146 q 460 216 492 323 q 523 430 523 529 l 523 529 q 523 591 513 629 q 502 666 474 685 q 446 704 395 704 l 395 704 q 318 704 252 673 q 186 641 147 583 q 107 524 107 447 l 107 447 q 107 420 112 408 q 117 395 117 393 l 117 393 q 67 393 42 413 q 16 433 16 477 l 16 477 q 16 546 73 609 q 129 672 223 711 q 316 750 419 750 l 419 750 q 544 750 600 682 q 656 614 656 494 l 656 494 q 656 387 616 271 q 576 155 493 75 q 409 -6 287 -6 l 287 -6"},"Œ":{"x_min":16,"x_max":914,"ha":846,"o":"m 287 -6 q 203 -6 156 42 q 108 90 108 195 l 108 195 q 108 284 140 395 q 172 506 234 585 q 295 664 379 664 l 379 664 q 409 664 431 656 l 431 656 q 387 630 347 549 q 306 468 281 368 q 256 268 256 191 l 256 191 q 256 137 270 106 q 284 75 314 75 l 314 75 q 363 75 412 146 q 460 216 492 323 q 523 430 523 529 l 523 529 q 523 591 513 629 q 502 666 474 685 q 446 704 395 704 l 395 704 q 318 704 252 673 q 186 641 147 583 q 107 524 107 447 l 107 447 q 107 420 112 408 q 117 395 117 393 l 117 393 q 67 393 42 413 q 16 433 16 477 l 16 477 q 16 546 73 609 q 129 672 223 711 q 316 750 419 750 l 419 750 q 482 750 529 731 l 529 731 q 583 750 658 750 l 658 750 q 682 750 722 745 l 722 745 q 794 738 824 738 l 824 738 q 877 738 914 750 l 914 750 q 911 741 903 711 q 895 680 875 659 q 854 637 819 630 l 819 630 q 788 630 760 635 q 732 640 692 650 l 692 650 q 644 662 612 666 l 612 666 q 656 604 656 494 l 656 494 q 656 462 651 419 l 651 419 l 784 419 l 764 345 l 637 345 q 621 277 592 215 q 563 153 522 106 l 522 106 l 766 106 l 745 0 l 358 0 l 359 2 q 322 -6 287 -6 l 287 -6"},"P":{"x_min":6,"x_max":593,"ha":573,"o":"m 94 0 l 230 636 l 378 656 l 307 322 q 355 326 396 364 q 436 402 459 458 q 482 514 482 568 l 482 568 q 482 628 451 666 q 420 704 358 704 l 358 704 q 236 704 168 640 q 99 576 99 461 l 99 461 q 99 424 106 410 q 113 395 113 393 l 113 393 q 59 393 33 416 q 6 438 6 490 l 6 490 q 6 554 59 615 q 111 675 193 713 q 275 750 357 750 l 357 750 q 436 750 489 723 q 542 696 568 652 q 593 607 593 553 l 593 553 q 593 488 558 426 q 522 364 456 325 q 390 285 304 285 l 304 285 l 299 285 l 238 0 l 94 0"},"Þ":{"x_min":6,"x_max":593,"ha":583,"o":"m 94 0 l 214 562 q 158 533 129 480 q 99 426 99 351 l 99 351 q 99 314 106 300 q 113 285 113 283 l 113 283 q 59 283 33 306 q 6 328 6 380 l 6 380 q 6 428 36 475 q 65 521 115 558 q 165 595 225 616 l 225 616 l 250 730 l 398 750 l 374 640 q 482 634 538 579 q 593 524 593 443 l 593 443 q 593 378 558 316 q 522 254 456 215 q 390 175 304 175 l 304 175 l 275 175 l 238 0 l 94 0 m 283 212 l 297 212 q 348 212 391 250 q 433 288 458 346 q 482 403 482 458 l 482 458 q 482 516 453 554 q 424 592 365 594 l 365 594 l 283 212"},"Q":{"x_min":16,"x_max":656,"ha":665,"o":"m 509 -113 q 468 -113 443 -96 q 418 -80 406 -55 q 393 -31 380 8 l 380 8 q 335 -6 287 -6 l 287 -6 q 203 -6 156 42 q 108 90 108 195 l 108 195 q 108 284 140 395 q 172 506 234 585 q 295 664 379 664 l 379 664 q 409 664 431 656 l 431 656 q 387 630 347 549 q 306 468 281 368 q 256 268 256 191 l 256 191 l 256 173 q 256 156 258 148 l 258 148 q 294 157 320 157 l 320 157 q 365 157 400 130 l 400 130 q 451 196 487 310 q 523 423 523 529 l 523 529 q 523 591 513 629 q 502 666 474 685 q 446 704 395 704 l 395 704 q 318 704 252 673 q 186 641 147 583 q 107 524 107 447 l 107 447 q 107 420 112 408 q 117 395 117 393 l 117 393 q 67 393 42 413 q 16 433 16 477 l 16 477 q 16 546 73 609 q 129 672 223 711 q 316 750 419 750 l 419 750 q 544 750 600 682 q 656 614 656 494 l 656 494 q 656 420 635 336 q 614 251 571 175 q 528 99 465 52 l 465 52 q 491 13 519 -8 q 547 -29 590 -29 l 590 -29 q 596 -29 612 -27 l 612 -27 q 593 -76 569 -94 q 544 -113 509 -113 l 509 -113 m 314 75 q 336 75 352 86 l 352 86 q 332 120 295 120 l 295 120 q 279 120 266 116 l 266 116 q 280 75 314 75 l 314 75"},"R":{"x_min":6,"x_max":584,"ha":601,"o":"m 436 -17 q 358 -17 358 50 l 358 50 q 358 72 365 101 q 371 129 383 174 l 383 174 q 397 221 404 254 q 411 287 411 313 l 411 313 q 411 381 351 381 l 351 381 q 335 381 318 377 l 318 377 l 238 0 l 94 0 l 230 636 l 378 656 l 329 425 l 337 425 q 376 425 409 452 q 442 479 461 520 q 479 560 479 599 l 479 599 q 479 645 452 675 q 424 704 369 704 l 369 704 q 288 704 227 675 q 166 646 133 591 q 99 536 99 461 l 99 461 q 99 424 106 410 q 113 395 113 393 l 113 393 q 59 393 33 416 q 6 438 6 490 l 6 490 q 6 554 59 615 q 111 675 193 713 q 275 750 357 750 l 357 750 q 432 750 483 728 q 534 706 559 670 q 584 633 584 590 l 584 590 q 584 543 555 496 q 526 449 476 419 l 476 419 q 514 408 530 383 q 545 357 545 319 l 545 319 q 545 290 538 258 q 531 225 518 177 l 518 177 q 510 146 503 116 q 496 86 496 66 l 496 66 q 496 43 507 25 q 517 7 535 0 l 535 0 q 474 -17 436 -17 l 436 -17"},"Ŕ":{"x_min":6,"x_max":584,"ha":601,"o":"m 369 811 l 460 1000 l 565 1000 l 444 811 l 369 811 m 436 -17 q 358 -17 358 50 l 358 50 q 358 72 365 101 q 371 129 383 174 l 383 174 q 397 221 404 254 q 411 287 411 313 l 411 313 q 411 381 351 381 l 351 381 q 335 381 318 377 l 318 377 l 238 0 l 94 0 l 230 636 l 378 656 l 329 425 l 337 425 q 376 425 409 452 q 442 479 461 520 q 479 560 479 599 l 479 599 q 479 645 452 675 q 424 704 369 704 l 369 704 q 288 704 227 675 q 166 646 133 591 q 99 536 99 461 l 99 461 q 99 424 106 410 q 113 395 113 393 l 113 393 q 59 393 33 416 q 6 438 6 490 l 6 490 q 6 554 59 615 q 111 675 193 713 q 275 750 357 750 l 357 750 q 432 750 483 728 q 534 706 559 670 q 584 633 584 590 l 584 590 q 584 543 555 496 q 526 449 476 419 l 476 419 q 514 408 530 383 q 545 357 545 319 l 545 319 q 545 290 538 258 q 531 225 518 177 l 518 177 q 510 146 503 116 q 496 86 496 66 l 496 66 q 496 43 507 25 q 517 7 535 0 l 535 0 q 474 -17 436 -17 l 436 -17"},"Ř":{"x_min":6,"x_max":636,"ha":601,"o":"m 403 811 l 343 1000 l 375 1000 l 435 920 l 592 1000 l 636 1000 l 424 811 l 403 811 m 436 -17 q 358 -17 358 50 l 358 50 q 358 72 365 101 q 371 129 383 174 l 383 174 q 397 221 404 254 q 411 287 411 313 l 411 313 q 411 381 351 381 l 351 381 q 335 381 318 377 l 318 377 l 238 0 l 94 0 l 230 636 l 378 656 l 329 425 l 337 425 q 376 425 409 452 q 442 479 461 520 q 479 560 479 599 l 479 599 q 479 645 452 675 q 424 704 369 704 l 369 704 q 288 704 227 675 q 166 646 133 591 q 99 536 99 461 l 99 461 q 99 424 106 410 q 113 395 113 393 l 113 393 q 59 393 33 416 q 6 438 6 490 l 6 490 q 6 554 59 615 q 111 675 193 713 q 275 750 357 750 l 357 750 q 432 750 483 728 q 534 706 559 670 q 584 633 584 590 l 584 590 q 584 543 555 496 q 526 449 476 419 l 476 419 q 514 408 530 383 q 545 357 545 319 l 545 319 q 545 290 538 258 q 531 225 518 177 l 518 177 q 510 146 503 116 q 496 86 496 66 l 496 66 q 496 43 507 25 q 517 7 535 0 l 535 0 q 474 -17 436 -17 l 436 -17"},"Ŗ":{"x_min":6,"x_max":584,"ha":601,"o":"m 436 -17 q 358 -17 358 50 l 358 50 q 358 72 365 101 q 371 129 383 174 l 383 174 q 397 221 404 254 q 411 287 411 313 l 411 313 q 411 381 351 381 l 351 381 q 335 381 318 377 l 318 377 l 238 0 l 94 0 l 230 636 l 378 656 l 329 425 l 337 425 q 376 425 409 452 q 442 479 461 520 q 479 560 479 599 l 479 599 q 479 645 452 675 q 424 704 369 704 l 369 704 q 288 704 227 675 q 166 646 133 591 q 99 536 99 461 l 99 461 q 99 424 106 410 q 113 395 113 393 l 113 393 q 59 393 33 416 q 6 438 6 490 l 6 490 q 6 554 59 615 q 111 675 193 713 q 275 750 357 750 l 357 750 q 432 750 483 728 q 534 706 559 670 q 584 633 584 590 l 584 590 q 584 543 555 496 q 526 449 476 419 l 476 419 q 514 408 530 383 q 545 357 545 319 l 545 319 q 545 290 538 258 q 531 225 518 177 l 518 177 q 510 146 503 116 q 496 86 496 66 l 496 66 q 496 43 507 25 q 517 7 535 0 l 535 0 q 474 -17 436 -17 l 436 -17 m 252 -249 l 232 -229 q 251 -208 259 -197 q 266 -186 266 -177 l 266 -177 q 266 -170 261 -162 q 256 -155 250 -149 l 250 -149 q 240 -139 235 -130 q 230 -122 230 -111 l 230 -111 q 230 -91 246 -77 q 261 -64 286 -64 l 286 -64 q 310 -64 325 -79 q 339 -94 339 -119 l 339 -119 q 339 -152 315 -188 q 290 -225 252 -249 l 252 -249"},"Ȑ":{"x_min":6,"x_max":584,"ha":601,"o":"m 257 811 l 116 1000 l 221 1000 l 313 811 l 257 811 m 419 811 l 278 1000 l 383 1000 l 474 811 l 419 811 m 436 -17 q 358 -17 358 50 l 358 50 q 358 72 365 101 q 371 129 383 174 l 383 174 q 397 221 404 254 q 411 287 411 313 l 411 313 q 411 381 351 381 l 351 381 q 335 381 318 377 l 318 377 l 238 0 l 94 0 l 230 636 l 378 656 l 329 425 l 337 425 q 376 425 409 452 q 442 479 461 520 q 479 560 479 599 l 479 599 q 479 645 452 675 q 424 704 369 704 l 369 704 q 288 704 227 675 q 166 646 133 591 q 99 536 99 461 l 99 461 q 99 424 106 410 q 113 395 113 393 l 113 393 q 59 393 33 416 q 6 438 6 490 l 6 490 q 6 554 59 615 q 111 675 193 713 q 275 750 357 750 l 357 750 q 432 750 483 728 q 534 706 559 670 q 584 633 584 590 l 584 590 q 584 543 555 496 q 526 449 476 419 l 476 419 q 514 408 530 383 q 545 357 545 319 l 545 319 q 545 290 538 258 q 531 225 518 177 l 518 177 q 510 146 503 116 q 496 86 496 66 l 496 66 q 496 43 507 25 q 517 7 535 0 l 535 0 q 474 -17 436 -17 l 436 -17"},"Ṛ":{"x_min":6,"x_max":584,"ha":601,"o":"m 436 -17 q 358 -17 358 50 l 358 50 q 358 72 365 101 q 371 129 383 174 l 383 174 q 397 221 404 254 q 411 287 411 313 l 411 313 q 411 381 351 381 l 351 381 q 335 381 318 377 l 318 377 l 238 0 l 94 0 l 230 636 l 378 656 l 329 425 l 337 425 q 376 425 409 452 q 442 479 461 520 q 479 560 479 599 l 479 599 q 479 645 452 675 q 424 704 369 704 l 369 704 q 288 704 227 675 q 166 646 133 591 q 99 536 99 461 l 99 461 q 99 424 106 410 q 113 395 113 393 l 113 393 q 59 393 33 416 q 6 438 6 490 l 6 490 q 6 554 59 615 q 111 675 193 713 q 275 750 357 750 l 357 750 q 432 750 483 728 q 534 706 559 670 q 584 633 584 590 l 584 590 q 584 543 555 496 q 526 449 476 419 l 476 419 q 514 408 530 383 q 545 357 545 319 l 545 319 q 545 290 538 258 q 531 225 518 177 l 518 177 q 510 146 503 116 q 496 86 496 66 l 496 66 q 496 43 507 25 q 517 7 535 0 l 535 0 q 474 -17 436 -17 l 436 -17 m 285 -231 q 252 -231 229 -208 q 206 -185 206 -152 l 206 -152 q 206 -119 229 -95 q 252 -72 285 -72 l 285 -72 q 318 -72 342 -95 q 365 -119 365 -152 l 365 -152 q 365 -185 342 -208 q 318 -231 285 -231 l 285 -231"},"Ȓ":{"x_min":6,"x_max":584,"ha":601,"o":"m 202 822 q 207 860 237 892 q 267 924 314 942 q 360 960 413 960 l 413 960 q 487 960 526 925 q 565 889 565 822 l 565 822 l 476 822 q 476 862 456 884 q 435 905 397 905 l 397 905 q 356 905 325 881 q 293 857 288 822 l 288 822 l 202 822 m 436 -17 q 358 -17 358 50 l 358 50 q 358 72 365 101 q 371 129 383 174 l 383 174 q 397 221 404 254 q 411 287 411 313 l 411 313 q 411 381 351 381 l 351 381 q 335 381 318 377 l 318 377 l 238 0 l 94 0 l 230 636 l 378 656 l 329 425 l 337 425 q 376 425 409 452 q 442 479 461 520 q 479 560 479 599 l 479 599 q 479 645 452 675 q 424 704 369 704 l 369 704 q 288 704 227 675 q 166 646 133 591 q 99 536 99 461 l 99 461 q 99 424 106 410 q 113 395 113 393 l 113 393 q 59 393 33 416 q 6 438 6 490 l 6 490 q 6 554 59 615 q 111 675 193 713 q 275 750 357 750 l 357 750 q 432 750 483 728 q 534 706 559 670 q 584 633 584 590 l 584 590 q 584 543 555 496 q 526 449 476 419 l 476 419 q 514 408 530 383 q 545 357 545 319 l 545 319 q 545 290 538 258 q 531 225 518 177 l 518 177 q 510 146 503 116 q 496 86 496 66 l 496 66 q 496 43 507 25 q 517 7 535 0 l 535 0 q 474 -17 436 -17 l 436 -17"},"S":{"x_min":34,"x_max":553,"ha":570,"o":"m 245 -18 q 182 -18 134 4 q 86 26 60 66 q 34 105 34 157 l 34 157 q 34 201 53 237 q 71 273 103 294 q 134 315 172 315 l 172 315 q 207 315 231 298 q 255 280 261 249 l 261 249 q 209 249 178 222 q 147 194 147 147 l 147 147 q 147 104 173 78 q 199 52 242 52 l 242 52 q 295 52 330 88 q 364 123 364 177 l 364 177 q 364 224 338 266 q 312 308 260 368 l 260 368 q 206 430 179 475 q 151 519 151 572 l 151 572 q 151 624 180 666 q 209 707 260 731 q 311 755 375 755 l 375 755 q 456 755 505 717 q 553 679 553 615 l 553 615 q 553 573 532 547 q 511 521 477 521 l 477 521 q 439 521 416 552 l 416 552 q 435 566 446 589 q 457 612 457 637 l 457 637 q 457 669 438 688 q 419 707 386 707 l 386 707 q 346 707 321 679 q 295 650 295 606 l 295 606 q 295 566 318 532 q 341 497 390 443 l 390 443 q 430 400 455 369 q 479 338 497 298 q 514 257 514 210 l 514 210 q 514 146 479 94 q 443 42 382 12 q 320 -18 245 -18 l 245 -18"},"Ś":{"x_min":34,"x_max":554,"ha":570,"o":"m 358 811 l 449 1000 l 554 1000 l 433 811 l 358 811 m 245 -18 q 182 -18 134 4 q 86 26 60 66 q 34 105 34 157 l 34 157 q 34 201 53 237 q 71 273 103 294 q 134 315 172 315 l 172 315 q 207 315 231 298 q 255 280 261 249 l 261 249 q 209 249 178 222 q 147 194 147 147 l 147 147 q 147 104 173 78 q 199 52 242 52 l 242 52 q 295 52 330 88 q 364 123 364 177 l 364 177 q 364 224 338 266 q 312 308 260 368 l 260 368 q 206 430 179 475 q 151 519 151 572 l 151 572 q 151 624 180 666 q 209 707 260 731 q 311 755 375 755 l 375 755 q 456 755 505 717 q 553 679 553 615 l 553 615 q 553 573 532 547 q 511 521 477 521 l 477 521 q 439 521 416 552 l 416 552 q 435 566 446 589 q 457 612 457 637 l 457 637 q 457 669 438 688 q 419 707 386 707 l 386 707 q 346 707 321 679 q 295 650 295 606 l 295 606 q 295 566 318 532 q 341 497 390 443 l 390 443 q 430 400 455 369 q 479 338 497 298 q 514 257 514 210 l 514 210 q 514 146 479 94 q 443 42 382 12 q 320 -18 245 -18 l 245 -18"},"Š":{"x_min":34,"x_max":640,"ha":570,"o":"m 407 811 l 347 1000 l 379 1000 l 439 920 l 596 1000 l 640 1000 l 428 811 l 407 811 m 245 -18 q 182 -18 134 4 q 86 26 60 66 q 34 105 34 157 l 34 157 q 34 201 53 237 q 71 273 103 294 q 134 315 172 315 l 172 315 q 207 315 231 298 q 255 280 261 249 l 261 249 q 209 249 178 222 q 147 194 147 147 l 147 147 q 147 104 173 78 q 199 52 242 52 l 242 52 q 295 52 330 88 q 364 123 364 177 l 364 177 q 364 224 338 266 q 312 308 260 368 l 260 368 q 206 430 179 475 q 151 519 151 572 l 151 572 q 151 624 180 666 q 209 707 260 731 q 311 755 375 755 l 375 755 q 456 755 505 717 q 553 679 553 615 l 553 615 q 553 573 532 547 q 511 521 477 521 l 477 521 q 439 521 416 552 l 416 552 q 435 566 446 589 q 457 612 457 637 l 457 637 q 457 669 438 688 q 419 707 386 707 l 386 707 q 346 707 321 679 q 295 650 295 606 l 295 606 q 295 566 318 532 q 341 497 390 443 l 390 443 q 430 400 455 369 q 479 338 497 298 q 514 257 514 210 l 514 210 q 514 146 479 94 q 443 42 382 12 q 320 -18 245 -18 l 245 -18"},"Ş":{"x_min":34,"x_max":553,"ha":570,"o":"m 416 552 q 435 566 446 589 q 457 612 457 637 l 457 637 q 457 669 438 688 q 419 707 386 707 l 386 707 q 346 707 321 679 q 295 650 295 606 l 295 606 q 295 566 318 532 q 341 497 390 443 l 390 443 q 430 400 455 369 q 479 338 497 298 q 514 257 514 210 l 514 210 q 514 149 482 99 q 450 49 394 18 q 338 -13 269 -17 l 269 -17 l 249 -66 q 283 -56 302 -56 l 302 -56 q 335 -56 355 -74 q 374 -92 374 -122 l 374 -122 q 374 -150 356 -174 q 338 -198 308 -212 q 277 -226 242 -226 l 242 -226 q 212 -226 186 -214 q 159 -202 142 -180 l 142 -180 l 159 -153 q 173 -167 193 -175 q 212 -183 231 -183 l 231 -183 q 253 -183 267 -171 q 281 -160 281 -142 l 281 -142 q 281 -126 270 -116 q 258 -107 239 -107 l 239 -107 q 214 -107 190 -119 l 190 -119 l 186 -115 l 225 -17 q 138 -12 86 36 q 34 83 34 157 l 34 157 q 34 201 53 237 q 71 273 103 294 q 134 315 172 315 l 172 315 q 207 315 231 298 q 255 280 261 249 l 261 249 q 209 249 178 222 q 147 194 147 147 l 147 147 q 147 104 173 78 q 199 52 242 52 l 242 52 q 295 52 330 88 q 364 123 364 177 l 364 177 q 364 224 338 266 q 312 308 260 368 l 260 368 q 206 430 179 475 q 151 519 151 572 l 151 572 q 151 624 180 666 q 209 707 260 731 q 311 755 375 755 l 375 755 q 456 755 505 717 q 553 679 553 615 l 553 615 q 553 573 532 547 q 511 521 477 521 l 477 521 q 439 521 416 552 l 416 552"},"Ŝ":{"x_min":34,"x_max":553,"ha":570,"o":"m 250 811 l 461 1000 l 482 1000 l 542 811 l 511 811 l 451 891 l 293 811 l 250 811 m 245 -18 q 182 -18 134 4 q 86 26 60 66 q 34 105 34 157 l 34 157 q 34 201 53 237 q 71 273 103 294 q 134 315 172 315 l 172 315 q 207 315 231 298 q 255 280 261 249 l 261 249 q 209 249 178 222 q 147 194 147 147 l 147 147 q 147 104 173 78 q 199 52 242 52 l 242 52 q 295 52 330 88 q 364 123 364 177 l 364 177 q 364 224 338 266 q 312 308 260 368 l 260 368 q 206 430 179 475 q 151 519 151 572 l 151 572 q 151 624 180 666 q 209 707 260 731 q 311 755 375 755 l 375 755 q 456 755 505 717 q 553 679 553 615 l 553 615 q 553 573 532 547 q 511 521 477 521 l 477 521 q 439 521 416 552 l 416 552 q 435 566 446 589 q 457 612 457 637 l 457 637 q 457 669 438 688 q 419 707 386 707 l 386 707 q 346 707 321 679 q 295 650 295 606 l 295 606 q 295 566 318 532 q 341 497 390 443 l 390 443 q 430 400 455 369 q 479 338 497 298 q 514 257 514 210 l 514 210 q 514 146 479 94 q 443 42 382 12 q 320 -18 245 -18 l 245 -18"},"Ș":{"x_min":34,"x_max":553,"ha":570,"o":"m 245 -18 q 182 -18 134 4 q 86 26 60 66 q 34 105 34 157 l 34 157 q 34 201 53 237 q 71 273 103 294 q 134 315 172 315 l 172 315 q 207 315 231 298 q 255 280 261 249 l 261 249 q 209 249 178 222 q 147 194 147 147 l 147 147 q 147 104 173 78 q 199 52 242 52 l 242 52 q 295 52 330 88 q 364 123 364 177 l 364 177 q 364 224 338 266 q 312 308 260 368 l 260 368 q 206 430 179 475 q 151 519 151 572 l 151 572 q 151 624 180 666 q 209 707 260 731 q 311 755 375 755 l 375 755 q 456 755 505 717 q 553 679 553 615 l 553 615 q 553 573 532 547 q 511 521 477 521 l 477 521 q 439 521 416 552 l 416 552 q 435 566 446 589 q 457 612 457 637 l 457 637 q 457 669 438 688 q 419 707 386 707 l 386 707 q 346 707 321 679 q 295 650 295 606 l 295 606 q 295 566 318 532 q 341 497 390 443 l 390 443 q 430 400 455 369 q 479 338 497 298 q 514 257 514 210 l 514 210 q 514 146 479 94 q 443 42 382 12 q 320 -18 245 -18 l 245 -18 m 184 -249 l 164 -229 q 183 -207 191 -196 q 198 -186 198 -177 l 198 -177 q 198 -170 193 -162 q 188 -155 182 -149 l 182 -149 q 172 -139 167 -130 q 162 -122 162 -111 l 162 -111 q 162 -91 178 -77 q 193 -64 218 -64 l 218 -64 q 242 -64 257 -79 q 271 -94 271 -119 l 271 -119 q 271 -152 247 -188 q 222 -225 184 -249 l 184 -249"},"Ṡ":{"x_min":34,"x_max":553,"ha":570,"o":"m 416 822 q 383 822 360 845 q 337 867 337 900 l 337 900 q 337 934 360 957 q 383 980 416 980 l 416 980 q 449 980 473 957 q 496 934 496 900 l 496 900 q 496 867 473 845 q 449 822 416 822 l 416 822 m 245 -18 q 182 -18 134 4 q 86 26 60 66 q 34 105 34 157 l 34 157 q 34 201 53 237 q 71 273 103 294 q 134 315 172 315 l 172 315 q 207 315 231 298 q 255 280 261 249 l 261 249 q 209 249 178 222 q 147 194 147 147 l 147 147 q 147 104 173 78 q 199 52 242 52 l 242 52 q 295 52 330 88 q 364 123 364 177 l 364 177 q 364 224 338 266 q 312 308 260 368 l 260 368 q 206 430 179 475 q 151 519 151 572 l 151 572 q 151 624 180 666 q 209 707 260 731 q 311 755 375 755 l 375 755 q 456 755 505 717 q 553 679 553 615 l 553 615 q 553 573 532 547 q 511 521 477 521 l 477 521 q 439 521 416 552 l 416 552 q 435 566 446 589 q 457 612 457 637 l 457 637 q 457 669 438 688 q 419 707 386 707 l 386 707 q 346 707 321 679 q 295 650 295 606 l 295 606 q 295 566 318 532 q 341 497 390 443 l 390 443 q 430 400 455 369 q 479 338 497 298 q 514 257 514 210 l 514 210 q 514 146 479 94 q 443 42 382 12 q 320 -18 245 -18 l 245 -18"},"Ṣ":{"x_min":34,"x_max":553,"ha":570,"o":"m 245 -18 q 182 -18 134 4 q 86 26 60 66 q 34 105 34 157 l 34 157 q 34 201 53 237 q 71 273 103 294 q 134 315 172 315 l 172 315 q 207 315 231 298 q 255 280 261 249 l 261 249 q 209 249 178 222 q 147 194 147 147 l 147 147 q 147 104 173 78 q 199 52 242 52 l 242 52 q 295 52 330 88 q 364 123 364 177 l 364 177 q 364 224 338 266 q 312 308 260 368 l 260 368 q 206 430 179 475 q 151 519 151 572 l 151 572 q 151 624 180 666 q 209 707 260 731 q 311 755 375 755 l 375 755 q 456 755 505 717 q 553 679 553 615 l 553 615 q 553 573 532 547 q 511 521 477 521 l 477 521 q 439 521 416 552 l 416 552 q 435 566 446 589 q 457 612 457 637 l 457 637 q 457 669 438 688 q 419 707 386 707 l 386 707 q 346 707 321 679 q 295 650 295 606 l 295 606 q 295 566 318 532 q 341 497 390 443 l 390 443 q 430 400 455 369 q 479 338 497 298 q 514 257 514 210 l 514 210 q 514 146 479 94 q 443 42 382 12 q 320 -18 245 -18 l 245 -18 m 202 -231 q 169 -231 146 -208 q 123 -185 123 -152 l 123 -152 q 123 -119 146 -95 q 169 -72 202 -72 l 202 -72 q 235 -72 259 -95 q 282 -119 282 -152 l 282 -152 q 282 -185 259 -208 q 235 -231 202 -231 l 202 -231"},"ẞ":{"x_min":-58,"x_max":600,"ha":559,"o":"m 419 389 q 500 312 500 210 l 500 210 q 500 151 474 99 q 447 47 397 16 q 347 -16 280 -16 l 280 -16 q 232 -16 204 0 q 176 16 176 43 l 176 43 q 176 70 202 86 l 202 86 q 210 75 225 69 q 239 63 257 63 l 257 63 q 306 63 333 105 q 360 146 360 208 l 360 208 q 360 270 335 328 q 310 386 271 401 l 271 401 l 418 694 l 354 694 q 327 694 307 672 q 287 649 268 594 q 248 538 225 434 l 225 434 l 86 -214 l -58 -250 l 77 413 q 103 540 136 613 q 169 686 215 717 q 260 748 326 748 l 326 748 l 600 748 l 419 389"},"Ə":{"x_min":20,"x_max":539,"ha":544,"o":"m 176 -6 q 106 -6 63 35 q 20 76 20 141 l 20 141 q 20 211 71 277 q 122 343 204 384 q 285 425 371 425 l 371 425 q 376 450 376 506 l 376 506 q 376 577 349 611 q 322 645 265 645 l 265 645 q 219 645 183 624 q 147 602 127 561 l 127 561 q 112 573 104 591 q 95 609 95 630 l 95 630 q 95 667 123 698 q 150 728 198 746 q 245 763 303 763 l 303 763 q 416 763 478 693 q 539 622 539 492 l 539 492 q 539 368 487 253 q 435 137 351 66 q 267 -6 176 -6 l 176 -6 m 184 68 q 217 68 251 108 q 285 147 314 218 q 343 288 361 377 l 361 377 q 305 374 255 338 q 204 302 174 247 q 144 191 144 131 l 144 131 q 144 68 184 68 l 184 68"},"T":{"x_min":6,"x_max":719,"ha":481,"o":"m 157 0 l 299 662 l 287 662 q 198 662 149 618 q 99 573 99 460 l 99 460 q 99 423 106 409 q 113 394 113 392 l 113 392 q 59 392 33 415 q 6 437 6 489 l 6 489 q 6 560 41 619 q 76 677 153 713 q 229 749 347 749 l 347 749 q 413 749 489 737 l 489 737 q 553 726 603 726 l 603 726 q 667 726 719 747 l 719 747 q 717 682 686 651 q 655 620 594 620 l 594 620 q 562 620 530 625 q 498 630 439 642 l 439 642 l 301 0 l 157 0"},"Ŧ":{"x_min":6,"x_max":719,"ha":481,"o":"m 603 726 q 667 726 719 747 l 719 747 q 717 682 686 651 q 655 620 594 620 l 594 620 q 562 620 530 625 q 498 630 439 642 l 439 642 l 370 320 l 533 320 l 520 270 l 359 270 l 301 0 l 157 0 l 215 270 l 79 270 l 93 320 l 226 320 l 299 662 l 287 662 q 198 662 149 618 q 99 573 99 460 l 99 460 q 99 423 106 409 q 113 394 113 392 l 113 392 q 59 392 33 415 q 6 437 6 489 l 6 489 q 6 560 41 619 q 76 677 153 713 q 229 749 347 749 l 347 749 q 413 749 489 737 l 489 737 q 553 726 603 726 l 603 726"},"Ť":{"x_min":6,"x_max":719,"ha":481,"o":"m 379 811 l 319 1000 l 351 1000 l 411 920 l 568 1000 l 612 1000 l 400 811 l 379 811 m 157 0 l 299 662 l 287 662 q 198 662 149 618 q 99 573 99 460 l 99 460 q 99 423 106 409 q 113 394 113 392 l 113 392 q 59 392 33 415 q 6 437 6 489 l 6 489 q 6 560 41 619 q 76 677 153 713 q 229 749 347 749 l 347 749 q 413 749 489 737 l 489 737 q 553 726 603 726 l 603 726 q 667 726 719 747 l 719 747 q 717 682 686 651 q 655 620 594 620 l 594 620 q 562 620 530 625 q 498 630 439 642 l 439 642 l 301 0 l 157 0"},"Ţ":{"x_min":6,"x_max":719,"ha":481,"o":"m 603 726 q 667 726 719 747 l 719 747 q 717 682 686 651 q 655 620 594 620 l 594 620 q 562 620 530 625 q 498 630 439 642 l 439 642 l 301 0 l 261 0 l 234 -66 q 268 -56 287 -56 l 287 -56 q 320 -56 340 -74 q 359 -92 359 -122 l 359 -122 q 359 -150 341 -174 q 323 -198 293 -212 q 262 -226 227 -226 l 227 -226 q 197 -226 171 -214 q 144 -202 127 -180 l 127 -180 l 144 -153 q 158 -167 178 -175 q 197 -183 216 -183 l 216 -183 q 238 -183 252 -171 q 266 -160 266 -142 l 266 -142 q 266 -126 255 -116 q 243 -107 224 -107 l 224 -107 q 199 -107 175 -119 l 175 -119 l 171 -115 l 217 0 l 157 0 l 299 662 l 287 662 q 198 662 149 618 q 99 573 99 460 l 99 460 q 99 423 106 409 q 113 394 113 392 l 113 392 q 59 392 33 415 q 6 437 6 489 l 6 489 q 6 560 41 619 q 76 677 153 713 q 229 749 347 749 l 347 749 q 413 749 489 737 l 489 737 q 553 726 603 726 l 603 726"},"Ț":{"x_min":6,"x_max":719,"ha":481,"o":"m 157 0 l 299 662 l 287 662 q 198 662 149 618 q 99 573 99 460 l 99 460 q 99 423 106 409 q 113 394 113 392 l 113 392 q 59 392 33 415 q 6 437 6 489 l 6 489 q 6 560 41 619 q 76 677 153 713 q 229 749 347 749 l 347 749 q 413 749 489 737 l 489 737 q 553 726 603 726 l 603 726 q 667 726 719 747 l 719 747 q 717 682 686 651 q 655 620 594 620 l 594 620 q 562 620 530 625 q 498 630 439 642 l 439 642 l 301 0 l 157 0 m 184 -249 l 164 -229 q 183 -207 191 -196 q 198 -186 198 -177 l 198 -177 q 198 -170 193 -162 q 188 -155 182 -149 l 182 -149 q 172 -139 167 -130 q 162 -122 162 -111 l 162 -111 q 162 -91 178 -77 q 193 -64 218 -64 l 218 -64 q 242 -64 257 -79 q 271 -94 271 -119 l 271 -119 q 271 -152 247 -188 q 222 -225 184 -249 l 184 -249"},"Ṭ":{"x_min":6,"x_max":719,"ha":481,"o":"m 157 0 l 299 662 l 287 662 q 198 662 149 618 q 99 573 99 460 l 99 460 q 99 423 106 409 q 113 394 113 392 l 113 392 q 59 392 33 415 q 6 437 6 489 l 6 489 q 6 560 41 619 q 76 677 153 713 q 229 749 347 749 l 347 749 q 413 749 489 737 l 489 737 q 553 726 603 726 l 603 726 q 667 726 719 747 l 719 747 q 717 682 686 651 q 655 620 594 620 l 594 620 q 562 620 530 625 q 498 630 439 642 l 439 642 l 301 0 l 157 0 m 207 -231 q 174 -231 151 -208 q 128 -185 128 -152 l 128 -152 q 128 -119 151 -95 q 174 -72 207 -72 l 207 -72 q 240 -72 264 -95 q 287 -119 287 -152 l 287 -152 q 287 -185 264 -208 q 240 -231 207 -231 l 207 -231"},"U":{"x_min":-5,"x_max":762,"ha":716,"o":"m 355 -7 q 256 -7 206 42 q 155 90 155 185 l 155 185 q 155 232 169 290 l 169 290 l 271 696 q 185 673 137 615 q 89 556 89 486 l 89 486 q 89 437 115 391 l 115 391 q 58 391 27 419 q -5 447 -5 498 l -5 498 q -5 563 48 623 q 100 682 187 718 q 274 754 371 754 l 371 754 q 405 754 427 749 l 427 749 l 305 287 q 288 224 288 179 l 288 179 q 288 84 366 84 l 366 84 q 478 84 521 290 l 521 290 l 621 752 l 762 752 l 665 290 q 633 143 555 68 q 476 -7 355 -7 l 355 -7"},"Ú":{"x_min":-5,"x_max":756,"ha":716,"o":"m 446 811 l 537 1000 l 642 1000 l 521 811 l 446 811 m 343 -7 q 239 -7 195 33 q 150 73 150 152 l 150 152 q 150 210 166 285 q 181 360 215 492 l 215 492 l 232 560 l 265 692 q 182 670 135 611 q 88 551 88 462 l 88 462 q 88 424 95 410 q 102 396 102 393 l 102 393 q 49 393 22 415 q -5 436 -5 485 l -5 485 q -5 554 49 615 q 102 676 190 713 q 277 750 373 750 l 373 750 q 395 750 421 745 l 421 745 l 377 584 q 322 382 304 305 q 286 228 286 181 l 286 181 q 286 136 302 114 q 318 91 355 91 l 355 91 q 404 91 432 112 q 459 132 486 205 q 512 278 548 439 l 548 439 l 615 748 l 756 748 l 690 436 q 655 268 618 177 q 581 85 517 39 q 453 -7 343 -7 l 343 -7"},"Ŭ":{"x_min":-5,"x_max":756,"ha":716,"o":"m 526 815 q 452 815 413 851 q 374 886 374 954 l 374 954 l 463 954 q 463 914 484 893 q 504 871 542 871 l 542 871 q 583 871 615 895 q 646 919 651 954 l 651 954 l 737 954 q 732 915 702 884 q 672 852 626 834 q 579 815 526 815 l 526 815 m 343 -7 q 239 -7 195 33 q 150 73 150 152 l 150 152 q 150 210 166 285 q 181 360 215 492 l 215 492 l 232 560 l 265 692 q 182 670 135 611 q 88 551 88 462 l 88 462 q 88 424 95 410 q 102 396 102 393 l 102 393 q 49 393 22 415 q -5 436 -5 485 l -5 485 q -5 554 49 615 q 102 676 190 713 q 277 750 373 750 l 373 750 q 395 750 421 745 l 421 745 l 377 584 q 322 382 304 305 q 286 228 286 181 l 286 181 q 286 136 302 114 q 318 91 355 91 l 355 91 q 404 91 432 112 q 459 132 486 205 q 512 278 548 439 l 548 439 l 615 748 l 756 748 l 690 436 q 655 268 618 177 q 581 85 517 39 q 453 -7 343 -7 l 343 -7"},"Ǔ":{"x_min":-5,"x_max":756,"ha":716,"o":"m 521 811 l 460 1000 l 492 1000 l 552 920 l 709 1000 l 753 1000 l 542 811 l 521 811 m 343 -7 q 239 -7 195 33 q 150 73 150 152 l 150 152 q 150 210 166 285 q 181 360 215 492 l 215 492 l 232 560 l 265 692 q 182 670 135 611 q 88 551 88 462 l 88 462 q 88 424 95 410 q 102 396 102 393 l 102 393 q 49 393 22 415 q -5 436 -5 485 l -5 485 q -5 554 49 615 q 102 676 190 713 q 277 750 373 750 l 373 750 q 395 750 421 745 l 421 745 l 377 584 q 322 382 304 305 q 286 228 286 181 l 286 181 q 286 136 302 114 q 318 91 355 91 l 355 91 q 404 91 432 112 q 459 132 486 205 q 512 278 548 439 l 548 439 l 615 748 l 756 748 l 690 436 q 655 268 618 177 q 581 85 517 39 q 453 -7 343 -7 l 343 -7"},"Û":{"x_min":-5,"x_max":756,"ha":716,"o":"m 358 811 l 570 1000 l 591 1000 l 651 811 l 619 811 l 559 891 l 402 811 l 358 811 m 343 -7 q 239 -7 195 33 q 150 73 150 152 l 150 152 q 150 210 166 285 q 181 360 215 492 l 215 492 l 232 560 l 265 692 q 182 670 135 611 q 88 551 88 462 l 88 462 q 88 424 95 410 q 102 396 102 393 l 102 393 q 49 393 22 415 q -5 436 -5 485 l -5 485 q -5 554 49 615 q 102 676 190 713 q 277 750 373 750 l 373 750 q 395 750 421 745 l 421 745 l 377 584 q 322 382 304 305 q 286 228 286 181 l 286 181 q 286 136 302 114 q 318 91 355 91 l 355 91 q 404 91 432 112 q 459 132 486 205 q 512 278 548 439 l 548 439 l 615 748 l 756 748 l 690 436 q 655 268 618 177 q 581 85 517 39 q 453 -7 343 -7 l 343 -7"},"Ȕ":{"x_min":-5,"x_max":756,"ha":716,"o":"m 414 811 l 272 1000 l 377 1000 l 469 811 l 414 811 m 576 811 l 435 1000 l 540 1000 l 630 811 l 576 811 m 343 -7 q 239 -7 195 33 q 150 73 150 152 l 150 152 q 150 210 166 285 q 181 360 215 492 l 215 492 l 232 560 l 265 692 q 182 670 135 611 q 88 551 88 462 l 88 462 q 88 424 95 410 q 102 396 102 393 l 102 393 q 49 393 22 415 q -5 436 -5 485 l -5 485 q -5 554 49 615 q 102 676 190 713 q 277 750 373 750 l 373 750 q 395 750 421 745 l 421 745 l 377 584 q 322 382 304 305 q 286 228 286 181 l 286 181 q 286 136 302 114 q 318 91 355 91 l 355 91 q 404 91 432 112 q 459 132 486 205 q 512 278 548 439 l 548 439 l 615 748 l 756 748 l 690 436 q 655 268 618 177 q 581 85 517 39 q 453 -7 343 -7 l 343 -7"},"Ü":{"x_min":-5,"x_max":756,"ha":716,"o":"m 439 823 q 413 823 396 841 q 378 858 378 884 l 378 884 q 378 909 396 927 q 413 945 439 945 l 439 945 q 464 945 482 927 q 500 909 500 884 l 500 884 q 500 858 482 841 q 464 823 439 823 l 439 823 m 619 823 q 593 823 576 841 q 558 858 558 884 l 558 884 q 558 909 576 927 q 593 945 619 945 l 619 945 q 644 945 662 927 q 680 909 680 884 l 680 884 q 680 858 662 841 q 644 823 619 823 l 619 823 m 343 -7 q 239 -7 195 33 q 150 73 150 152 l 150 152 q 150 210 166 285 q 181 360 215 492 l 215 492 l 232 560 l 265 692 q 182 670 135 611 q 88 551 88 462 l 88 462 q 88 424 95 410 q 102 396 102 393 l 102 393 q 49 393 22 415 q -5 436 -5 485 l -5 485 q -5 554 49 615 q 102 676 190 713 q 277 750 373 750 l 373 750 q 395 750 421 745 l 421 745 l 377 584 q 322 382 304 305 q 286 228 286 181 l 286 181 q 286 136 302 114 q 318 91 355 91 l 355 91 q 404 91 432 112 q 459 132 486 205 q 512 278 548 439 l 548 439 l 615 748 l 756 748 l 690 436 q 655 268 618 177 q 581 85 517 39 q 453 -7 343 -7 l 343 -7"},"Ǘ":{"x_min":-5,"x_max":758,"ha":716,"o":"m 461 811 l 552 1000 l 657 1000 l 536 811 l 461 811 m 390 823 q 364 823 347 841 q 329 858 329 884 l 329 884 q 329 909 347 927 q 364 945 390 945 l 390 945 q 415 945 433 927 q 451 909 451 884 l 451 884 q 451 858 433 841 q 415 823 390 823 l 390 823 m 697 823 q 671 823 654 841 q 636 858 636 884 l 636 884 q 636 909 654 927 q 671 945 697 945 l 697 945 q 722 945 740 927 q 758 909 758 884 l 758 884 q 758 858 740 841 q 722 823 697 823 l 697 823 m 343 -7 q 239 -7 195 33 q 150 73 150 152 l 150 152 q 150 210 166 285 q 181 360 215 492 l 215 492 l 232 560 l 265 692 q 182 670 135 611 q 88 551 88 462 l 88 462 q 88 424 95 410 q 102 396 102 393 l 102 393 q 49 393 22 415 q -5 436 -5 485 l -5 485 q -5 554 49 615 q 102 676 190 713 q 277 750 373 750 l 373 750 q 395 750 421 745 l 421 745 l 377 584 q 322 382 304 305 q 286 228 286 181 l 286 181 q 286 136 302 114 q 318 91 355 91 l 355 91 q 404 91 432 112 q 459 132 486 205 q 512 278 548 439 l 548 439 l 615 748 l 756 748 l 690 436 q 655 268 618 177 q 581 85 517 39 q 453 -7 343 -7 l 343 -7"},"Ǚ":{"x_min":-5,"x_max":758,"ha":716,"o":"m 499 833 l 446 1000 l 474 1000 l 527 929 l 666 1000 l 705 1000 l 518 833 l 499 833 m 390 823 q 364 823 347 841 q 329 858 329 884 l 329 884 q 329 909 347 927 q 364 945 390 945 l 390 945 q 415 945 433 927 q 451 909 451 884 l 451 884 q 451 858 433 841 q 415 823 390 823 l 390 823 m 697 823 q 671 823 654 841 q 636 858 636 884 l 636 884 q 636 909 654 927 q 671 945 697 945 l 697 945 q 722 945 740 927 q 758 909 758 884 l 758 884 q 758 858 740 841 q 722 823 697 823 l 697 823 m 343 -7 q 239 -7 195 33 q 150 73 150 152 l 150 152 q 150 210 166 285 q 181 360 215 492 l 215 492 l 232 560 l 265 692 q 182 670 135 611 q 88 551 88 462 l 88 462 q 88 424 95 410 q 102 396 102 393 l 102 393 q 49 393 22 415 q -5 436 -5 485 l -5 485 q -5 554 49 615 q 102 676 190 713 q 277 750 373 750 l 373 750 q 395 750 421 745 l 421 745 l 377 584 q 322 382 304 305 q 286 228 286 181 l 286 181 q 286 136 302 114 q 318 91 355 91 l 355 91 q 404 91 432 112 q 459 132 486 205 q 512 278 548 439 l 548 439 l 615 748 l 756 748 l 690 436 q 655 268 618 177 q 581 85 517 39 q 453 -7 343 -7 l 343 -7"},"Ǜ":{"x_min":-5,"x_max":758,"ha":716,"o":"m 527 811 l 468 1000 l 573 1000 l 602 811 l 527 811 m 390 823 q 364 823 347 841 q 329 858 329 884 l 329 884 q 329 909 347 927 q 364 945 390 945 l 390 945 q 415 945 433 927 q 451 909 451 884 l 451 884 q 451 858 433 841 q 415 823 390 823 l 390 823 m 697 823 q 671 823 654 841 q 636 858 636 884 l 636 884 q 636 909 654 927 q 671 945 697 945 l 697 945 q 722 945 740 927 q 758 909 758 884 l 758 884 q 758 858 740 841 q 722 823 697 823 l 697 823 m 343 -7 q 239 -7 195 33 q 150 73 150 152 l 150 152 q 150 210 166 285 q 181 360 215 492 l 215 492 l 232 560 l 265 692 q 182 670 135 611 q 88 551 88 462 l 88 462 q 88 424 95 410 q 102 396 102 393 l 102 393 q 49 393 22 415 q -5 436 -5 485 l -5 485 q -5 554 49 615 q 102 676 190 713 q 277 750 373 750 l 373 750 q 395 750 421 745 l 421 745 l 377 584 q 322 382 304 305 q 286 228 286 181 l 286 181 q 286 136 302 114 q 318 91 355 91 l 355 91 q 404 91 432 112 q 459 132 486 205 q 512 278 548 439 l 548 439 l 615 748 l 756 748 l 690 436 q 655 268 618 177 q 581 85 517 39 q 453 -7 343 -7 l 343 -7"},"Ǖ":{"x_min":-5,"x_max":756,"ha":716,"o":"m 392 945 l 408 1000 l 728 1000 l 713 945 l 392 945 m 439 784 q 413 784 396 802 q 378 819 378 845 l 378 845 q 378 870 396 888 q 413 906 439 906 l 439 906 q 464 906 482 888 q 500 870 500 845 l 500 845 q 500 819 482 802 q 464 784 439 784 l 439 784 m 648 784 q 622 784 605 802 q 587 819 587 845 l 587 845 q 587 870 605 888 q 622 906 648 906 l 648 906 q 673 906 691 888 q 709 870 709 845 l 709 845 q 709 819 691 802 q 673 784 648 784 l 648 784 m 343 -7 q 239 -7 195 33 q 150 73 150 152 l 150 152 q 150 210 166 285 q 181 360 215 492 l 215 492 l 232 560 l 265 692 q 182 670 135 611 q 88 551 88 462 l 88 462 q 88 424 95 410 q 102 396 102 393 l 102 393 q 49 393 22 415 q -5 436 -5 485 l -5 485 q -5 554 49 615 q 102 676 190 713 q 277 750 373 750 l 373 750 q 395 750 421 745 l 421 745 l 377 584 q 322 382 304 305 q 286 228 286 181 l 286 181 q 286 136 302 114 q 318 91 355 91 l 355 91 q 404 91 432 112 q 459 132 486 205 q 512 278 548 439 l 548 439 l 615 748 l 756 748 l 690 436 q 655 268 618 177 q 581 85 517 39 q 453 -7 343 -7 l 343 -7"},"Ụ":{"x_min":-5,"x_max":756,"ha":716,"o":"m 343 -7 q 239 -7 195 33 q 150 73 150 152 l 150 152 q 150 210 166 285 q 181 360 215 492 l 215 492 l 232 560 l 265 692 q 182 670 135 611 q 88 551 88 462 l 88 462 q 88 424 95 410 q 102 396 102 393 l 102 393 q 49 393 22 415 q -5 436 -5 485 l -5 485 q -5 554 49 615 q 102 676 190 713 q 277 750 373 750 l 373 750 q 395 750 421 745 l 421 745 l 377 584 q 322 382 304 305 q 286 228 286 181 l 286 181 q 286 136 302 114 q 318 91 355 91 l 355 91 q 404 91 432 112 q 459 132 486 205 q 512 278 548 439 l 548 439 l 615 748 l 756 748 l 690 436 q 655 268 618 177 q 581 85 517 39 q 453 -7 343 -7 l 343 -7 m 309 -231 q 276 -231 253 -208 q 230 -185 230 -152 l 230 -152 q 230 -119 253 -95 q 276 -72 309 -72 l 309 -72 q 342 -72 366 -95 q 389 -119 389 -152 l 389 -152 q 389 -185 366 -208 q 342 -231 309 -231 l 309 -231"},"Ù":{"x_min":-5,"x_max":756,"ha":716,"o":"m 464 811 l 405 1000 l 510 1000 l 539 811 l 464 811 m 343 -7 q 239 -7 195 33 q 150 73 150 152 l 150 152 q 150 210 166 285 q 181 360 215 492 l 215 492 l 232 560 l 265 692 q 182 670 135 611 q 88 551 88 462 l 88 462 q 88 424 95 410 q 102 396 102 393 l 102 393 q 49 393 22 415 q -5 436 -5 485 l -5 485 q -5 554 49 615 q 102 676 190 713 q 277 750 373 750 l 373 750 q 395 750 421 745 l 421 745 l 377 584 q 322 382 304 305 q 286 228 286 181 l 286 181 q 286 136 302 114 q 318 91 355 91 l 355 91 q 404 91 432 112 q 459 132 486 205 q 512 278 548 439 l 548 439 l 615 748 l 756 748 l 690 436 q 655 268 618 177 q 581 85 517 39 q 453 -7 343 -7 l 343 -7"},"Ủ":{"x_min":-5,"x_max":756,"ha":716,"o":"m 546 792 l 500 794 l 500 882 q 525 877 544 877 l 544 877 q 566 877 579 887 q 591 896 591 913 l 591 913 q 591 949 544 949 l 544 949 q 509 949 484 933 l 484 933 l 458 975 q 475 986 503 993 q 530 1000 556 1000 l 556 1000 q 601 1000 630 978 q 659 955 659 919 l 659 919 q 659 885 630 861 q 601 837 554 833 l 554 833 l 546 792 m 343 -7 q 239 -7 195 33 q 150 73 150 152 l 150 152 q 150 210 166 285 q 181 360 215 492 l 215 492 l 232 560 l 265 692 q 182 670 135 611 q 88 551 88 462 l 88 462 q 88 424 95 410 q 102 396 102 393 l 102 393 q 49 393 22 415 q -5 436 -5 485 l -5 485 q -5 554 49 615 q 102 676 190 713 q 277 750 373 750 l 373 750 q 395 750 421 745 l 421 745 l 377 584 q 322 382 304 305 q 286 228 286 181 l 286 181 q 286 136 302 114 q 318 91 355 91 l 355 91 q 404 91 432 112 q 459 132 486 205 q 512 278 548 439 l 548 439 l 615 748 l 756 748 l 690 436 q 655 268 618 177 q 581 85 517 39 q 453 -7 343 -7 l 343 -7"},"Ư":{"x_min":-5,"x_max":871,"ha":716,"o":"m 871 886 q 871 831 834 774 q 796 717 744 692 l 744 692 l 690 436 q 655 268 618 177 q 581 85 517 39 q 453 -7 343 -7 l 343 -7 q 239 -7 195 33 q 150 73 150 152 l 150 152 q 150 210 166 285 q 181 360 215 492 l 215 492 l 232 560 l 265 692 q 182 670 135 611 q 88 551 88 462 l 88 462 q 88 424 95 410 q 102 396 102 393 l 102 393 q 49 393 22 415 q -5 436 -5 485 l -5 485 q -5 554 49 615 q 102 676 190 713 q 277 750 373 750 l 373 750 q 395 750 421 745 l 421 745 l 377 584 q 322 382 304 305 q 286 228 286 181 l 286 181 q 286 136 302 114 q 318 91 355 91 l 355 91 q 404 91 432 112 q 459 132 486 205 q 512 278 548 439 l 548 439 l 615 748 l 724 748 q 755 765 767 793 q 778 821 778 859 l 778 859 q 778 887 772 912 l 772 912 q 802 933 831 933 l 831 933 q 871 933 871 886 l 871 886"},"Ứ":{"x_min":-5,"x_max":871,"ha":716,"o":"m 691 1000 l 570 811 l 495 811 l 586 1000 l 691 1000 m 871 886 q 871 831 834 774 q 796 717 744 692 l 744 692 l 690 436 q 655 268 618 177 q 581 85 517 39 q 453 -7 343 -7 l 343 -7 q 239 -7 195 33 q 150 73 150 152 l 150 152 q 150 210 166 285 q 181 360 215 492 l 215 492 l 232 560 l 265 692 q 182 670 135 611 q 88 551 88 462 l 88 462 q 88 424 95 410 q 102 396 102 393 l 102 393 q 49 393 22 415 q -5 436 -5 485 l -5 485 q -5 554 49 615 q 102 676 190 713 q 277 750 373 750 l 373 750 q 395 750 421 745 l 421 745 l 377 584 q 322 382 304 305 q 286 228 286 181 l 286 181 q 286 136 302 114 q 318 91 355 91 l 355 91 q 404 91 432 112 q 459 132 486 205 q 512 278 548 439 l 548 439 l 615 748 l 724 748 q 755 765 767 793 q 778 821 778 859 l 778 859 q 778 887 772 912 l 772 912 q 802 933 831 933 l 831 933 q 871 933 871 886 l 871 886"},"Ự":{"x_min":-5,"x_max":871,"ha":716,"o":"m 871 886 q 871 831 834 774 q 796 717 744 692 l 744 692 l 690 436 q 655 268 618 177 q 581 85 517 39 q 453 -7 343 -7 l 343 -7 q 239 -7 195 33 q 150 73 150 152 l 150 152 q 150 210 166 285 q 181 360 215 492 l 215 492 l 232 560 l 265 692 q 182 670 135 611 q 88 551 88 462 l 88 462 q 88 424 95 410 q 102 396 102 393 l 102 393 q 49 393 22 415 q -5 436 -5 485 l -5 485 q -5 554 49 615 q 102 676 190 713 q 277 750 373 750 l 373 750 q 395 750 421 745 l 421 745 l 377 584 q 322 382 304 305 q 286 228 286 181 l 286 181 q 286 136 302 114 q 318 91 355 91 l 355 91 q 404 91 432 112 q 459 132 486 205 q 512 278 548 439 l 548 439 l 615 748 l 724 748 q 755 765 767 793 q 778 821 778 859 l 778 859 q 778 887 772 912 l 772 912 q 802 933 831 933 l 831 933 q 871 933 871 886 l 871 886 m 309 -72 q 342 -72 366 -95 q 389 -119 389 -152 l 389 -152 q 389 -185 366 -208 q 342 -231 309 -231 l 309 -231 q 276 -231 253 -208 q 230 -185 230 -152 l 230 -152 q 230 -119 253 -95 q 276 -72 309 -72 l 309 -72"},"Ừ":{"x_min":-5,"x_max":871,"ha":716,"o":"m 539 811 l 464 811 l 405 1000 l 510 1000 l 539 811 m 871 886 q 871 831 834 774 q 796 717 744 692 l 744 692 l 690 436 q 655 268 618 177 q 581 85 517 39 q 453 -7 343 -7 l 343 -7 q 239 -7 195 33 q 150 73 150 152 l 150 152 q 150 210 166 285 q 181 360 215 492 l 215 492 l 232 560 l 265 692 q 182 670 135 611 q 88 551 88 462 l 88 462 q 88 424 95 410 q 102 396 102 393 l 102 393 q 49 393 22 415 q -5 436 -5 485 l -5 485 q -5 554 49 615 q 102 676 190 713 q 277 750 373 750 l 373 750 q 395 750 421 745 l 421 745 l 377 584 q 322 382 304 305 q 286 228 286 181 l 286 181 q 286 136 302 114 q 318 91 355 91 l 355 91 q 404 91 432 112 q 459 132 486 205 q 512 278 548 439 l 548 439 l 615 748 l 724 748 q 755 765 767 793 q 778 821 778 859 l 778 859 q 778 887 772 912 l 772 912 q 802 933 831 933 l 831 933 q 871 933 871 886 l 871 886"},"Ử":{"x_min":-5,"x_max":871,"ha":716,"o":"m 544 949 q 509 949 484 933 l 484 933 l 458 975 q 475 986 503 993 q 530 1000 556 1000 l 556 1000 q 601 1000 630 978 q 659 955 659 919 l 659 919 q 659 885 630 861 q 601 837 554 833 l 554 833 l 546 792 l 500 794 l 500 882 q 525 877 544 877 l 544 877 q 566 877 579 887 q 591 896 591 913 l 591 913 q 591 949 544 949 l 544 949 m 871 886 q 871 831 834 774 q 796 717 744 692 l 744 692 l 690 436 q 655 268 618 177 q 581 85 517 39 q 453 -7 343 -7 l 343 -7 q 239 -7 195 33 q 150 73 150 152 l 150 152 q 150 210 166 285 q 181 360 215 492 l 215 492 l 232 560 l 265 692 q 182 670 135 611 q 88 551 88 462 l 88 462 q 88 424 95 410 q 102 396 102 393 l 102 393 q 49 393 22 415 q -5 436 -5 485 l -5 485 q -5 554 49 615 q 102 676 190 713 q 277 750 373 750 l 373 750 q 395 750 421 745 l 421 745 l 377 584 q 322 382 304 305 q 286 228 286 181 l 286 181 q 286 136 302 114 q 318 91 355 91 l 355 91 q 404 91 432 112 q 459 132 486 205 q 512 278 548 439 l 548 439 l 615 748 l 724 748 q 755 765 767 793 q 778 821 778 859 l 778 859 q 778 887 772 912 l 772 912 q 802 933 831 933 l 831 933 q 871 933 871 886 l 871 886"},"Ữ":{"x_min":-5,"x_max":871,"ha":716,"o":"m 871 886 q 871 831 834 774 q 796 717 744 692 l 744 692 l 690 436 q 655 268 618 177 q 581 85 517 39 q 453 -7 343 -7 l 343 -7 q 239 -7 195 33 q 150 73 150 152 l 150 152 q 150 210 166 285 q 181 360 215 492 l 215 492 l 232 560 l 265 692 q 182 670 135 611 q 88 551 88 462 l 88 462 q 88 424 95 410 q 102 396 102 393 l 102 393 q 49 393 22 415 q -5 436 -5 485 l -5 485 q -5 554 49 615 q 102 676 190 713 q 277 750 373 750 l 373 750 q 395 750 421 745 l 421 745 l 377 584 q 322 382 304 305 q 286 228 286 181 l 286 181 q 286 136 302 114 q 318 91 355 91 l 355 91 q 404 91 432 112 q 459 132 486 205 q 512 278 548 439 l 548 439 l 615 748 l 724 748 q 755 765 767 793 q 778 821 778 859 l 778 859 q 778 887 772 912 l 772 912 q 802 933 831 933 l 831 933 q 871 933 871 886 l 871 886 m 409 856 q 372 856 343 830 l 343 830 l 337 832 q 361 880 404 905 q 447 930 504 930 l 504 930 q 530 930 551 926 q 571 921 596 912 l 596 912 q 639 897 669 897 l 669 897 q 709 897 732 920 l 732 920 l 738 919 q 733 896 709 873 q 684 849 649 834 q 614 819 577 819 l 577 819 q 554 819 533 824 q 512 829 485 839 l 485 839 q 462 847 445 852 q 427 856 409 856 l 409 856"},"Ű":{"x_min":-5,"x_max":778,"ha":716,"o":"m 420 810 l 511 999 l 616 999 l 475 810 l 420 810 m 582 810 l 673 999 l 778 999 l 637 810 l 582 810 m 343 -7 q 239 -7 195 33 q 150 73 150 152 l 150 152 q 150 210 166 285 q 181 360 215 492 l 215 492 l 232 560 l 265 692 q 182 670 135 611 q 88 551 88 462 l 88 462 q 88 424 95 410 q 102 396 102 393 l 102 393 q 49 393 22 415 q -5 436 -5 485 l -5 485 q -5 554 49 615 q 102 676 190 713 q 277 750 373 750 l 373 750 q 395 750 421 745 l 421 745 l 377 584 q 322 382 304 305 q 286 228 286 181 l 286 181 q 286 136 302 114 q 318 91 355 91 l 355 91 q 404 91 432 112 q 459 132 486 205 q 512 278 548 439 l 548 439 l 615 748 l 756 748 l 690 436 q 655 268 618 177 q 581 85 517 39 q 453 -7 343 -7 l 343 -7"},"Ȗ":{"x_min":-5,"x_max":756,"ha":716,"o":"m 348 822 q 353 860 383 892 q 413 924 460 942 q 506 960 559 960 l 559 960 q 633 960 672 925 q 711 889 711 822 l 711 822 l 622 822 q 622 862 602 884 q 581 905 543 905 l 543 905 q 502 905 471 881 q 439 857 434 822 l 434 822 l 348 822 m 343 -7 q 239 -7 195 33 q 150 73 150 152 l 150 152 q 150 210 166 285 q 181 360 215 492 l 215 492 l 232 560 l 265 692 q 182 670 135 611 q 88 551 88 462 l 88 462 q 88 424 95 410 q 102 396 102 393 l 102 393 q 49 393 22 415 q -5 436 -5 485 l -5 485 q -5 554 49 615 q 102 676 190 713 q 277 750 373 750 l 373 750 q 395 750 421 745 l 421 745 l 377 584 q 322 382 304 305 q 286 228 286 181 l 286 181 q 286 136 302 114 q 318 91 355 91 l 355 91 q 404 91 432 112 q 459 132 486 205 q 512 278 548 439 l 548 439 l 615 748 l 756 748 l 690 436 q 655 268 618 177 q 581 85 517 39 q 453 -7 343 -7 l 343 -7"},"Ū":{"x_min":-5,"x_max":756,"ha":716,"o":"m 368 849 l 384 923 l 704 923 l 689 849 l 368 849 m 343 -7 q 239 -7 195 33 q 150 73 150 152 l 150 152 q 150 210 166 285 q 181 360 215 492 l 215 492 l 232 560 l 265 692 q 182 670 135 611 q 88 551 88 462 l 88 462 q 88 424 95 410 q 102 396 102 393 l 102 393 q 49 393 22 415 q -5 436 -5 485 l -5 485 q -5 554 49 615 q 102 676 190 713 q 277 750 373 750 l 373 750 q 395 750 421 745 l 421 745 l 377 584 q 322 382 304 305 q 286 228 286 181 l 286 181 q 286 136 302 114 q 318 91 355 91 l 355 91 q 404 91 432 112 q 459 132 486 205 q 512 278 548 439 l 548 439 l 615 748 l 756 748 l 690 436 q 655 268 618 177 q 581 85 517 39 q 453 -7 343 -7 l 343 -7"},"Ų":{"x_min":-5,"x_max":756,"ha":716,"o":"m 539 811 l 464 811 l 405 1000 l 510 1000 l 539 811 m 615 748 l 756 748 l 690 436 q 656 273 621 183 q 585 92 525 45 q 464 -3 362 -7 l 362 -7 q 346 -22 337 -43 q 328 -64 328 -88 l 328 -88 q 328 -116 343 -132 q 358 -149 383 -149 l 383 -149 q 421 -149 455 -110 l 455 -110 l 472 -133 q 456 -167 419 -190 q 382 -214 344 -214 l 344 -214 q 301 -214 273 -187 q 245 -161 245 -121 l 245 -121 q 245 -56 311 -6 l 311 -6 q 225 0 188 40 q 150 79 150 152 l 150 152 q 150 210 166 285 q 181 360 215 492 l 215 492 l 232 560 l 265 692 q 182 670 135 611 q 88 551 88 462 l 88 462 q 88 424 95 410 q 102 396 102 393 l 102 393 q 49 393 22 415 q -5 436 -5 485 l -5 485 q -5 554 49 615 q 102 676 190 713 q 277 750 373 750 l 373 750 q 395 750 421 745 l 421 745 l 377 584 q 322 382 304 305 q 286 228 286 181 l 286 181 q 286 136 302 114 q 318 91 355 91 l 355 91 q 404 91 432 112 q 459 132 486 205 q 512 278 548 439 l 548 439 l 615 748"},"Ů":{"x_min":-5,"x_max":756,"ha":716,"o":"m 521 807 q 489 807 470 827 q 451 847 451 877 l 451 877 q 451 909 473 939 q 495 968 536 968 l 536 968 q 571 968 590 947 q 608 925 608 891 l 608 891 q 608 855 587 831 q 565 807 521 807 l 521 807 m 525 842 q 548 842 560 854 q 571 866 571 888 l 571 888 q 571 909 565 922 q 559 935 538 935 l 538 935 q 514 935 503 918 q 491 901 491 879 l 491 879 q 491 842 525 842 l 525 842 m 343 -7 q 239 -7 195 33 q 150 73 150 152 l 150 152 q 150 210 166 285 q 181 360 215 492 l 215 492 l 232 560 l 265 692 q 182 670 135 611 q 88 551 88 462 l 88 462 q 88 424 95 410 q 102 396 102 393 l 102 393 q 49 393 22 415 q -5 436 -5 485 l -5 485 q -5 554 49 615 q 102 676 190 713 q 277 750 373 750 l 373 750 q 395 750 421 745 l 421 745 l 377 584 q 322 382 304 305 q 286 228 286 181 l 286 181 q 286 136 302 114 q 318 91 355 91 l 355 91 q 404 91 432 112 q 459 132 486 205 q 512 278 548 439 l 548 439 l 615 748 l 756 748 l 690 436 q 655 268 618 177 q 581 85 517 39 q 453 -7 343 -7 l 343 -7"},"Ũ":{"x_min":-5,"x_max":756,"ha":716,"o":"m 577 819 q 554 819 533 824 q 512 829 485 839 l 485 839 q 462 847 445 852 q 427 856 409 856 l 409 856 q 372 856 343 830 l 343 830 l 337 832 q 361 880 404 905 q 447 930 504 930 l 504 930 q 530 930 551 926 q 571 921 596 912 l 596 912 q 639 897 669 897 l 669 897 q 709 897 732 920 l 732 920 l 738 919 q 733 896 709 873 q 684 849 649 834 q 614 819 577 819 l 577 819 m 343 -7 q 239 -7 195 33 q 150 73 150 152 l 150 152 q 150 210 166 285 q 181 360 215 492 l 215 492 l 232 560 l 265 692 q 182 670 135 611 q 88 551 88 462 l 88 462 q 88 424 95 410 q 102 396 102 393 l 102 393 q 49 393 22 415 q -5 436 -5 485 l -5 485 q -5 554 49 615 q 102 676 190 713 q 277 750 373 750 l 373 750 q 395 750 421 745 l 421 745 l 377 584 q 322 382 304 305 q 286 228 286 181 l 286 181 q 286 136 302 114 q 318 91 355 91 l 355 91 q 404 91 432 112 q 459 132 486 205 q 512 278 548 439 l 548 439 l 615 748 l 756 748 l 690 436 q 655 268 618 177 q 581 85 517 39 q 453 -7 343 -7 l 343 -7"},"V":{"x_min":6,"x_max":686,"ha":615,"o":"m 264 0 l 248 683 q 177 656 138 600 q 99 543 99 461 l 99 461 q 99 424 106 410 q 113 395 113 393 l 113 393 q 59 393 33 416 q 6 438 6 490 l 6 490 q 6 554 59 615 q 111 675 193 713 q 275 750 357 750 l 357 750 q 371 750 397 748 l 397 748 l 406 133 l 616 745 l 686 745 l 408 0 l 264 0"},"W":{"x_min":6,"x_max":1032,"ha":962,"o":"m 264 0 l 248 683 q 177 656 138 600 q 99 543 99 461 l 99 461 q 99 424 106 410 q 113 395 113 393 l 113 393 q 59 393 33 416 q 6 438 6 490 l 6 490 q 6 554 59 615 q 111 675 193 713 q 275 750 357 750 l 357 750 q 371 750 397 748 l 397 748 l 406 133 l 616 745 l 743 745 l 752 133 l 962 745 l 1032 745 l 754 0 l 610 0 l 598 509 l 408 0 l 264 0"},"Ẃ":{"x_min":6,"x_max":1032,"ha":962,"o":"m 652 811 l 743 1000 l 848 1000 l 727 811 l 652 811 m 264 0 l 248 683 q 177 656 138 600 q 99 543 99 461 l 99 461 q 99 424 106 410 q 113 395 113 393 l 113 393 q 59 393 33 416 q 6 438 6 490 l 6 490 q 6 554 59 615 q 111 675 193 713 q 275 750 357 750 l 357 750 q 371 750 397 748 l 397 748 l 406 133 l 616 745 l 743 745 l 752 133 l 962 745 l 1032 745 l 754 0 l 610 0 l 598 509 l 408 0 l 264 0"},"Ŵ":{"x_min":6,"x_max":1032,"ha":962,"o":"m 534 811 l 746 1000 l 767 1000 l 827 811 l 795 811 l 735 891 l 578 811 l 534 811 m 264 0 l 248 683 q 177 656 138 600 q 99 543 99 461 l 99 461 q 99 424 106 410 q 113 395 113 393 l 113 393 q 59 393 33 416 q 6 438 6 490 l 6 490 q 6 554 59 615 q 111 675 193 713 q 275 750 357 750 l 357 750 q 371 750 397 748 l 397 748 l 406 133 l 616 745 l 743 745 l 752 133 l 962 745 l 1032 745 l 754 0 l 610 0 l 598 509 l 408 0 l 264 0"},"Ẅ":{"x_min":6,"x_max":1032,"ha":962,"o":"m 594 823 q 568 823 551 841 q 533 858 533 884 l 533 884 q 533 909 551 927 q 568 945 594 945 l 594 945 q 618 945 636 927 q 654 909 654 884 l 654 884 q 654 858 636 841 q 618 823 594 823 l 594 823 m 773 823 q 747 823 730 841 q 712 858 712 884 l 712 884 q 712 909 730 927 q 748 945 773 945 l 773 945 q 798 945 816 927 q 834 909 834 884 l 834 884 q 834 858 817 841 q 799 823 773 823 l 773 823 m 264 0 l 248 683 q 177 656 138 600 q 99 543 99 461 l 99 461 q 99 424 106 410 q 113 395 113 393 l 113 393 q 59 393 33 416 q 6 438 6 490 l 6 490 q 6 554 59 615 q 111 675 193 713 q 275 750 357 750 l 357 750 q 371 750 397 748 l 397 748 l 406 133 l 616 745 l 743 745 l 752 133 l 962 745 l 1032 745 l 754 0 l 610 0 l 598 509 l 408 0 l 264 0"},"Ẁ":{"x_min":6,"x_max":1032,"ha":962,"o":"m 638 811 l 579 1000 l 684 1000 l 712 811 l 638 811 m 264 0 l 248 683 q 177 656 138 600 q 99 543 99 461 l 99 461 q 99 424 106 410 q 113 395 113 393 l 113 393 q 59 393 33 416 q 6 438 6 490 l 6 490 q 6 554 59 615 q 111 675 193 713 q 275 750 357 750 l 357 750 q 371 750 397 748 l 397 748 l 406 133 l 616 745 l 743 745 l 752 133 l 962 745 l 1032 745 l 754 0 l 610 0 l 598 509 l 408 0 l 264 0"},"X":{"x_min":6,"x_max":626,"ha":620,"o":"m 134 0 l 322 332 l 248 683 q 177 656 138 600 q 99 543 99 461 l 99 461 q 99 424 106 410 q 113 395 113 393 l 113 393 q 59 393 33 416 q 6 438 6 490 l 6 490 q 6 554 59 615 q 111 675 193 713 q 275 750 357 750 l 357 750 q 371 750 397 748 l 397 748 l 440 540 l 556 745 l 626 745 l 458 454 l 552 0 l 393 0 l 340 250 l 195 0 l 134 0"},"Y":{"x_min":6,"x_max":698,"ha":620,"o":"m 278 0 l 344 308 l 248 683 q 177 656 138 600 q 99 543 99 461 l 99 461 q 99 424 106 410 q 113 395 113 393 l 113 393 q 59 393 33 416 q 6 438 6 490 l 6 490 q 6 554 59 615 q 111 675 193 713 q 275 750 357 750 l 357 750 q 371 750 397 748 l 397 748 l 484 390 l 632 745 l 698 745 l 504 308 l 438 0 l 278 0"},"Ý":{"x_min":6,"x_max":698,"ha":620,"o":"m 492 811 l 583 1000 l 688 1000 l 567 811 l 492 811 m 278 0 l 344 308 l 248 683 q 177 656 138 600 q 99 543 99 461 l 99 461 q 99 424 106 410 q 113 395 113 393 l 113 393 q 59 393 33 416 q 6 438 6 490 l 6 490 q 6 554 59 615 q 111 675 193 713 q 275 750 357 750 l 357 750 q 371 750 397 748 l 397 748 l 484 390 l 632 745 l 698 745 l 504 308 l 438 0 l 278 0"},"Ŷ":{"x_min":6,"x_max":698,"ha":620,"o":"m 344 811 l 556 1000 l 577 1000 l 637 811 l 604 811 l 544 891 l 388 811 l 344 811 m 278 0 l 344 308 l 248 683 q 177 656 138 600 q 99 543 99 461 l 99 461 q 99 424 106 410 q 113 395 113 393 l 113 393 q 59 393 33 416 q 6 438 6 490 l 6 490 q 6 554 59 615 q 111 675 193 713 q 275 750 357 750 l 357 750 q 371 750 397 748 l 397 748 l 484 390 l 632 745 l 698 745 l 504 308 l 438 0 l 278 0"},"Ÿ":{"x_min":6,"x_max":698,"ha":620,"o":"m 440 823 q 414 823 397 841 q 379 858 379 884 l 379 884 q 379 909 397 927 q 414 945 440 945 l 440 945 q 465 945 483 927 q 501 909 501 884 l 501 884 q 501 858 483 841 q 465 823 440 823 l 440 823 m 620 823 q 594 823 577 841 q 559 858 559 884 l 559 884 q 559 909 577 927 q 594 945 620 945 l 620 945 q 645 945 663 927 q 681 909 681 884 l 681 884 q 681 858 663 841 q 645 823 620 823 l 620 823 m 278 0 l 344 308 l 248 683 q 177 656 138 600 q 99 543 99 461 l 99 461 q 99 424 106 410 q 113 395 113 393 l 113 393 q 59 393 33 416 q 6 438 6 490 l 6 490 q 6 554 59 615 q 111 675 193 713 q 275 750 357 750 l 357 750 q 371 750 397 748 l 397 748 l 484 390 l 632 745 l 698 745 l 504 308 l 438 0 l 278 0"},"Ẏ":{"x_min":6,"x_max":698,"ha":620,"o":"m 523 822 q 490 822 467 845 q 444 867 444 900 l 444 900 q 444 934 467 957 q 490 980 523 980 l 523 980 q 556 980 580 957 q 604 933 604 900 l 604 900 q 604 867 580 845 q 556 822 523 822 l 523 822 m 278 0 l 344 308 l 248 683 q 177 656 138 600 q 99 543 99 461 l 99 461 q 99 424 106 410 q 113 395 113 393 l 113 393 q 59 393 33 416 q 6 438 6 490 l 6 490 q 6 554 59 615 q 111 675 193 713 q 275 750 357 750 l 357 750 q 371 750 397 748 l 397 748 l 484 390 l 632 745 l 698 745 l 504 308 l 438 0 l 278 0"},"Ỵ":{"x_min":6,"x_max":698,"ha":620,"o":"m 278 0 l 344 308 l 248 683 q 177 656 138 600 q 99 543 99 461 l 99 461 q 99 424 106 410 q 113 395 113 393 l 113 393 q 59 393 33 416 q 6 438 6 490 l 6 490 q 6 554 59 615 q 111 675 193 713 q 275 750 357 750 l 357 750 q 371 750 397 748 l 397 748 l 484 390 l 632 745 l 698 745 l 504 308 l 438 0 l 278 0 m 329 -231 q 296 -231 273 -208 q 250 -185 250 -152 l 250 -152 q 250 -119 273 -95 q 296 -72 329 -72 l 329 -72 q 362 -72 386 -95 q 409 -119 409 -152 l 409 -152 q 409 -185 386 -208 q 362 -231 329 -231 l 329 -231"},"Ỳ":{"x_min":6,"x_max":698,"ha":620,"o":"m 481 811 l 422 1000 l 527 1000 l 556 811 l 481 811 m 278 0 l 344 308 l 248 683 q 177 656 138 600 q 99 543 99 461 l 99 461 q 99 424 106 410 q 113 395 113 393 l 113 393 q 59 393 33 416 q 6 438 6 490 l 6 490 q 6 554 59 615 q 111 675 193 713 q 275 750 357 750 l 357 750 q 371 750 397 748 l 397 748 l 484 390 l 632 745 l 698 745 l 504 308 l 438 0 l 278 0"},"Ỷ":{"x_min":6,"x_max":698,"ha":620,"o":"m 546 792 l 500 794 l 500 882 q 525 877 544 877 l 544 877 q 566 877 579 887 q 591 896 591 913 l 591 913 q 591 949 544 949 l 544 949 q 509 949 484 933 l 484 933 l 458 975 q 475 986 503 993 q 530 1000 556 1000 l 556 1000 q 601 1000 630 978 q 659 955 659 919 l 659 919 q 659 885 630 861 q 601 837 554 833 l 554 833 l 546 792 m 278 0 l 344 308 l 248 683 q 177 656 138 600 q 99 543 99 461 l 99 461 q 99 424 106 410 q 113 395 113 393 l 113 393 q 59 393 33 416 q 6 438 6 490 l 6 490 q 6 554 59 615 q 111 675 193 713 q 275 750 357 750 l 357 750 q 371 750 397 748 l 397 748 l 484 390 l 632 745 l 698 745 l 504 308 l 438 0 l 278 0"},"Ỹ":{"x_min":6,"x_max":709,"ha":620,"o":"m 548 819 q 525 819 505 824 q 485 829 457 839 l 457 839 q 428 848 413 852 q 398 856 380 856 l 380 856 q 343 856 314 830 l 314 830 l 309 832 q 332 880 375 905 q 418 930 476 930 l 476 930 q 501 930 522 926 q 542 921 567 912 l 567 912 q 590 904 606 901 q 622 897 641 897 l 641 897 q 679 897 704 920 l 704 920 l 709 919 q 705 896 681 873 q 656 849 621 834 q 585 819 548 819 l 548 819 m 278 0 l 344 308 l 248 683 q 177 656 138 600 q 99 543 99 461 l 99 461 q 99 424 106 410 q 113 395 113 393 l 113 393 q 59 393 33 416 q 6 438 6 490 l 6 490 q 6 554 59 615 q 111 675 193 713 q 275 750 357 750 l 357 750 q 371 750 397 748 l 397 748 l 484 390 l 632 745 l 698 745 l 504 308 l 438 0 l 278 0"},"Z":{"x_min":11,"x_max":552,"ha":542,"o":"m 11 0 l 361 696 q 340 696 327 697 l 327 697 l 271 698 q 179 698 179 676 l 179 676 q 185 676 191 668 q 196 660 196 644 l 196 644 q 196 614 178 601 q 159 587 137 587 l 137 587 q 110 587 98 605 q 86 622 86 646 l 86 646 q 86 687 119 719 q 152 750 209 750 l 209 750 l 552 750 l 207 65 q 235 65 250 64 l 250 64 l 303 63 q 345 63 372 68 q 398 72 407 85 l 407 85 q 400 85 395 93 q 389 100 389 116 l 389 116 q 389 146 407 160 q 425 174 449 174 l 449 174 q 475 174 488 157 q 500 140 500 116 l 500 116 q 500 90 484 63 q 468 36 439 18 q 409 0 372 0 l 372 0 l 11 0"},"Ź":{"x_min":11,"x_max":559,"ha":542,"o":"m 363 811 l 454 1000 l 559 1000 l 438 811 l 363 811 m 11 0 l 361 696 q 340 696 327 697 l 327 697 l 271 698 q 179 698 179 676 l 179 676 q 185 676 191 668 q 196 660 196 644 l 196 644 q 196 614 178 601 q 159 587 137 587 l 137 587 q 110 587 98 605 q 86 622 86 646 l 86 646 q 86 687 119 719 q 152 750 209 750 l 209 750 l 552 750 l 207 65 q 235 65 250 64 l 250 64 l 303 63 q 345 63 372 68 q 398 72 407 85 l 407 85 q 400 85 395 93 q 389 100 389 116 l 389 116 q 389 146 407 160 q 425 174 449 174 l 449 174 q 475 174 488 157 q 500 140 500 116 l 500 116 q 500 90 484 63 q 468 36 439 18 q 409 0 372 0 l 372 0 l 11 0"},"Ž":{"x_min":11,"x_max":597,"ha":542,"o":"m 364 811 l 304 1000 l 336 1000 l 396 920 l 553 1000 l 597 1000 l 385 811 l 364 811 m 11 0 l 361 696 q 340 696 327 697 l 327 697 l 271 698 q 179 698 179 676 l 179 676 q 185 676 191 668 q 196 660 196 644 l 196 644 q 196 614 178 601 q 159 587 137 587 l 137 587 q 110 587 98 605 q 86 622 86 646 l 86 646 q 86 687 119 719 q 152 750 209 750 l 209 750 l 552 750 l 207 65 q 235 65 250 64 l 250 64 l 303 63 q 345 63 372 68 q 398 72 407 85 l 407 85 q 400 85 395 93 q 389 100 389 116 l 389 116 q 389 146 407 160 q 425 174 449 174 l 449 174 q 475 174 488 157 q 500 140 500 116 l 500 116 q 500 90 484 63 q 468 36 439 18 q 409 0 372 0 l 372 0 l 11 0"},"Ż":{"x_min":11,"x_max":552,"ha":530,"o":"m 360 823 q 334 823 317 841 q 299 858 299 884 l 299 884 q 299 909 317 927 q 334 945 360 945 l 360 945 q 385 945 403 927 q 421 909 421 884 l 421 884 q 421 858 403 841 q 385 823 360 823 l 360 823 m 11 0 l 361 696 q 340 696 327 697 l 327 697 l 271 698 q 179 698 179 676 l 179 676 q 185 676 191 668 q 196 660 196 644 l 196 644 q 196 614 178 601 q 159 587 137 587 l 137 587 q 110 587 98 605 q 86 622 86 646 l 86 646 q 86 687 119 719 q 152 750 209 750 l 209 750 l 552 750 l 207 65 q 235 65 250 64 l 250 64 l 303 63 q 345 63 372 68 q 398 72 407 85 l 407 85 q 400 85 395 93 q 389 100 389 116 l 389 116 q 389 146 407 160 q 425 174 449 174 l 449 174 q 475 174 488 157 q 500 140 500 116 l 500 116 q 500 90 484 63 q 468 36 439 18 q 409 0 372 0 l 372 0 l 11 0"},"Ẓ":{"x_min":11,"x_max":559,"ha":542,"o":"m 363 811 l 454 1000 l 559 1000 l 438 811 l 363 811 m 11 0 l 361 696 q 340 696 327 697 l 327 697 l 271 698 q 179 698 179 676 l 179 676 q 185 676 191 668 q 196 660 196 644 l 196 644 q 196 614 178 601 q 159 587 137 587 l 137 587 q 110 587 98 605 q 86 622 86 646 l 86 646 q 86 687 119 719 q 152 750 209 750 l 209 750 l 552 750 l 207 65 q 235 65 250 64 l 250 64 l 303 63 q 345 63 372 68 q 398 72 407 85 l 407 85 q 400 85 395 93 q 389 100 389 116 l 389 116 q 389 146 407 160 q 425 174 449 174 l 449 174 q 475 174 488 157 q 500 140 500 116 l 500 116 q 500 90 484 63 q 468 36 439 18 q 409 0 372 0 l 372 0 l 11 0 m 211 -231 q 178 -231 155 -208 q 132 -185 132 -152 l 132 -152 q 132 -119 155 -95 q 178 -72 211 -72 l 211 -72 q 244 -72 268 -95 q 292 -119 292 -152 l 292 -152 q 292 -185 268 -208 q 244 -231 211 -231 l 211 -231"},"a":{"x_min":-13,"x_max":568,"ha":526,"o":"m 120 -6 q 63 -6 25 33 q -13 72 -13 155 l -13 155 q -13 229 17 311 q 46 392 105 449 q 163 505 244 505 l 244 505 q 285 505 305 491 q 325 477 325 454 l 325 454 l 325 447 l 336 500 l 480 500 l 408 160 q 404 145 404 128 l 404 128 q 404 85 445 85 l 445 85 q 473 85 494 111 q 514 137 526 179 l 526 179 l 568 179 q 531 71 477 33 q 422 -6 367 -6 l 367 -6 q 325 -6 300 18 q 274 41 269 86 l 269 86 q 240 45 205 20 q 169 -6 120 -6 l 120 -6 m 185 91 q 210 91 235 115 q 259 138 268 179 l 268 179 l 316 405 q 316 418 306 431 q 296 443 275 443 l 275 443 q 235 443 203 397 q 171 350 153 285 q 135 219 135 169 l 135 169 q 135 119 150 105 q 164 91 185 91 l 185 91"},"á":{"x_min":-13,"x_max":568,"ha":526,"o":"m 245 561 l 336 750 l 441 750 l 320 561 l 245 561 m 120 -6 q 63 -6 25 33 q -13 72 -13 155 l -13 155 q -13 229 17 311 q 46 392 105 449 q 163 505 244 505 l 244 505 q 285 505 305 491 q 325 477 325 454 l 325 454 l 325 447 l 336 500 l 480 500 l 408 160 q 404 145 404 128 l 404 128 q 404 85 445 85 l 445 85 q 473 85 494 111 q 514 137 526 179 l 526 179 l 568 179 q 531 71 477 33 q 422 -6 367 -6 l 367 -6 q 325 -6 300 18 q 274 41 269 86 l 269 86 q 240 45 205 20 q 169 -6 120 -6 l 120 -6 m 185 91 q 210 91 235 115 q 259 138 268 179 l 268 179 l 316 405 q 316 418 306 431 q 296 443 275 443 l 275 443 q 235 443 203 397 q 171 350 153 285 q 135 219 135 169 l 135 169 q 135 119 150 105 q 164 91 185 91 l 185 91"},"ă":{"x_min":-13,"x_max":568,"ha":526,"o":"m 303 589 q 229 589 190 625 q 151 660 151 728 l 151 728 l 240 728 q 240 688 261 667 q 281 645 319 645 l 319 645 q 360 645 392 669 q 423 693 428 728 l 428 728 l 514 728 q 509 689 479 658 q 449 626 403 608 q 356 589 303 589 l 303 589 m 120 -6 q 63 -6 25 33 q -13 72 -13 155 l -13 155 q -13 229 17 311 q 46 392 105 449 q 163 505 244 505 l 244 505 q 285 505 305 491 q 325 477 325 454 l 325 454 l 325 447 l 336 500 l 480 500 l 408 160 q 404 145 404 128 l 404 128 q 404 85 445 85 l 445 85 q 473 85 494 111 q 514 137 526 179 l 526 179 l 568 179 q 531 71 477 33 q 422 -6 367 -6 l 367 -6 q 325 -6 300 18 q 274 41 269 86 l 269 86 q 240 45 205 20 q 169 -6 120 -6 l 120 -6 m 185 91 q 210 91 235 115 q 259 138 268 179 l 268 179 l 316 405 q 316 418 306 431 q 296 443 275 443 l 275 443 q 235 443 203 397 q 171 350 153 285 q 135 219 135 169 l 135 169 q 135 119 150 105 q 164 91 185 91 l 185 91"},"ắ":{"x_min":-13,"x_max":568,"ha":526,"o":"m 299 693 l 365 846 l 447 846 l 355 693 l 299 693 m 307 587 q 241 587 207 619 q 172 650 172 710 l 172 710 l 251 710 q 251 675 269 656 q 287 637 321 637 l 321 637 q 357 637 385 658 q 413 679 417 710 l 417 710 l 493 710 q 488 676 462 648 q 435 620 395 604 q 354 587 307 587 l 307 587 m 120 -6 q 63 -6 25 33 q -13 72 -13 155 l -13 155 q -13 229 17 311 q 46 392 105 449 q 163 505 244 505 l 244 505 q 285 505 305 491 q 325 477 325 454 l 325 454 l 325 447 l 336 500 l 480 500 l 408 160 q 404 145 404 128 l 404 128 q 404 85 445 85 l 445 85 q 473 85 494 111 q 514 137 526 179 l 526 179 l 568 179 q 531 71 477 33 q 422 -6 367 -6 l 367 -6 q 325 -6 300 18 q 274 41 269 86 l 269 86 q 240 45 205 20 q 169 -6 120 -6 l 120 -6 m 185 91 q 210 91 235 115 q 259 138 268 179 l 268 179 l 316 405 q 316 418 306 431 q 296 443 275 443 l 275 443 q 235 443 203 397 q 171 350 153 285 q 135 219 135 169 l 135 169 q 135 119 150 105 q 164 91 185 91 l 185 91"},"ặ":{"x_min":-13,"x_max":568,"ha":526,"o":"m 303 589 q 229 589 190 625 q 151 660 151 728 l 151 728 l 240 728 q 240 688 261 667 q 281 645 319 645 l 319 645 q 360 645 392 669 q 423 693 428 728 l 428 728 l 514 728 q 509 689 479 658 q 449 626 403 608 q 356 589 303 589 l 303 589 m 120 -6 q 63 -6 25 33 q -13 72 -13 155 l -13 155 q -13 229 17 311 q 46 392 105 449 q 163 505 244 505 l 244 505 q 285 505 305 491 q 325 477 325 454 l 325 454 l 325 447 l 336 500 l 480 500 l 408 160 q 404 145 404 128 l 404 128 q 404 85 445 85 l 445 85 q 473 85 494 111 q 514 137 526 179 l 526 179 l 568 179 q 531 71 477 33 q 422 -6 367 -6 l 367 -6 q 325 -6 300 18 q 274 41 269 86 l 269 86 q 240 45 205 20 q 169 -6 120 -6 l 120 -6 m 185 91 q 210 91 235 115 q 259 138 268 179 l 268 179 l 316 405 q 316 418 306 431 q 296 443 275 443 l 275 443 q 235 443 203 397 q 171 350 153 285 q 135 219 135 169 l 135 169 q 135 119 150 105 q 164 91 185 91 l 185 91 m 167 -231 q 135 -231 112 -208 q 88 -185 88 -152 l 88 -152 q 88 -119 112 -95 q 135 -72 167 -72 l 167 -72 q 200 -72 224 -95 q 248 -119 248 -152 l 248 -152 q 248 -185 224 -208 q 200 -231 167 -231 l 167 -231"},"ằ":{"x_min":-13,"x_max":568,"ha":526,"o":"m 310 693 l 257 845 l 336 845 l 362 693 l 310 693 m 307 587 q 241 587 207 619 q 172 650 172 710 l 172 710 l 251 710 q 251 675 269 656 q 287 637 321 637 l 321 637 q 357 637 385 658 q 413 679 417 710 l 417 710 l 493 710 q 488 676 462 648 q 435 620 395 604 q 354 587 307 587 l 307 587 m 120 -6 q 63 -6 25 33 q -13 72 -13 155 l -13 155 q -13 229 17 311 q 46 392 105 449 q 163 505 244 505 l 244 505 q 285 505 305 491 q 325 477 325 454 l 325 454 l 325 447 l 336 500 l 480 500 l 408 160 q 404 145 404 128 l 404 128 q 404 85 445 85 l 445 85 q 473 85 494 111 q 514 137 526 179 l 526 179 l 568 179 q 531 71 477 33 q 422 -6 367 -6 l 367 -6 q 325 -6 300 18 q 274 41 269 86 l 269 86 q 240 45 205 20 q 169 -6 120 -6 l 120 -6 m 185 91 q 210 91 235 115 q 259 138 268 179 l 268 179 l 316 405 q 316 418 306 431 q 296 443 275 443 l 275 443 q 235 443 203 397 q 171 350 153 285 q 135 219 135 169 l 135 169 q 135 119 150 105 q 164 91 185 91 l 185 91"},"ẳ":{"x_min":-13,"x_max":568,"ha":526,"o":"m 338 693 l 304 695 l 304 756 q 319 752 335 752 l 335 752 q 369 752 369 779 l 369 779 q 369 804 335 804 l 335 804 q 311 804 293 792 l 293 792 l 275 821 q 287 829 306 834 q 324 839 343 839 l 343 839 q 375 839 396 824 q 417 808 417 783 l 417 783 q 417 758 396 741 q 375 724 341 722 l 341 722 l 338 693 m 307 587 q 241 587 207 619 q 172 650 172 710 l 172 710 l 251 710 q 251 675 269 656 q 287 637 321 637 l 321 637 q 357 637 385 658 q 413 679 417 710 l 417 710 l 493 710 q 488 676 462 648 q 435 620 395 604 q 354 587 307 587 l 307 587 m 120 -6 q 63 -6 25 33 q -13 72 -13 155 l -13 155 q -13 229 17 311 q 46 392 105 449 q 163 505 244 505 l 244 505 q 285 505 305 491 q 325 477 325 454 l 325 454 l 325 447 l 336 500 l 480 500 l 408 160 q 404 145 404 128 l 404 128 q 404 85 445 85 l 445 85 q 473 85 494 111 q 514 137 526 179 l 526 179 l 568 179 q 531 71 477 33 q 422 -6 367 -6 l 367 -6 q 325 -6 300 18 q 274 41 269 86 l 269 86 q 240 45 205 20 q 169 -6 120 -6 l 120 -6 m 185 91 q 210 91 235 115 q 259 138 268 179 l 268 179 l 316 405 q 316 418 306 431 q 296 443 275 443 l 275 443 q 235 443 203 397 q 171 350 153 285 q 135 219 135 169 l 135 169 q 135 119 150 105 q 164 91 185 91 l 185 91"},"ẵ":{"x_min":-13,"x_max":568,"ha":526,"o":"m 394 784 q 369 784 331 798 l 331 798 q 297 810 279 810 l 279 810 q 254 810 233 792 l 233 792 l 229 793 q 245 826 275 844 q 304 861 344 861 l 344 861 q 372 861 408 849 l 408 849 q 437 838 458 838 l 458 838 q 487 838 501 854 l 501 854 l 506 854 q 501 828 467 806 q 433 784 394 784 l 394 784 m 312 587 q 246 587 212 619 q 177 650 177 710 l 177 710 l 256 710 q 256 675 274 656 q 292 637 326 637 l 326 637 q 362 637 390 658 q 418 679 422 710 l 422 710 l 498 710 q 493 676 467 648 q 440 620 400 604 q 359 587 312 587 l 312 587 m 120 -6 q 63 -6 25 33 q -13 72 -13 155 l -13 155 q -13 229 17 311 q 46 392 105 449 q 163 505 244 505 l 244 505 q 285 505 305 491 q 325 477 325 454 l 325 454 l 325 447 l 336 500 l 480 500 l 408 160 q 404 145 404 128 l 404 128 q 404 85 445 85 l 445 85 q 473 85 494 111 q 514 137 526 179 l 526 179 l 568 179 q 531 71 477 33 q 422 -6 367 -6 l 367 -6 q 325 -6 300 18 q 274 41 269 86 l 269 86 q 240 45 205 20 q 169 -6 120 -6 l 120 -6 m 185 91 q 210 91 235 115 q 259 138 268 179 l 268 179 l 316 405 q 316 418 306 431 q 296 443 275 443 l 275 443 q 235 443 203 397 q 171 350 153 285 q 135 219 135 169 l 135 169 q 135 119 150 105 q 164 91 185 91 l 185 91"},"ǎ":{"x_min":-13,"x_max":568,"ha":526,"o":"m 295 561 l 235 750 l 267 750 l 327 670 l 484 750 l 528 750 l 316 561 l 295 561 m 120 -6 q 63 -6 25 33 q -13 72 -13 155 l -13 155 q -13 229 17 311 q 46 392 105 449 q 163 505 244 505 l 244 505 q 285 505 305 491 q 325 477 325 454 l 325 454 l 325 447 l 336 500 l 480 500 l 408 160 q 404 145 404 128 l 404 128 q 404 85 445 85 l 445 85 q 473 85 494 111 q 514 137 526 179 l 526 179 l 568 179 q 531 71 477 33 q 422 -6 367 -6 l 367 -6 q 325 -6 300 18 q 274 41 269 86 l 269 86 q 240 45 205 20 q 169 -6 120 -6 l 120 -6 m 185 91 q 210 91 235 115 q 259 138 268 179 l 268 179 l 316 405 q 316 418 306 431 q 296 443 275 443 l 275 443 q 235 443 203 397 q 171 350 153 285 q 135 219 135 169 l 135 169 q 135 119 150 105 q 164 91 185 91 l 185 91"},"â":{"x_min":-13,"x_max":568,"ha":526,"o":"m 156 561 l 368 750 l 389 750 l 449 561 l 417 561 l 357 641 l 200 561 l 156 561 m 120 -6 q 63 -6 25 33 q -13 72 -13 155 l -13 155 q -13 229 17 311 q 46 392 105 449 q 163 505 244 505 l 244 505 q 285 505 305 491 q 325 477 325 454 l 325 454 l 325 447 l 336 500 l 480 500 l 408 160 q 404 145 404 128 l 404 128 q 404 85 445 85 l 445 85 q 473 85 494 111 q 514 137 526 179 l 526 179 l 568 179 q 531 71 477 33 q 422 -6 367 -6 l 367 -6 q 325 -6 300 18 q 274 41 269 86 l 269 86 q 240 45 205 20 q 169 -6 120 -6 l 120 -6 m 185 91 q 210 91 235 115 q 259 138 268 179 l 268 179 l 316 405 q 316 418 306 431 q 296 443 275 443 l 275 443 q 235 443 203 397 q 171 350 153 285 q 135 219 135 169 l 135 169 q 135 119 150 105 q 164 91 185 91 l 185 91"},"ấ":{"x_min":-13,"x_max":608,"ha":526,"o":"m 441 713 l 521 880 l 608 880 l 501 713 l 441 713 m 178 573 l 365 739 l 383 739 l 437 573 l 409 573 l 355 644 l 217 573 l 178 573 m 120 -6 q 63 -6 25 33 q -13 72 -13 155 l -13 155 q -13 229 17 311 q 46 392 105 449 q 163 505 244 505 l 244 505 q 285 505 305 491 q 325 477 325 454 l 325 454 l 325 447 l 336 500 l 480 500 l 408 160 q 404 145 404 128 l 404 128 q 404 85 445 85 l 445 85 q 473 85 494 111 q 514 137 526 179 l 526 179 l 568 179 q 531 71 477 33 q 422 -6 367 -6 l 367 -6 q 325 -6 300 18 q 274 41 269 86 l 269 86 q 240 45 205 20 q 169 -6 120 -6 l 120 -6 m 185 91 q 210 91 235 115 q 259 138 268 179 l 268 179 l 316 405 q 316 418 306 431 q 296 443 275 443 l 275 443 q 235 443 203 397 q 171 350 153 285 q 135 219 135 169 l 135 169 q 135 119 150 105 q 164 91 185 91 l 185 91"},"ậ":{"x_min":-13,"x_max":568,"ha":526,"o":"m 156 561 l 368 750 l 389 750 l 449 561 l 417 561 l 357 641 l 200 561 l 156 561 m 120 -6 q 63 -6 25 33 q -13 72 -13 155 l -13 155 q -13 229 17 311 q 46 392 105 449 q 163 505 244 505 l 244 505 q 285 505 305 491 q 325 477 325 454 l 325 454 l 325 447 l 336 500 l 480 500 l 408 160 q 404 145 404 128 l 404 128 q 404 85 445 85 l 445 85 q 473 85 494 111 q 514 137 526 179 l 526 179 l 568 179 q 531 71 477 33 q 422 -6 367 -6 l 367 -6 q 325 -6 300 18 q 274 41 269 86 l 269 86 q 240 45 205 20 q 169 -6 120 -6 l 120 -6 m 185 91 q 210 91 235 115 q 259 138 268 179 l 268 179 l 316 405 q 316 418 306 431 q 296 443 275 443 l 275 443 q 235 443 203 397 q 171 350 153 285 q 135 219 135 169 l 135 169 q 135 119 150 105 q 164 91 185 91 l 185 91 m 167 -231 q 135 -231 112 -208 q 88 -185 88 -152 l 88 -152 q 88 -119 112 -95 q 135 -72 167 -72 l 167 -72 q 200 -72 224 -95 q 248 -119 248 -152 l 248 -152 q 248 -185 224 -208 q 200 -231 167 -231 l 167 -231"},"ầ":{"x_min":-13,"x_max":568,"ha":526,"o":"m 480 679 l 428 845 l 507 845 l 533 679 l 480 679 m 178 573 l 365 739 l 383 739 l 437 573 l 409 573 l 355 644 l 217 573 l 178 573 m 120 -6 q 63 -6 25 33 q -13 72 -13 155 l -13 155 q -13 229 17 311 q 46 392 105 449 q 163 505 244 505 l 244 505 q 285 505 305 491 q 325 477 325 454 l 325 454 l 325 447 l 336 500 l 480 500 l 408 160 q 404 145 404 128 l 404 128 q 404 85 445 85 l 445 85 q 473 85 494 111 q 514 137 526 179 l 526 179 l 568 179 q 531 71 477 33 q 422 -6 367 -6 l 367 -6 q 325 -6 300 18 q 274 41 269 86 l 269 86 q 240 45 205 20 q 169 -6 120 -6 l 120 -6 m 185 91 q 210 91 235 115 q 259 138 268 179 l 268 179 l 316 405 q 316 418 306 431 q 296 443 275 443 l 275 443 q 235 443 203 397 q 171 350 153 285 q 135 219 135 169 l 135 169 q 135 119 150 105 q 164 91 185 91 l 185 91"}}}
